SplineFontDB: 3.2
FontName: RITPanmana-Regular
FullName: RIT Panmana Regular
FamilyName: RIT Panmana
Weight: Regular
Copyright: Copyright (c) 2020-2024 Hussain KH <hussain@rachana.org.in>, Rajeesh KV <rajeesh@rachana.org.in>,\nRachana Institute of Typography (www.rachana.org.in; info@rachana.org.in); with Reserved Font Name Panmana.
Version: 1.4.3
ItalicAngle: 0
UnderlinePosition: -100
UnderlineWidth: 20
Ascent: 1220
Descent: 828
InvalidEm: 0
sfntRevision: 0x00010000
LayerCount: 2
Layer: 0 1 "Back" 1
Layer: 1 1 "Fore" 0
XUID: [1021 339 384270074 12278291]
StyleMap: 0x0020
FSType: 0
OS2Version: 4
OS2_WeightWidthSlopeOnly: 0
OS2_UseTypoMetrics: 1
CreationTime: 1418347145
ModificationTime: 1736688167
PfmFamily: 17
TTFWeight: 400
TTFWidth: 5
LineGap: 0
VLineGap: 0
Panose: 0 0 6 0 0 0 0 0 0 0
OS2TypoAscent: 1304
OS2TypoAOffset: 0
OS2TypoDescent: -744
OS2TypoDOffset: 0
OS2TypoLinegap: 0
OS2WinAscent: 1304
OS2WinAOffset: 0
OS2WinDescent: 744
OS2WinDOffset: 0
HheadAscent: 1304
HheadAOffset: 0
HheadDescent: -744
HheadDOffset: 0
OS2SubXSize: 700
OS2SubYSize: 650
OS2SubXOff: 0
OS2SubYOff: 140
OS2SupXSize: 700
OS2SupYSize: 650
OS2SupXOff: 0
OS2SupYOff: 477
OS2StrikeYSize: 50
OS2StrikeYPos: 250
OS2Vendor: 'RIT '
OS2CodePages: 00000001.00000000
OS2UnicodeRanges: 80800001.00002002.00000000.00000000
MarkAttachClasses: 1
DEI: 91125
ShortTable: maxp 16
  1
  0
  786
  205
  9
  60
  4
  2
  0
  1
  1
  0
  64
  0
  2
  1
EndShort
LangName: 1033 "" "" "" "" "" "1.4.3" "" "" "RIT" "Hussain K H" "" "http://rachana.org.in" "" "OFL" "https://scripts.sil.org/OFL"
GaspTable: 1 65535 15 1
Encoding: Custom
UnicodeInterp: none
NameList: Adobe Glyph List
DisplaySize: -72
AntiAlias: 1
FitToEm: 1
WinInfo: 399 21 16
BeginPrivate: 0
EndPrivate
Grid
-2048 911.599998474 m 0
 4096 911.599998474 l 1024
117 2244 m 0
 117 -1852 l 1024
EndSplineSet

StartChar: .notdef
Encoding: 312 -1 0
Width: 554
GlyphClass: 2
Flags: W
HStem: 0 46 884 48
VStem: 16 46 436 46
LayerCount: 2
Fore
SplineSet
15 904 m 1,0,-1
 467 904 l 1,1,-1
 467 0 l 1,2,-1
 15 0 l 1,3,-1
 15 904 l 1,0,-1
422 45 m 1,4,-1
 422 857 l 1,5,-1
 59 857 l 1,6,-1
 59 45 l 1,7,-1
 422 45 l 1,4,-1
EndSplineSet
Validated: 1
EndChar

StartChar: exclam
Encoding: 4 33 6
Width: 268
GlyphClass: 2
Flags: W
LayerCount: 2
Fore
SplineSet
268 836 m 2,0,-1
 236.5 253 l 1,1,2
 229.299804688 244 229.299804688 244 216.25 233.5 c 128,-1,3
 203.200195312 223 203.200195312 223 192.399414062 223 c 0,4,5
 179.799804688 223 179.799804688 223 166.299804688 233 c 128,-1,6
 152.799804688 243 152.799804688 243 144.700195312 253 c 1,7,-1
 115 836 l 1,8,-1
 115 843 l 2,9,10
 115 855 115 855 119.5 867.5 c 128,-1,11
 124 880 124 880 131.649414062 890 c 128,-1,12
 139.299804688 900 139.299804688 900 149.649414062 906.5 c 128,-1,13
 160 913 160 913 171.700195312 913 c 2,14,-1
 209.5 913 l 2,15,16
 220.299804688 913 220.299804688 913 231.099609375 905 c 128,-1,17
 241.899414062 897 241.899414062 897 250.450195312 885.5 c 128,-1,18
 259 874 259 874 263.950195312 860.5 c 128,-1,19
 268.899414062 847 268.899414062 847 268 836 c 2,0,-1
192.399414062 144 m 0,20,21
 252.700195312 144 252.700195312 144 252.700195312 74 c 0,22,23
 252.700195312 5 252.700195312 5 192.399414062 5 c 0,24,25
 163.599609375 5 163.599609375 5 147.399414062 23 c 128,-1,26
 131.200195312 41 131.200195312 41 131.200195312 73 c 256,27,28
 131.200195312 105 131.200195312 105 146.950195312 124.5 c 128,-1,29
 162.700195312 144 162.700195312 144 192.399414062 144 c 0,20,21
EndSplineSet
Validated: 1
EndChar

StartChar: quotedbl
Encoding: 5 34 7
Width: 487
GlyphClass: 2
Flags: W
LayerCount: 2
Fore
SplineSet
488 1201 m 1,0,-1
 471 884 l 1,1,2
 452 853 452 853 416 854 c 0,3,4
 383 855 383 855 364 884 c 1,5,-1
 340 1201 l 1,6,7
 365 1242 365 1242 413 1242 c 0,8,9
 438 1242 438 1242 456.5 1232.5 c 128,-1,10
 475 1223 475 1223 488 1201 c 1,0,-1
263 1201 m 1,11,-1
 246 884 l 1,12,13
 227 853 227 853 191 854 c 0,14,15
 158 855 158 855 139 884 c 1,16,-1
 115 1201 l 1,17,18
 140 1242 140 1242 188 1242 c 0,19,20
 238 1242 238 1242 263 1201 c 1,11,-1
EndSplineSet
Validated: 1
EndChar

StartChar: numbersign
Encoding: 6 35 8
Width: 888
GlyphClass: 2
Flags: W
LayerCount: 2
Fore
SplineSet
115 374 m 1,0,-1
 115 471 l 1,1,-1
 272.5 471 l 1,2,-1
 313.899414062 716 l 1,3,-1
 137.5 716 l 1,4,-1
 137.5 812 l 1,5,-1
 329.200195312 812 l 1,6,-1
 389.5 1168 l 1,7,-1
 480.399414062 1168 l 1,8,-1
 421.899414062 812 l 1,9,-1
 654.099609375 812 l 1,10,-1
 710.799804688 1168 l 1,11,-1
 806.200195312 1168 l 1,12,-1
 747.700195312 812 l 1,13,-1
 888.099609375 812 l 1,14,-1
 888.099609375 716 l 1,15,-1
 732.399414062 716 l 1,16,-1
 691.899414062 471 l 1,17,-1
 867.399414062 471 l 1,18,-1
 867.399414062 374 l 1,19,-1
 674.799804688 374 l 1,20,-1
 614.5 0 l 1,21,-1
 520 0 l 1,22,-1
 581.200195312 374 l 1,23,-1
 348.099609375 374 l 1,24,-1
 284.200195312 0 l 1,25,-1
 191.5 0 l 1,26,-1
 255.399414062 374 l 1,27,-1
 115 374 l 1,0,-1
365.200195312 471 m 1,28,-1
 597.399414062 471 l 1,29,-1
 637.899414062 716 l 1,30,-1
 406.599609375 716 l 1,31,-1
 365.200195312 471 l 1,28,-1
EndSplineSet
Validated: 1
EndChar

StartChar: dollar
Encoding: 7 36 9
Width: 689
GlyphClass: 2
Flags: W
LayerCount: 2
Fore
SplineSet
115 360 m 1,0,-1
 213.100585938 360 l 1,1,2
 213.100585938 309 213.100585938 309 226.600585938 268.5 c 128,-1,3
 240.100585938 228 240.100585938 228 265.30078125 200 c 128,-1,4
 290.5 172 290.5 172 325.150390625 157 c 128,-1,5
 359.80078125 142 359.80078125 142 402.100585938 142 c 0,6,7
 441.700195312 142 441.700195312 142 475 158 c 128,-1,8
 508.30078125 174 508.30078125 174 532.600585938 202 c 128,-1,9
 556.900390625 230 556.900390625 230 570.400390625 269 c 128,-1,10
 583.900390625 308 583.900390625 308 583.900390625 354 c 0,11,12
 583.900390625 402 583.900390625 402 568.600585938 441 c 128,-1,13
 553.30078125 480 553.30078125 480 524.5 507 c 0,14,15
 502.900390625 526 502.900390625 526 474.100585938 541 c 128,-1,16
 445.30078125 556 445.30078125 556 392.200195312 574 c 0,17,18
 351.700195312 587 351.700195312 587 322.900390625 599.5 c 128,-1,19
 294.100585938 612 294.100585938 612 272.5 625.5 c 128,-1,20
 250.900390625 639 250.900390625 639 235.150390625 654 c 128,-1,21
 219.400390625 669 219.400390625 669 205.900390625 689 c 0,22,23
 179.80078125 725 179.80078125 725 164.950195312 773 c 128,-1,24
 150.100585938 821 150.100585938 821 150.100585938 872 c 0,25,26
 150.100585938 925 150.100585938 925 164.5 971.5 c 128,-1,27
 178.900390625 1018 178.900390625 1018 205.450195312 1054 c 128,-1,28
 232 1090 232 1090 270.25 1114.5 c 128,-1,29
 308.5 1139 308.5 1139 356.200195312 1150 c 1,30,-1
 356.200195312 1280 l 1,31,-1
 449.80078125 1280 l 1,32,-1
 449.80078125 1150 l 1,33,34
 502 1141 502 1141 544.75 1117.5 c 128,-1,35
 587.5 1094 587.5 1094 617.650390625 1057 c 128,-1,36
 647.80078125 1020 647.80078125 1020 664 971.5 c 128,-1,37
 680.200195312 923 680.200195312 923 680.200195312 864 c 1,38,-1
 581.200195312 864 l 1,39,40
 581.200195312 908 581.200195312 908 569.05078125 942.5 c 128,-1,41
 556.900390625 977 556.900390625 977 535.30078125 1001 c 128,-1,42
 513.700195312 1025 513.700195312 1025 483.100585938 1038 c 128,-1,43
 452.5 1051 452.5 1051 415.600585938 1051 c 0,44,45
 341.80078125 1051 341.80078125 1051 298.600585938 1000.5 c 128,-1,46
 255.400390625 950 255.400390625 950 255.400390625 863 c 0,47,48
 255.400390625 826 255.400390625 826 263.5 799 c 128,-1,49
 271.600585938 772 271.600585938 772 291.400390625 750.5 c 128,-1,50
 311.200195312 729 311.200195312 729 344.950195312 711.5 c 128,-1,51
 378.700195312 694 378.700195312 694 429.100585938 676 c 0,52,53
 466.900390625 662 466.900390625 662 494.80078125 650.5 c 128,-1,54
 522.700195312 639 522.700195312 639 543.400390625 627 c 128,-1,55
 564.100585938 615 564.100585938 615 580.30078125 602.5 c 128,-1,56
 596.5 590 596.5 590 610.900390625 574 c 0,57,58
 648.700195312 532 648.700195312 532 668.950195312 476.5 c 128,-1,59
 689.200195312 421 689.200195312 421 689.200195312 357 c 0,60,61
 689.200195312 295 689.200195312 295 671.650390625 241 c 128,-1,62
 654.100585938 187 654.100585938 187 622.600585938 145.5 c 128,-1,63
 591.100585938 104 591.100585938 104 547 78 c 128,-1,64
 502.900390625 52 502.900390625 52 449.80078125 46 c 1,65,-1
 449.80078125 -87 l 1,66,-1
 356.200195312 -87 l 1,67,-1
 356.200195312 46 l 1,68,69
 233.80078125 71 233.80078125 71 174.400390625 151.5 c 128,-1,70
 115 232 115 232 115 360 c 1,0,-1
EndSplineSet
Validated: 1
EndChar

StartChar: percent
Encoding: 8 37 10
Width: 1165
GlyphClass: 2
Flags: W
LayerCount: 2
Fore
SplineSet
115 905 m 0,0,1
 115 963 115 963 134.349609375 1014 c 128,-1,2
 153.69921875 1065 153.69921875 1065 187.899414062 1102.5 c 128,-1,3
 222.099609375 1140 222.099609375 1140 267.549804688 1162 c 128,-1,4
 313 1184 313 1184 366.099609375 1184 c 0,5,6
 416.5 1184 416.5 1184 461.5 1162 c 128,-1,7
 506.5 1140 506.5 1140 540.25 1101.5 c 128,-1,8
 574 1063 574 1063 593.799804688 1012.5 c 128,-1,9
 613.599609375 962 613.599609375 962 613.599609375 905 c 256,10,11
 613.599609375 848 613.599609375 848 593.799804688 797 c 128,-1,12
 574 746 574 746 540.25 708.5 c 128,-1,13
 506.5 671 506.5 671 460.599609375 649 c 128,-1,14
 414.69921875 627 414.69921875 627 363.399414062 627 c 256,15,16
 312.099609375 627 312.099609375 627 266.649414062 649 c 128,-1,17
 221.19921875 671 221.19921875 671 187.44921875 708.5 c 128,-1,18
 153.69921875 746 153.69921875 746 134.349609375 797 c 128,-1,19
 115 848 115 848 115 905 c 0,0,1
208.599609375 905 m 0,20,21
 208.599609375 870 208.599609375 870 220.75 838.5 c 128,-1,22
 232.899414062 807 232.899414062 807 254.049804688 783.5 c 128,-1,23
 275.19921875 760 275.19921875 760 303.099609375 746 c 128,-1,24
 331 732 331 732 363.399414062 732 c 0,25,26
 394.899414062 732 394.899414062 732 422.799804688 745.5 c 128,-1,27
 450.69921875 759 450.69921875 759 471.849609375 782.5 c 128,-1,28
 493 806 493 806 505.149414062 837.5 c 128,-1,29
 517.299804688 869 517.299804688 869 517.299804688 905 c 256,30,31
 517.299804688 941 517.299804688 941 505.149414062 972.5 c 128,-1,32
 493 1004 493 1004 472.299804688 1027.5 c 128,-1,33
 451.599609375 1051 451.599609375 1051 424.149414062 1065 c 128,-1,34
 396.69921875 1079 396.69921875 1079 365.19921875 1079 c 0,35,36
 332.799804688 1079 332.799804688 1079 304 1065.5 c 128,-1,37
 275.19921875 1052 275.19921875 1052 254.049804688 1028.5 c 128,-1,38
 232.899414062 1005 232.899414062 1005 220.75 973 c 128,-1,39
 208.599609375 941 208.599609375 941 208.599609375 905 c 0,20,21
355.299804688 0 m 1,40,-1
 826.899414062 1168 l 1,41,-1
 932.19921875 1168 l 1,42,-1
 457 0 l 1,43,-1
 355.299804688 0 l 1,40,-1
666.69921875 256 m 0,44,45
 666.69921875 314 666.69921875 314 686.049804688 365 c 128,-1,46
 705.399414062 416 705.399414062 416 739.599609375 453.5 c 128,-1,47
 773.799804688 491 773.799804688 491 819.25 512.5 c 128,-1,48
 864.69921875 534 864.69921875 534 917.799804688 534 c 0,49,50
 968.19921875 534 968.19921875 534 1013.19921875 512 c 128,-1,51
 1058.19921875 490 1058.19921875 490 1091.94921875 452.5 c 128,-1,52
 1125.69921875 415 1125.69921875 415 1145.5 364.5 c 128,-1,53
 1165.29980469 314 1165.29980469 314 1165.29980469 258 c 0,54,55
 1165.29980469 200 1165.29980469 200 1145.5 149.5 c 128,-1,56
 1125.69921875 99 1125.69921875 99 1091.94921875 61.5 c 128,-1,57
 1058.19921875 24 1058.19921875 24 1012.29980469 2 c 128,-1,58
 966.399414062 -20 966.399414062 -20 915.099609375 -20 c 256,59,60
 863.799804688 -20 863.799804688 -20 818.349609375 1.5 c 128,-1,61
 772.899414062 23 772.899414062 23 739.149414062 60.5 c 128,-1,62
 705.399414062 98 705.399414062 98 686.049804688 148.5 c 128,-1,63
 666.69921875 199 666.69921875 199 666.69921875 256 c 0,44,45
761.19921875 256 m 0,64,65
 761.19921875 220 761.19921875 220 773.349609375 189 c 128,-1,66
 785.5 158 785.5 158 806.649414062 134.5 c 128,-1,67
 827.799804688 111 827.799804688 111 855.69921875 97.5 c 128,-1,68
 883.599609375 84 883.599609375 84 915.099609375 84 c 256,69,70
 946.599609375 84 946.599609375 84 974.5 97.5 c 128,-1,71
 1002.39941406 111 1002.39941406 111 1023.54980469 134.5 c 128,-1,72
 1044.69921875 158 1044.69921875 158 1056.84960938 189 c 128,-1,73
 1069 220 1069 220 1069 256 c 256,74,75
 1069 292 1069 292 1056.84960938 323.5 c 128,-1,76
 1044.69921875 355 1044.69921875 355 1024 378.5 c 128,-1,77
 1003.29980469 402 1003.29980469 402 975.849609375 416 c 128,-1,78
 948.399414062 430 948.399414062 430 916.899414062 430 c 0,79,80
 884.5 430 884.5 430 855.69921875 416.5 c 128,-1,81
 826.899414062 403 826.899414062 403 806.19921875 379.5 c 128,-1,82
 785.5 356 785.5 356 773.349609375 324.5 c 128,-1,83
 761.19921875 293 761.19921875 293 761.19921875 256 c 0,64,65
EndSplineSet
Validated: 1
EndChar

StartChar: ampersand
Encoding: 9 38 11
Width: 1078
GlyphClass: 2
Flags: W
LayerCount: 2
Fore
SplineSet
115 337 m 0,0,1
 115 395 115 395 129.400390625 443.5 c 128,-1,2
 143.799804688 492 143.799804688 492 173.950195312 533.5 c 128,-1,3
 204.099609375 575 204.099609375 575 249.549804688 611.5 c 128,-1,4
 295 648 295 648 357.099609375 684 c 1,5,6
 323.799804688 723 323.799804688 723 301.299804688 754.5 c 128,-1,7
 278.799804688 786 278.799804688 786 265.299804688 815 c 128,-1,8
 251.799804688 844 251.799804688 844 245.950195312 871.5 c 128,-1,9
 240.099609375 899 240.099609375 899 240.099609375 929 c 0,10,11
 240.099609375 983 240.099609375 983 259.450195312 1030.5 c 128,-1,12
 278.799804688 1078 278.799804688 1078 312.549804688 1113 c 128,-1,13
 346.299804688 1148 346.299804688 1148 391.75 1168 c 128,-1,14
 437.200195312 1188 437.200195312 1188 489.400390625 1188 c 0,15,16
 543.400390625 1188 543.400390625 1188 589.75 1168 c 128,-1,17
 636.099609375 1148 636.099609375 1148 669.849609375 1112 c 128,-1,18
 703.599609375 1076 703.599609375 1076 722.950195312 1027 c 128,-1,19
 742.299804688 978 742.299804688 978 742.299804688 921 c 0,20,21
 742.299804688 874 742.299804688 874 732.400390625 838 c 128,-1,22
 722.5 802 722.5 802 699.099609375 771.5 c 128,-1,23
 675.700195312 741 675.700195312 741 636.099609375 712 c 128,-1,24
 596.5 683 596.5 683 537.099609375 649 c 1,25,-1
 736.900390625 431 l 1,26,-1
 889.900390625 760 l 1,27,-1
 1006.90039062 760 l 1,28,-1
 813.400390625 348 l 1,29,-1
 1078.90039062 60 l 1,30,-1
 1006.90039062 -20 l 1,31,-1
 763.900390625 242 l 1,32,33
 732.400390625 173 732.400390625 173 698.650390625 123.5 c 128,-1,34
 664.900390625 74 664.900390625 74 626.200195312 42 c 128,-1,35
 587.5 10 587.5 10 542.950195312 -5 c 128,-1,36
 498.400390625 -20 498.400390625 -20 446.200195312 -20 c 0,37,38
 374.200195312 -20 374.200195312 -20 313.450195312 8 c 128,-1,39
 252.700195312 36 252.700195312 36 208.599609375 84.5 c 128,-1,40
 164.5 133 164.5 133 139.75 198 c 128,-1,41
 115 263 115 263 115 337 c 0,0,1
218.5 324 m 0,42,43
 218.5 274 218.5 274 235.599609375 230.5 c 128,-1,44
 252.700195312 187 252.700195312 187 282.849609375 154.5 c 128,-1,45
 313 122 313 122 353.049804688 103.5 c 128,-1,46
 393.099609375 85 393.099609375 85 439 85 c 0,47,48
 476.799804688 85 476.799804688 85 509.200195312 98 c 128,-1,49
 541.599609375 111 541.599609375 111 571.299804688 140 c 128,-1,50
 601 169 601 169 628.900390625 215 c 128,-1,51
 656.799804688 261 656.799804688 261 685.599609375 326 c 1,52,-1
 431.799804688 600 l 1,53,54
 373.299804688 569 373.299804688 569 332.799804688 538.5 c 128,-1,55
 292.299804688 508 292.299804688 508 267.099609375 475 c 128,-1,56
 241.900390625 442 241.900390625 442 230.200195312 405 c 128,-1,57
 218.5 368 218.5 368 218.5 324 c 0,42,43
345.400390625 932 m 0,58,59
 345.400390625 887 345.400390625 887 371.950195312 841.5 c 128,-1,60
 398.5 796 398.5 796 460.599609375 733 c 1,61,62
 556 774 556 774 599.200195312 821.5 c 128,-1,63
 642.400390625 869 642.400390625 869 642.400390625 931 c 0,64,65
 642.400390625 963 642.400390625 963 631.150390625 990.5 c 128,-1,66
 619.900390625 1018 619.900390625 1018 599.650390625 1038.5 c 128,-1,67
 579.400390625 1059 579.400390625 1059 551.950195312 1070.5 c 128,-1,68
 524.5 1082 524.5 1082 492.099609375 1082 c 0,69,70
 460.599609375 1082 460.599609375 1082 434.049804688 1070.5 c 128,-1,71
 407.5 1059 407.5 1059 387.700195312 1038.5 c 128,-1,72
 367.900390625 1018 367.900390625 1018 356.650390625 990.5 c 128,-1,73
 345.400390625 963 345.400390625 963 345.400390625 932 c 0,58,59
EndSplineSet
Validated: 1
EndChar

StartChar: quotesingle
Encoding: 10 39 12
Width: 260
GlyphClass: 2
Flags: W
LayerCount: 2
Fore
SplineSet
263 1201 m 1,0,-1
 246 884 l 1,1,2
 227 853 227 853 191 854 c 0,3,4
 158 855 158 855 139 884 c 1,5,-1
 115 1201 l 1,6,7
 140 1242 140 1242 188 1242 c 0,8,9
 238 1242 238 1242 263 1201 c 1,0,-1
EndSplineSet
Validated: 1
EndChar

StartChar: parenleft
Encoding: 11 40 13
Width: 484
GlyphClass: 2
Flags: W
LayerCount: 2
Fore
SplineSet
115 358 m 2,0,-1
 115 482 l 2,1,2
 115 560 115 560 128.950195312 638.5 c 128,-1,3
 142.899414062 717 142.899414062 717 167.649414062 791.5 c 128,-1,4
 192.399414062 866 192.399414062 866 226.599609375 933.5 c 128,-1,5
 260.799804688 1001 260.799804688 1001 301.75 1057 c 128,-1,6
 342.700195312 1113 342.700195312 1113 389.5 1154.5 c 128,-1,7
 436.299804688 1196 436.299804688 1196 484.899414062 1219 c 1,8,-1
 484.899414062 1095 l 1,9,10
 430.899414062 1058 430.899414062 1058 384.549804688 991.5 c 128,-1,11
 338.200195312 925 338.200195312 925 304.450195312 842.5 c 128,-1,12
 270.700195312 760 270.700195312 760 251.799804688 666.5 c 128,-1,13
 232.899414062 573 232.899414062 573 232.899414062 482 c 2,14,-1
 232.899414062 358 l 2,15,16
 232.899414062 266 232.899414062 266 251.799804688 173 c 128,-1,17
 270.700195312 80 270.700195312 80 304.450195312 -2.5 c 128,-1,18
 338.200195312 -85 338.200195312 -85 384.549804688 -151 c 128,-1,19
 430.899414062 -217 430.899414062 -217 484.899414062 -254 c 1,20,-1
 484.899414062 -379 l 1,21,22
 435.399414062 -356 435.399414062 -356 389.049804688 -314.5 c 128,-1,23
 342.700195312 -273 342.700195312 -273 301.75 -217 c 128,-1,24
 260.799804688 -161 260.799804688 -161 226.599609375 -93.5 c 128,-1,25
 192.399414062 -26 192.399414062 -26 167.649414062 48 c 128,-1,26
 142.899414062 122 142.899414062 122 128.950195312 201 c 128,-1,27
 115 280 115 280 115 358 c 2,0,-1
EndSplineSet
Validated: 1
EndChar

StartChar: parenright
Encoding: 12 41 14
Width: 484
GlyphClass: 2
Flags: W
LayerCount: 2
Fore
SplineSet
115 -254 m 1,0,1
 169 -217 169 -217 215.350585938 -151 c 128,-1,2
 261.700195312 -85 261.700195312 -85 295.450195312 -2.5 c 128,-1,3
 329.200195312 80 329.200195312 80 348.100585938 173 c 128,-1,4
 367 266 367 266 367 358 c 2,5,-1
 367 482 l 2,6,7
 367 573 367 573 348.100585938 666.5 c 128,-1,8
 329.200195312 760 329.200195312 760 295.450195312 842.5 c 128,-1,9
 261.700195312 925 261.700195312 925 215.350585938 991.5 c 128,-1,10
 169 1058 169 1058 115 1095 c 1,11,-1
 115 1219 l 1,12,13
 163.600585938 1196 163.600585938 1196 210.400390625 1154.5 c 128,-1,14
 257.200195312 1113 257.200195312 1113 298.150390625 1057 c 128,-1,15
 339.100585938 1001 339.100585938 1001 373.30078125 933.5 c 128,-1,16
 407.5 866 407.5 866 432.25 791.5 c 128,-1,17
 457 717 457 717 470.950195312 638.5 c 128,-1,18
 484.900390625 560 484.900390625 560 484.900390625 482 c 2,19,-1
 484.900390625 358 l 2,20,21
 484.900390625 280 484.900390625 280 470.950195312 201 c 128,-1,22
 457 122 457 122 432.25 48 c 128,-1,23
 407.5 -26 407.5 -26 373.30078125 -93.5 c 128,-1,24
 339.100585938 -161 339.100585938 -161 298.150390625 -217 c 128,-1,25
 257.200195312 -273 257.200195312 -273 210.400390625 -314.5 c 128,-1,26
 163.600585938 -356 163.600585938 -356 115 -379 c 1,27,-1
 115 -254 l 1,0,1
EndSplineSet
Validated: 1
EndChar

StartChar: asterisk
Encoding: 13 42 15
Width: 635
GlyphClass: 2
Flags: W
LayerCount: 2
Fore
SplineSet
115 768 m 1,0,-1
 275.19921875 867 l 1,1,-1
 115 967 l 1,2,-1
 167.19921875 1068 l 1,3,-1
 324.69921875 964 l 1,4,-1
 322 1168 l 1,5,-1
 427.299804688 1168 l 1,6,-1
 424.599609375 964 l 1,7,-1
 582.099609375 1068 l 1,8,-1
 635.19921875 967 l 1,9,-1
 474.099609375 867 l 1,10,-1
 635.19921875 768 l 1,11,-1
 582.099609375 667 l 1,12,-1
 424.599609375 771 l 1,13,-1
 427.299804688 567 l 1,14,-1
 322 567 l 1,15,-1
 324.69921875 771 l 1,16,-1
 167.19921875 667 l 1,17,-1
 115 768 l 1,0,-1
EndSplineSet
Validated: 1
EndChar

StartChar: plus
Encoding: 14 43 16
Width: 911
GlyphClass: 2
Flags: W
LayerCount: 2
Fore
SplineSet
115 337 m 1,0,-1
 115 453 l 1,1,-1
 460.599609375 453 l 1,2,-1
 460.599609375 837 l 1,3,-1
 565.899414062 837 l 1,4,-1
 565.899414062 453 l 1,5,-1
 911.5 453 l 1,6,-1
 911.5 337 l 1,7,-1
 565.899414062 337 l 1,8,-1
 565.899414062 -46 l 1,9,-1
 460.599609375 -46 l 1,10,-1
 460.599609375 337 l 1,11,-1
 115 337 l 1,0,-1
EndSplineSet
Validated: 1
EndChar

StartChar: comma
Encoding: 15 44 17
Width: 278
GlyphClass: 2
Flags: W
LayerCount: 2
Fore
SplineSet
277 67 m 0,0,1
 277 34 277 34 265 -2.5 c 128,-1,2
 253 -39 253 -39 235.5 -75.5 c 128,-1,3
 218 -112 218 -112 198.5 -146 c 128,-1,4
 179 -180 179 -180 164 -207 c 1,5,-1
 117 -195 l 1,6,7
 140 -142 140 -142 157.5 -96.5 c 128,-1,8
 175 -51 175 -51 188 4 c 1,9,10
 182 -3 182 -3 174.5 -8 c 128,-1,11
 167 -13 167 -13 157 -13 c 0,12,13
 143 -13 143 -13 132.5 -3.5 c 128,-1,14
 122 6 122 6 115 19.5 c 128,-1,15
 108 33 108 33 105 48 c 128,-1,16
 102 63 102 63 102 74 c 0,17,18
 102 93 102 93 106.5 112 c 128,-1,19
 111 131 111 131 121 146 c 128,-1,20
 131 161 131 161 146.5 170.5 c 128,-1,21
 162 180 162 180 184 180 c 0,22,23
 209 180 209 180 226.5 171 c 128,-1,24
 244 162 244 162 255.5 146 c 128,-1,25
 267 130 267 130 272 109.5 c 128,-1,26
 277 89 277 89 277 67 c 0,0,1
EndSplineSet
Validated: 1
EndChar

StartChar: hyphen
Encoding: 16 45 18
Width: 696
GlyphClass: 2
Flags: W
LayerCount: 2
Fore
SplineSet
694 311 m 1,0,-1
 115 311 l 1,1,-1
 115 417 l 1,2,-1
 694 417 l 1,3,-1
 694 311 l 1,0,-1
EndSplineSet
Validated: 1
EndChar

StartChar: period
Encoding: 17 46 19
Width: 306
GlyphClass: 2
Flags: W
LayerCount: 2
Fore
SplineSet
112 99 m 256,0,1
 112 120 112 120 118.5 141.5 c 128,-1,2
 125 163 125 163 137.5 180.5 c 128,-1,3
 150 198 150 198 168 209 c 128,-1,4
 186 220 186 220 209 220 c 256,5,6
 232 220 232 220 250 209 c 128,-1,7
 268 198 268 198 280.5 180.5 c 128,-1,8
 293 163 293 163 299.5 141.5 c 128,-1,9
 306 120 306 120 306 99 c 256,10,11
 306 78 306 78 299.5 57 c 128,-1,12
 293 36 293 36 280.5 19 c 128,-1,13
 268 2 268 2 250 -9 c 128,-1,14
 232 -20 232 -20 209 -20 c 256,15,16
 186 -20 186 -20 168 -9 c 128,-1,17
 150 2 150 2 137.5 19 c 128,-1,18
 125 36 125 36 118.5 57 c 128,-1,19
 112 78 112 78 112 99 c 256,0,1
EndSplineSet
Validated: 1
EndChar

StartChar: slash
Encoding: 18 47 20
Width: 648
GlyphClass: 2
Flags: W
LayerCount: 2
Fore
SplineSet
115 -251 m 1,0,-1
 530.80078125 1092 l 1,1,-1
 648.700195312 1092 l 1,2,-1
 232.900390625 -251 l 1,3,-1
 115 -251 l 1,0,-1
EndSplineSet
Validated: 1
EndChar

StartChar: zero
Encoding: 19 48 21
Width: 700
GlyphClass: 2
Flags: W
LayerCount: 2
Fore
SplineSet
115 353 m 2,0,-1
 115 629 l 2,1,2
 115 720 115 720 135.700195312 787.5 c 128,-1,3
 156.400390625 855 156.400390625 855 194.200195312 899.5 c 128,-1,4
 232 944 232 944 286 966 c 128,-1,5
 340 988 340 988 407.5 988 c 0,6,7
 471.400390625 988 471.400390625 988 525.400390625 967 c 128,-1,8
 579.400390625 946 579.400390625 946 618.100585938 901.5 c 128,-1,9
 656.80078125 857 656.80078125 857 678.400390625 789.5 c 128,-1,10
 700 722 700 722 700 629 c 2,11,-1
 700 353 l 2,12,13
 700 255 700 255 680.650390625 185 c 128,-1,14
 661.30078125 115 661.30078125 115 624.400390625 70.5 c 128,-1,15
 587.5 26 587.5 26 534.400390625 5 c 128,-1,16
 481.30078125 -16 481.30078125 -16 414.700195312 -16 c 0,17,18
 345.400390625 -16 345.400390625 -16 290.05078125 5.5 c 128,-1,19
 234.700195312 27 234.700195312 27 196 72 c 128,-1,20
 157.30078125 117 157.30078125 117 136.150390625 187 c 128,-1,21
 115 257 115 257 115 353 c 2,0,-1
201.400390625 369 m 2,22,23
 201.400390625 284 201.400390625 284 216.25 226.5 c 128,-1,24
 231.100585938 169 231.100585938 169 258.55078125 134.5 c 128,-1,25
 286 100 286 100 324.700195312 85.5 c 128,-1,26
 363.400390625 71 363.400390625 71 411.100585938 71 c 0,27,28
 462.400390625 71 462.400390625 71 500.650390625 87.5 c 128,-1,29
 538.900390625 104 538.900390625 104 564.100585938 139.5 c 128,-1,30
 589.30078125 175 589.30078125 175 601.900390625 231.5 c 128,-1,31
 614.5 288 614.5 288 614.5 369 c 2,32,-1
 614.5 607 l 2,33,34
 614.5 672 614.5 672 604.600585938 726 c 128,-1,35
 594.700195312 780 594.700195312 780 571.30078125 818.5 c 128,-1,36
 547.900390625 857 547.900390625 857 507.850585938 878.5 c 128,-1,37
 467.80078125 900 467.80078125 900 408.400390625 900 c 0,38,39
 359.80078125 900 359.80078125 900 321.55078125 884.5 c 128,-1,40
 283.30078125 869 283.30078125 869 256.30078125 834.5 c 128,-1,41
 229.30078125 800 229.30078125 800 215.350585938 744 c 128,-1,42
 201.400390625 688 201.400390625 688 201.400390625 607 c 2,43,-1
 201.400390625 369 l 2,22,23
EndSplineSet
Validated: 513
EndChar

StartChar: one
Encoding: 20 49 22
Width: 349
GlyphClass: 2
Flags: W
LayerCount: 2
Fore
SplineSet
115 883 m 1,0,-1
 115 971 l 1,1,-1
 349.900390625 971 l 1,2,-1
 349.900390625 0 l 1,3,-1
 263.5 0 l 1,4,-1
 263.5 883 l 1,5,-1
 115 883 l 1,0,-1
EndSplineSet
Validated: 513
EndChar

StartChar: two
Encoding: 21 50 23
Width: 674
GlyphClass: 2
Flags: W
LayerCount: 2
Fore
SplineSet
115 0 m 1,0,-1
 115 88 l 1,1,-1
 421 416 l 2,2,3
 456.099609375 454 456.099609375 454 486.700195312 487.5 c 128,-1,4
 517.299804688 521 517.299804688 521 539.349609375 554 c 128,-1,5
 561.399414062 587 561.399414062 587 574 622 c 128,-1,6
 586.599609375 657 586.599609375 657 586.599609375 697 c 0,7,8
 586.599609375 741 586.599609375 741 572.649414062 778 c 128,-1,9
 558.700195312 815 558.700195312 815 533.5 842 c 128,-1,10
 508.299804688 869 508.299804688 869 473.649414062 884.5 c 128,-1,11
 439 900 439 900 397.599609375 900 c 0,12,13
 354.399414062 900 354.399414062 900 319.75 884.5 c 128,-1,14
 285.099609375 869 285.099609375 869 260.349609375 838 c 128,-1,15
 235.599609375 807 235.599609375 807 222.099609375 762 c 128,-1,16
 208.599609375 717 208.599609375 717 208.599609375 657 c 1,17,-1
 122.200195312 657 l 1,18,19
 122.200195312 734 122.200195312 734 142 795.5 c 128,-1,20
 161.799804688 857 161.799804688 857 197.799804688 899.5 c 128,-1,21
 233.799804688 942 233.799804688 942 285.099609375 965 c 128,-1,22
 336.399414062 988 336.399414062 988 399.399414062 988 c 0,23,24
 458.799804688 988 458.799804688 988 509.649414062 966 c 128,-1,25
 560.5 944 560.5 944 596.950195312 904.5 c 128,-1,26
 633.399414062 865 633.399414062 865 654.099609375 810.5 c 128,-1,27
 674.799804688 756 674.799804688 756 674.799804688 692 c 0,28,29
 674.799804688 653 674.799804688 653 666.700195312 618.5 c 128,-1,30
 658.599609375 584 658.599609375 584 640.149414062 549 c 128,-1,31
 621.700195312 514 621.700195312 514 590.649414062 474.5 c 128,-1,32
 559.599609375 435 559.599609375 435 513.700195312 386 c 2,33,-1
 233.799804688 88 l 1,34,-1
 669.399414062 88 l 1,35,-1
 669.399414062 0 l 1,36,-1
 115 0 l 1,0,-1
EndSplineSet
Validated: 513
EndChar

StartChar: three
Encoding: 22 51 24
Width: 672
GlyphClass: 2
Flags: W
LayerCount: 2
Fore
SplineSet
115 303 m 1,0,-1
 201.399414062 303 l 1,1,2
 201.399414062 242 201.399414062 242 217.149414062 198.5 c 128,-1,3
 232.899414062 155 232.899414062 155 259.899414062 126.5 c 128,-1,4
 286.899414062 98 286.899414062 98 322 84.5 c 128,-1,5
 357.099609375 71 357.099609375 71 395.799804688 71 c 0,6,7
 435.399414062 71 435.399414062 71 470.049804688 87.5 c 128,-1,8
 504.700195312 104 504.700195312 104 530.349609375 133.5 c 128,-1,9
 556 163 556 163 570.399414062 202.5 c 128,-1,10
 584.799804688 242 584.799804688 242 584.799804688 289 c 0,11,12
 584.799804688 327 584.799804688 327 574 362 c 128,-1,13
 563.200195312 397 563.200195312 397 543.849609375 425.5 c 128,-1,14
 524.5 454 524.5 454 497.049804688 474 c 128,-1,15
 469.599609375 494 469.599609375 494 437.200195312 502 c 0,16,17
 428.200195312 504 428.200195312 504 419.200195312 505.5 c 128,-1,18
 410.200195312 507 410.200195312 507 398.950195312 507.5 c 128,-1,19
 387.700195312 508 387.700195312 508 372.399414062 508.5 c 128,-1,20
 357.099609375 509 357.099609375 509 335.5 510 c 1,21,-1
 335.5 596 l 1,22,-1
 355.299804688 595 l 2,23,24
 363.399414062 594 363.399414062 594 369.25 594 c 128,-1,25
 375.099609375 594 375.099609375 594 377.799804688 594 c 0,26,27
 446.200195312 594 446.200195312 594 486.25 635.5 c 128,-1,28
 526.299804688 677 526.299804688 677 526.299804688 746 c 256,29,30
 526.299804688 815 526.299804688 815 489.849609375 857.5 c 128,-1,31
 453.399414062 900 453.399414062 900 394 900 c 0,32,33
 330.099609375 900 330.099609375 900 295 855 c 128,-1,34
 259.899414062 810 259.899414062 810 259.899414062 729 c 1,35,-1
 173.5 729 l 1,36,37
 173.5 789 173.5 789 189.25 836.5 c 128,-1,38
 205 884 205 884 234.25 918 c 128,-1,39
 263.5 952 263.5 952 304 970 c 128,-1,40
 344.5 988 344.5 988 394 988 c 0,41,42
 442.599609375 988 442.599609375 988 483.099609375 970 c 128,-1,43
 523.599609375 952 523.599609375 952 552.849609375 919 c 128,-1,44
 582.099609375 886 582.099609375 886 598.299804688 841 c 128,-1,45
 614.5 796 614.5 796 614.5 742 c 0,46,47
 614.5 682 614.5 682 592.450195312 636.5 c 128,-1,48
 570.399414062 591 570.399414062 591 524.5 556 c 1,49,50
 672.099609375 472 672.099609375 472 672.099609375 294 c 0,51,52
 672.099609375 229 672.099609375 229 650.950195312 172.5 c 128,-1,53
 629.799804688 116 629.799804688 116 592.450195312 74 c 128,-1,54
 555.099609375 32 555.099609375 32 505.149414062 8 c 128,-1,55
 455.200195312 -16 455.200195312 -16 397.599609375 -16 c 0,56,57
 338.200195312 -16 338.200195312 -16 286.450195312 6 c 128,-1,58
 234.700195312 28 234.700195312 28 196.899414062 69 c 128,-1,59
 159.099609375 110 159.099609375 110 137.049804688 169.5 c 128,-1,60
 115 229 115 229 115 303 c 1,0,-1
EndSplineSet
Validated: 513
EndChar

StartChar: four
Encoding: 23 52 25
Width: 723
GlyphClass: 2
Flags: W
LayerCount: 2
Fore
SplineSet
115 177 m 1,0,-1
 115 265 l 1,1,-1
 540.69921875 971 l 1,2,-1
 643.299804688 971 l 1,3,-1
 643.299804688 265 l 1,4,-1
 723.399414062 265 l 1,5,-1
 723.399414062 177 l 1,6,-1
 643.299804688 177 l 1,7,-1
 643.299804688 0 l 1,8,-1
 556.899414062 0 l 1,9,-1
 556.899414062 177 l 1,10,-1
 115 177 l 1,0,-1
214.899414062 265 m 1,11,-1
 556.899414062 265 l 1,12,-1
 556.899414062 837 l 1,13,-1
 214.899414062 265 l 1,11,-1
EndSplineSet
Validated: 513
EndChar

StartChar: five
Encoding: 24 53 26
Width: 708
GlyphClass: 2
Flags: W
LayerCount: 2
Fore
SplineSet
115 305 m 1,0,-1
 200.5 305 l 1,1,2
 205.900390625 253 205.900390625 253 224.350585938 210 c 128,-1,3
 242.80078125 167 242.80078125 167 270.700195312 136 c 128,-1,4
 298.600585938 105 298.600585938 105 334.600585938 88 c 128,-1,5
 370.600585938 71 370.600585938 71 412 71 c 0,6,7
 456.100585938 71 456.100585938 71 493.900390625 90.5 c 128,-1,8
 531.700195312 110 531.700195312 110 560.05078125 144 c 128,-1,9
 588.400390625 178 588.400390625 178 604.600585938 224 c 128,-1,10
 620.80078125 270 620.80078125 270 620.80078125 323 c 256,11,12
 620.80078125 376 620.80078125 376 604.600585938 422 c 128,-1,13
 588.400390625 468 588.400390625 468 560.5 501.5 c 128,-1,14
 532.600585938 535 532.600585938 535 494.350585938 554 c 128,-1,15
 456.100585938 573 456.100585938 573 412 573 c 0,16,17
 310.30078125 573 310.30078125 573 231.100585938 464 c 1,18,-1
 163.600585938 492 l 1,19,-1
 241.900390625 971 l 1,20,-1
 635.200195312 971 l 1,21,-1
 635.200195312 883 l 1,22,-1
 311.200195312 883 l 1,23,-1
 268.900390625 615 l 1,24,25
 309.400390625 639 309.400390625 639 344.5 650 c 128,-1,26
 379.600585938 661 379.600585938 661 419.200195312 661 c 0,27,28
 480.400390625 661 480.400390625 661 533.05078125 635 c 128,-1,29
 585.700195312 609 585.700195312 609 624.850585938 563 c 128,-1,30
 664 517 664 517 686.05078125 455.5 c 128,-1,31
 708.100585938 394 708.100585938 394 708.100585938 323 c 256,32,33
 708.100585938 252 708.100585938 252 685.600585938 190 c 128,-1,34
 663.100585938 128 663.100585938 128 623.5 82 c 128,-1,35
 583.900390625 36 583.900390625 36 530.350585938 10 c 128,-1,36
 476.80078125 -16 476.80078125 -16 415.600585938 -16 c 0,37,38
 356.200195312 -16 356.200195312 -16 305.350585938 5.5 c 128,-1,39
 254.5 27 254.5 27 215.350585938 68.5 c 128,-1,40
 176.200195312 110 176.200195312 110 150.55078125 169.5 c 128,-1,41
 124.900390625 229 124.900390625 229 115 305 c 1,0,-1
EndSplineSet
Validated: 513
EndChar

StartChar: six
Encoding: 25 54 27
Width: 710
GlyphClass: 2
Flags: W
LayerCount: 2
Fore
SplineSet
115 320 m 0,0,1
 115 356 115 356 119.5 386.5 c 128,-1,2
 124 417 124 417 135.25 450 c 128,-1,3
 146.5 483 146.5 483 166.75 522 c 128,-1,4
 187 561 187 561 218.5 613 c 2,5,-1
 435.399414062 971 l 1,6,-1
 535.299804688 971 l 1,7,-1
 330.099609375 633 l 1,8,9
 358.899414062 648 358.899414062 648 381.849609375 654.5 c 128,-1,10
 404.799804688 661 404.799804688 661 432.700195312 661 c 0,11,12
 490.299804688 661 490.299804688 661 541.149414062 635 c 128,-1,13
 592 609 592 609 629.799804688 564 c 128,-1,14
 667.599609375 519 667.599609375 519 689.200195312 458 c 128,-1,15
 710.799804688 397 710.799804688 397 710.799804688 327 c 0,16,17
 710.799804688 253 710.799804688 253 688.75 190 c 128,-1,18
 666.700195312 127 666.700195312 127 627.549804688 81 c 128,-1,19
 588.399414062 35 588.399414062 35 534.399414062 9.5 c 128,-1,20
 480.399414062 -16 480.399414062 -16 416.5 -16 c 0,21,22
 351.700195312 -16 351.700195312 -16 296.349609375 9.5 c 128,-1,23
 241 35 241 35 200.950195312 80 c 128,-1,24
 160.899414062 125 160.899414062 125 137.950195312 186.5 c 128,-1,25
 115 248 115 248 115 320 c 0,0,1
202.299804688 326 m 0,26,27
 202.299804688 271 202.299804688 271 218.5 224 c 128,-1,28
 234.700195312 177 234.700195312 177 263.049804688 143 c 128,-1,29
 291.399414062 109 291.399414062 109 331 90 c 128,-1,30
 370.599609375 71 370.599609375 71 416.5 71 c 0,31,32
 460.599609375 71 460.599609375 71 498.849609375 90 c 128,-1,33
 537.099609375 109 537.099609375 109 564.549804688 142.5 c 128,-1,34
 592 176 592 176 607.75 222 c 128,-1,35
 623.5 268 623.5 268 623.5 323 c 0,36,37
 623.5 377 623.5 377 607.75 423 c 128,-1,38
 592 469 592 469 564.099609375 502.5 c 128,-1,39
 536.200195312 536 536.200195312 536 497.950195312 554.5 c 128,-1,40
 459.700195312 573 459.700195312 573 413.799804688 573 c 0,41,42
 368.799804688 573 368.799804688 573 330.099609375 554 c 128,-1,43
 291.399414062 535 291.399414062 535 263.049804688 501.5 c 128,-1,44
 234.700195312 468 234.700195312 468 218.5 423 c 128,-1,45
 202.299804688 378 202.299804688 378 202.299804688 326 c 0,26,27
EndSplineSet
Validated: 513
EndChar

StartChar: seven
Encoding: 26 55 28
Width: 619
GlyphClass: 2
Flags: W
LayerCount: 2
Fore
SplineSet
115 883 m 1,0,-1
 115 971 l 1,1,-1
 619 971 l 1,2,-1
 619 883 l 1,3,-1
 261.700195312 0 l 1,4,-1
 169 0 l 1,5,-1
 529 883 l 1,6,-1
 115 883 l 1,0,-1
EndSplineSet
Validated: 513
EndChar

StartChar: eight
Encoding: 27 56 29
Width: 670
GlyphClass: 2
Flags: W
LayerCount: 2
Fore
SplineSet
115 282 m 0,0,1
 115 370 115 370 152.799804688 437 c 128,-1,2
 190.599609375 504 190.599609375 504 262.599609375 542 c 1,3,4
 209.5 578 209.5 578 185.200195312 624.5 c 128,-1,5
 160.900390625 671 160.900390625 671 160.900390625 737 c 0,6,7
 160.900390625 791 160.900390625 791 178.900390625 836.5 c 128,-1,8
 196.900390625 882 196.900390625 882 227.950195312 916 c 128,-1,9
 259 950 259 950 301.75 969 c 128,-1,10
 344.5 988 344.5 988 394 988 c 256,11,12
 443.5 988 443.5 988 485.799804688 969.5 c 128,-1,13
 528.099609375 951 528.099609375 951 559.150390625 917.5 c 128,-1,14
 590.200195312 884 590.200195312 884 607.299804688 838 c 128,-1,15
 624.400390625 792 624.400390625 792 624.400390625 737 c 0,16,17
 624.400390625 665 624.400390625 665 599.200195312 617.5 c 128,-1,18
 574 570 574 570 520.900390625 542 c 1,19,20
 593.799804688 507 593.799804688 507 632.049804688 442 c 128,-1,21
 670.299804688 377 670.299804688 377 670.299804688 286 c 0,22,23
 670.299804688 220 670.299804688 220 650.049804688 164.5 c 128,-1,24
 629.799804688 109 629.799804688 109 593.349609375 69 c 128,-1,25
 556.900390625 29 556.900390625 29 506.5 6.5 c 128,-1,26
 456.099609375 -16 456.099609375 -16 396.700195312 -16 c 0,27,28
 336.400390625 -16 336.400390625 -16 284.650390625 6.5 c 128,-1,29
 232.900390625 29 232.900390625 29 195.099609375 69 c 128,-1,30
 157.299804688 109 157.299804688 109 136.150390625 163.5 c 128,-1,31
 115 218 115 218 115 282 c 0,0,1
202.299804688 284 m 0,32,33
 202.299804688 237 202.299804688 237 216.25 198 c 128,-1,34
 230.200195312 159 230.200195312 159 255.849609375 130.5 c 128,-1,35
 281.5 102 281.5 102 317.049804688 86.5 c 128,-1,36
 352.599609375 71 352.599609375 71 394.900390625 71 c 0,37,38
 436.299804688 71 436.299804688 71 470.950195312 87 c 128,-1,39
 505.599609375 103 505.599609375 103 530.349609375 131 c 128,-1,40
 555.099609375 159 555.099609375 159 569.049804688 198 c 128,-1,41
 583 237 583 237 583 284 c 0,42,43
 583 330 583 330 569.049804688 368 c 128,-1,44
 555.099609375 406 555.099609375 406 529.900390625 433.5 c 128,-1,45
 504.700195312 461 504.700195312 461 470.049804688 476.5 c 128,-1,46
 435.400390625 492 435.400390625 492 394 492 c 0,47,48
 351.700195312 492 351.700195312 492 316.599609375 476.5 c 128,-1,49
 281.5 461 281.5 461 255.849609375 433.5 c 128,-1,50
 230.200195312 406 230.200195312 406 216.25 368 c 128,-1,51
 202.299804688 330 202.299804688 330 202.299804688 284 c 0,32,33
249.099609375 745 m 0,52,53
 249.099609375 710 249.099609375 710 260.349609375 680 c 128,-1,54
 271.599609375 650 271.599609375 650 290.950195312 628.5 c 128,-1,55
 310.299804688 607 310.299804688 607 337.75 595 c 128,-1,56
 365.200195312 583 365.200195312 583 397.599609375 583 c 0,57,58
 427.299804688 583 427.299804688 583 452.950195312 595 c 128,-1,59
 478.599609375 607 478.599609375 607 497.049804688 628.5 c 128,-1,60
 515.5 650 515.5 650 526.299804688 679 c 128,-1,61
 537.099609375 708 537.099609375 708 537.099609375 742 c 256,62,63
 537.099609375 776 537.099609375 776 526.299804688 805 c 128,-1,64
 515.5 834 515.5 834 496.599609375 855 c 128,-1,65
 477.700195312 876 477.700195312 876 451.150390625 888 c 128,-1,66
 424.599609375 900 424.599609375 900 393.099609375 900 c 256,67,68
 361.599609375 900 361.599609375 900 335.049804688 888.5 c 128,-1,69
 308.5 877 308.5 877 289.599609375 856.5 c 128,-1,70
 270.700195312 836 270.700195312 836 259.900390625 807.5 c 128,-1,71
 249.099609375 779 249.099609375 779 249.099609375 745 c 0,52,53
EndSplineSet
Validated: 513
EndChar

StartChar: nine
Encoding: 28 57 30
Width: 710
GlyphClass: 2
Flags: W
LayerCount: 2
Fore
SplineSet
115 644 m 0,0,1
 115 718 115 718 137.049804688 781 c 128,-1,2
 159.099609375 844 159.099609375 844 198.25 890 c 128,-1,3
 237.399414062 936 237.399414062 936 291.399414062 962 c 128,-1,4
 345.399414062 988 345.399414062 988 409.299804688 988 c 0,5,6
 474.099609375 988 474.099609375 988 529.450195312 962.5 c 128,-1,7
 584.799804688 937 584.799804688 937 624.849609375 891.5 c 128,-1,8
 664.899414062 846 664.899414062 846 687.849609375 784 c 128,-1,9
 710.799804688 722 710.799804688 722 710.799804688 650 c 0,10,11
 710.799804688 614 710.799804688 614 706.299804688 583 c 128,-1,12
 701.799804688 552 701.799804688 552 689.649414062 519 c 128,-1,13
 677.5 486 677.5 486 657.25 447 c 128,-1,14
 637 408 637 408 606.399414062 357 c 2,15,-1
 390.399414062 0 l 1,16,-1
 289.599609375 0 l 1,17,-1
 495.700195312 338 l 1,18,19
 466 323 466 323 443.049804688 316.5 c 128,-1,20
 420.099609375 310 420.099609375 310 392.200195312 310 c 0,21,22
 333.700195312 310 333.700195312 310 283.299804688 336 c 128,-1,23
 232.899414062 362 232.899414062 362 195.549804688 407 c 128,-1,24
 158.200195312 452 158.200195312 452 136.599609375 513 c 128,-1,25
 115 574 115 574 115 644 c 0,0,1
202.299804688 647 m 0,26,27
 202.299804688 593 202.299804688 593 218.049804688 547.5 c 128,-1,28
 233.799804688 502 233.799804688 502 261.25 468.5 c 128,-1,29
 288.700195312 435 288.700195312 435 326.950195312 416.5 c 128,-1,30
 365.200195312 398 365.200195312 398 411.099609375 398 c 0,31,32
 456.099609375 398 456.099609375 398 494.799804688 417 c 128,-1,33
 533.5 436 533.5 436 562.299804688 469.5 c 128,-1,34
 591.099609375 503 591.099609375 503 607.299804688 548 c 128,-1,35
 623.5 593 623.5 593 623.5 645 c 0,36,37
 623.5 700 623.5 700 607.299804688 747 c 128,-1,38
 591.099609375 794 591.099609375 794 562.299804688 828 c 128,-1,39
 533.5 862 533.5 862 494.349609375 881 c 128,-1,40
 455.200195312 900 455.200195312 900 409.299804688 900 c 0,41,42
 364.299804688 900 364.299804688 900 326.5 881.5 c 128,-1,43
 288.700195312 863 288.700195312 863 260.799804688 829 c 128,-1,44
 232.899414062 795 232.899414062 795 217.599609375 748.5 c 128,-1,45
 202.299804688 702 202.299804688 702 202.299804688 647 c 0,26,27
EndSplineSet
Validated: 513
EndChar

StartChar: colon
Encoding: 29 58 31
Width: 285
GlyphClass: 2
Flags: W
LayerCount: 2
Fore
SplineSet
111 169 m 256,0,1
 111 188 111 188 117 207.5 c 128,-1,2
 123 227 123 227 134 243 c 128,-1,3
 145 259 145 259 161.5 269 c 128,-1,4
 178 279 178 279 199 279 c 256,5,6
 220 279 220 279 236.5 269 c 128,-1,7
 253 259 253 259 264 243 c 128,-1,8
 275 227 275 227 281 207.5 c 128,-1,9
 287 188 287 188 287 169 c 256,10,11
 287 150 287 150 281 130.5 c 128,-1,12
 275 111 275 111 264 95.5 c 128,-1,13
 253 80 253 80 236.5 70 c 128,-1,14
 220 60 220 60 199 60 c 256,15,16
 178 60 178 60 161.5 70 c 128,-1,17
 145 80 145 80 134 95.5 c 128,-1,18
 123 111 123 111 117 130.5 c 128,-1,19
 111 150 111 150 111 169 c 256,0,1
111 699 m 256,20,21
 111 718 111 718 117 737.5 c 128,-1,22
 123 757 123 757 134 773 c 128,-1,23
 145 789 145 789 161.5 799 c 128,-1,24
 178 809 178 809 199 809 c 256,25,26
 220 809 220 809 236.5 799 c 128,-1,27
 253 789 253 789 264 773 c 128,-1,28
 275 757 275 757 281 737.5 c 128,-1,29
 287 718 287 718 287 699 c 256,30,31
 287 680 287 680 281 660.5 c 128,-1,32
 275 641 275 641 264 625.5 c 128,-1,33
 253 610 253 610 236.5 600 c 128,-1,34
 220 590 220 590 199 590 c 256,35,36
 178 590 178 590 161.5 600 c 128,-1,37
 145 610 145 610 134 625.5 c 128,-1,38
 123 641 123 641 117 660.5 c 128,-1,39
 111 680 111 680 111 699 c 256,20,21
EndSplineSet
Validated: 1
EndChar

StartChar: semicolon
Encoding: 30 59 32
Width: 278
GlyphClass: 2
Flags: W
LayerCount: 2
Fore
SplineSet
277 67 m 0,0,1
 277 34 277 34 265 -2.5 c 128,-1,2
 253 -39 253 -39 235.5 -75.5 c 128,-1,3
 218 -112 218 -112 198.5 -146 c 128,-1,4
 179 -180 179 -180 164 -207 c 1,5,-1
 117 -195 l 1,6,7
 140 -142 140 -142 157.5 -96.5 c 128,-1,8
 175 -51 175 -51 188 4 c 1,9,10
 182 -3 182 -3 174.5 -8 c 128,-1,11
 167 -13 167 -13 157 -13 c 0,12,13
 143 -13 143 -13 132.5 -3.5 c 128,-1,14
 122 6 122 6 115 19.5 c 128,-1,15
 108 33 108 33 105 48 c 128,-1,16
 102 63 102 63 102 74 c 0,17,18
 102 93 102 93 106.5 112 c 128,-1,19
 111 131 111 131 121 146 c 128,-1,20
 131 161 131 161 146.5 170.5 c 128,-1,21
 162 180 162 180 184 180 c 0,22,23
 209 180 209 180 226.5 171 c 128,-1,24
 244 162 244 162 255.5 146 c 128,-1,25
 267 130 267 130 272 109.5 c 128,-1,26
 277 89 277 89 277 67 c 0,0,1
109 429 m 256,27,28
 109 446 109 446 114.5 464 c 128,-1,29
 120 482 120 482 130 496.5 c 128,-1,30
 140 511 140 511 155 520 c 128,-1,31
 170 529 170 529 189 529 c 256,32,33
 208 529 208 529 223 520 c 128,-1,34
 238 511 238 511 248 496.5 c 128,-1,35
 258 482 258 482 263.5 464 c 128,-1,36
 269 446 269 446 269 429 c 256,37,38
 269 412 269 412 263.5 394.5 c 128,-1,39
 258 377 258 377 248 362.5 c 128,-1,40
 238 348 238 348 223 339 c 128,-1,41
 208 330 208 330 189 330 c 256,42,43
 170 330 170 330 155 339 c 128,-1,44
 140 348 140 348 130 362.5 c 128,-1,45
 120 377 120 377 114.5 394.5 c 128,-1,46
 109 412 109 412 109 429 c 256,27,28
EndSplineSet
Validated: 1
EndChar

StartChar: less
Encoding: 31 60 33
Width: 925
GlyphClass: 2
Flags: W
LayerCount: 2
Fore
SplineSet
115 337 m 1,0,-1
 115 453 l 1,1,-1
 925.899414062 956 l 1,2,-1
 925.899414062 823 l 1,3,-1
 236.5 395 l 1,4,-1
 925.899414062 -32 l 1,5,-1
 925.899414062 -165 l 1,6,-1
 115 337 l 1,0,-1
EndSplineSet
Validated: 1
EndChar

StartChar: equal
Encoding: 32 61 34
Width: 911
GlyphClass: 2
Flags: W
LayerCount: 2
Fore
SplineSet
115 174 m 1,0,-1
 115 291 l 1,1,-1
 911.5 291 l 1,2,-1
 911.5 174 l 1,3,-1
 115 174 l 1,0,-1
115 499 m 1,4,-1
 115 616 l 1,5,-1
 911.5 616 l 1,6,-1
 911.5 499 l 1,7,-1
 115 499 l 1,4,-1
EndSplineSet
Validated: 1
EndChar

StartChar: greater
Encoding: 33 62 35
Width: 925
GlyphClass: 2
Flags: W
LayerCount: 2
Fore
SplineSet
115 -32 m 1,0,-1
 803.5 395 l 1,1,-1
 115 823 l 1,2,-1
 115 956 l 1,3,-1
 925.899414062 453 l 1,4,-1
 925.899414062 337 l 1,5,-1
 115 -165 l 1,6,-1
 115 -32 l 1,0,-1
EndSplineSet
Validated: 1
EndChar

StartChar: question
Encoding: 34 63 36
Width: 769
GlyphClass: 2
Flags: W
LayerCount: 2
Fore
SplineSet
115 803 m 1,0,1
 115 898 115 898 140.649414062 970 c 128,-1,2
 166.299804688 1042 166.299804688 1042 210.849609375 1090.5 c 128,-1,3
 255.399414062 1139 255.399414062 1139 316.149414062 1163.5 c 128,-1,4
 376.899414062 1188 376.899414062 1188 447.099609375 1188 c 256,5,6
 517.299804688 1188 517.299804688 1188 576.25 1162.5 c 128,-1,7
 635.200195312 1137 635.200195312 1137 677.950195312 1091 c 128,-1,8
 720.700195312 1045 720.700195312 1045 745 982.5 c 128,-1,9
 769.299804688 920 769.299804688 920 769.299804688 845 c 0,10,11
 769.299804688 807 769.299804688 807 762.549804688 773.5 c 128,-1,12
 755.799804688 740 755.799804688 740 740.5 708 c 128,-1,13
 725.200195312 676 725.200195312 676 700.450195312 644 c 128,-1,14
 675.700195312 612 675.700195312 612 640.599609375 577 c 0,15,16
 601 538 601 538 573.549804688 504.5 c 128,-1,17
 546.099609375 471 546.099609375 471 529 439.5 c 128,-1,18
 511.899414062 408 511.899414062 408 504.25 375.5 c 128,-1,19
 496.599609375 343 496.599609375 343 495.700195312 305 c 1,20,-1
 396.700195312 305 l 1,21,22
 396.700195312 354 396.700195312 354 404.799804688 394.5 c 128,-1,23
 412.899414062 435 412.899414062 435 430.450195312 472.5 c 128,-1,24
 448 510 448 510 475.899414062 547.5 c 128,-1,25
 503.799804688 585 503.799804688 585 544.299804688 627 c 0,26,27
 580.299804688 664 580.299804688 664 603.700195312 692.5 c 128,-1,28
 627.099609375 721 627.099609375 721 640.599609375 746 c 128,-1,29
 654.099609375 771 654.099609375 771 659.049804688 795.5 c 128,-1,30
 664 820 664 820 664 849 c 0,31,32
 664 900 664 900 647.799804688 942.5 c 128,-1,33
 631.599609375 985 631.599609375 985 602.799804688 1016 c 128,-1,34
 574 1047 574 1047 533.950195312 1064.5 c 128,-1,35
 493.899414062 1082 493.899414062 1082 447.099609375 1082 c 0,36,37
 395.799804688 1082 395.799804688 1082 353.049804688 1065.5 c 128,-1,38
 310.299804688 1049 310.299804688 1049 279.25 1014.5 c 128,-1,39
 248.200195312 980 248.200195312 980 231.099609375 927.5 c 128,-1,40
 214 875 214 875 214 803 c 1,41,-1
 115 803 l 1,0,1
393.099609375 0 m 1,42,-1
 393.099609375 199 l 1,43,-1
 498.399414062 199 l 1,44,-1
 498.399414062 0 l 1,45,-1
 393.099609375 0 l 1,42,-1
EndSplineSet
Validated: 1
EndChar

StartChar: at
Encoding: 35 64 37
Width: 1147
GlyphClass: 2
Flags: W
LayerCount: 2
Fore
SplineSet
115 580 m 256,0,1
 115 664 115 664 134.350585938 741.5 c 128,-1,2
 153.700195312 819 153.700195312 819 188.799804688 887 c 128,-1,3
 223.900390625 955 223.900390625 955 273.400390625 1010 c 128,-1,4
 322.900390625 1065 322.900390625 1065 383.650390625 1105 c 128,-1,5
 444.400390625 1145 444.400390625 1145 513.700195312 1166.5 c 128,-1,6
 583 1188 583 1188 658.600585938 1188 c 0,7,8
 758.5 1188 758.5 1188 847.600585938 1149.5 c 128,-1,9
 936.700195312 1111 936.700195312 1111 1003.29980469 1043 c 128,-1,10
 1069.90039062 975 1069.90039062 975 1108.60058594 883 c 128,-1,11
 1147.29980469 791 1147.29980469 791 1147.29980469 684 c 0,12,13
 1147.29980469 628 1147.29980469 628 1135.15039062 572 c 128,-1,14
 1123 516 1123 516 1100.95019531 464.5 c 128,-1,15
 1078.90039062 413 1078.90039062 413 1047.85058594 368.5 c 128,-1,16
 1016.79980469 324 1016.79980469 324 980.350585938 291 c 128,-1,17
 943.900390625 258 943.900390625 258 902.049804688 239 c 128,-1,18
 860.200195312 220 860.200195312 220 816.100585938 220 c 0,19,20
 765.700195312 220 765.700195312 220 736.900390625 240.5 c 128,-1,21
 708.100585938 261 708.100585938 261 691 310 c 1,22,23
 651.400390625 265 651.400390625 265 611.799804688 246.5 c 128,-1,24
 572.200195312 228 572.200195312 228 521.799804688 228 c 0,25,26
 478.600585938 228 478.600585938 228 442.600585938 245 c 128,-1,27
 406.600585938 262 406.600585938 262 380.5 293 c 128,-1,28
 354.400390625 324 354.400390625 324 340 367 c 128,-1,29
 325.600585938 410 325.600585938 410 325.600585938 461 c 0,30,31
 325.600585938 521 325.600585938 521 339.100585938 580 c 128,-1,32
 352.600585938 639 352.600585938 639 376.450195312 692 c 128,-1,33
 400.299804688 745 400.299804688 745 433.150390625 790 c 128,-1,34
 466 835 466 835 504.700195312 867.5 c 128,-1,35
 543.400390625 900 543.400390625 900 586.150390625 918.5 c 128,-1,36
 628.900390625 937 628.900390625 937 673 937 c 0,37,38
 728.799804688 937 728.799804688 937 769.299804688 914 c 128,-1,39
 809.799804688 891 809.799804688 891 835.900390625 828 c 1,40,-1
 860.200195312 907 l 1,41,-1
 947.5 907 l 1,42,-1
 815.200195312 468 l 2,43,44
 804.400390625 432 804.400390625 432 798.549804688 412 c 128,-1,45
 792.700195312 392 792.700195312 392 790 380 c 128,-1,46
 787.299804688 368 787.299804688 368 786.850585938 361.5 c 128,-1,47
 786.400390625 355 786.400390625 355 786.400390625 346 c 0,48,49
 786.400390625 327 786.400390625 327 799.900390625 314.5 c 128,-1,50
 813.400390625 302 813.400390625 302 835 302 c 0,51,52
 878.200195312 302 878.200195312 302 921.400390625 338 c 128,-1,53
 964.600585938 374 964.600585938 374 999.25 430 c 128,-1,54
 1033.90039062 486 1033.90039062 486 1055.04980469 554 c 128,-1,55
 1076.20019531 622 1076.20019531 622 1076.20019531 686 c 0,56,57
 1076.20019531 775 1076.20019531 775 1044.25 852 c 128,-1,58
 1012.29980469 929 1012.29980469 929 956.049804688 986 c 128,-1,59
 899.799804688 1043 899.799804688 1043 823.299804688 1075.5 c 128,-1,60
 746.799804688 1108 746.799804688 1108 656.799804688 1108 c 0,61,62
 560.5 1108 560.5 1108 475 1066.5 c 128,-1,63
 389.5 1025 389.5 1025 326.049804688 953.5 c 128,-1,64
 262.600585938 882 262.600585938 882 225.700195312 786 c 128,-1,65
 188.799804688 690 188.799804688 690 188.799804688 581 c 256,66,67
 188.799804688 472 188.799804688 472 225.25 377 c 128,-1,68
 261.700195312 282 261.700195312 282 325.150390625 211 c 128,-1,69
 388.600585938 140 388.600585938 140 474.549804688 99 c 128,-1,70
 560.5 58 560.5 58 658.600585938 58 c 256,71,72
 756.700195312 58 756.700195312 58 840.400390625 99 c 128,-1,73
 924.100585938 140 924.100585938 140 991.600585938 218 c 1,74,-1
 1048.29980469 166 l 1,75,76
 1015 123 1015 123 971.350585938 88.5 c 128,-1,77
 927.700195312 54 927.700195312 54 876.400390625 30 c 128,-1,78
 825.100585938 6 825.100585938 6 769.299804688 -7 c 128,-1,79
 713.5 -20 713.5 -20 655.900390625 -20 c 0,80,81
 580.299804688 -20 580.299804688 -20 511 1 c 128,-1,82
 441.700195312 22 441.700195312 22 381.850585938 61 c 128,-1,83
 322 100 322 100 272.5 154.5 c 128,-1,84
 223 209 223 209 188.350585938 275.5 c 128,-1,85
 153.700195312 342 153.700195312 342 134.350585938 419 c 128,-1,86
 115 496 115 496 115 580 c 256,0,1
428.200195312 465 m 0,87,88
 428.200195312 399 428.200195312 399 459.25 359 c 128,-1,89
 490.299804688 319 490.299804688 319 541.600585938 319 c 0,90,91
 590.200195312 319 590.200195312 319 628.900390625 352.5 c 128,-1,92
 667.600585938 386 667.600585938 386 705.400390625 460 c 0,93,94
 720.700195312 491 720.700195312 491 734.650390625 527.5 c 128,-1,95
 748.600585938 564 748.600585938 564 758.950195312 600.5 c 128,-1,96
 769.299804688 637 769.299804688 637 775.600585938 669.5 c 128,-1,97
 781.900390625 702 781.900390625 702 781.900390625 725 c 0,98,99
 781.900390625 784 781.900390625 784 753.549804688 818 c 128,-1,100
 725.200195312 852 725.200195312 852 676.600585938 852 c 0,101,102
 629.799804688 852 629.799804688 852 585.25 819 c 128,-1,103
 540.700195312 786 540.700195312 786 505.600585938 731.5 c 128,-1,104
 470.5 677 470.5 677 449.350585938 607.5 c 128,-1,105
 428.200195312 538 428.200195312 538 428.200195312 465 c 0,87,88
EndSplineSet
Validated: 1
EndChar

StartChar: A
Encoding: 36 65 38
Width: 1177
GlyphClass: 2
Flags: W
LayerCount: 2
Fore
SplineSet
115 0 m 1,0,-1
 583.899414062 1214 l 1,1,-1
 706.299804688 1214 l 1,2,-1
 1177 0 l 1,3,-1
 1057.29980469 0 l 1,4,-1
 898.899414062 409 l 1,5,-1
 390.399414062 409 l 1,6,-1
 230.200195312 0 l 1,7,-1
 115 0 l 1,0,-1
431.799804688 519 m 1,8,-1
 855.700195312 519 l 1,9,-1
 646 1076 l 1,10,-1
 431.799804688 519 l 1,8,-1
EndSplineSet
Validated: 1
EndChar

StartChar: B
Encoding: 37 66 39
Width: 807
GlyphClass: 2
Flags: W
LayerCount: 2
Fore
SplineSet
115 0 m 1,0,-1
 115 1214 l 1,1,-1
 370.599609375 1214 l 2,2,3
 470.5 1214 470.5 1214 541.599609375 1194 c 128,-1,4
 612.700195312 1174 612.700195312 1174 657.700195312 1134.5 c 128,-1,5
 702.700195312 1095 702.700195312 1095 723.849609375 1036 c 128,-1,6
 745 977 745 977 745 899 c 0,7,8
 745 808 745 808 716.200195312 747.5 c 128,-1,9
 687.400390625 687 687.400390625 687 623.5 647 c 1,10,11
 719.799804688 604 719.799804688 604 763.450195312 532 c 128,-1,12
 807.099609375 460 807.099609375 460 807.099609375 348 c 0,13,14
 807.099609375 258 807.099609375 258 784.150390625 192.5 c 128,-1,15
 761.200195312 127 761.200195312 127 710.349609375 84 c 128,-1,16
 659.5 41 659.5 41 579.400390625 20.5 c 128,-1,17
 499.299804688 0 499.299804688 0 385.900390625 0 c 2,18,-1
 115 0 l 1,0,-1
223.900390625 110 m 1,19,-1
 373.299804688 110 l 2,20,21
 457 110 457 110 518.200195312 121.5 c 128,-1,22
 579.400390625 133 579.400390625 133 619 160 c 128,-1,23
 658.599609375 187 658.599609375 187 677.5 231.5 c 128,-1,24
 696.400390625 276 696.400390625 276 696.400390625 342 c 0,25,26
 696.400390625 427 696.400390625 427 670.299804688 475 c 128,-1,27
 644.200195312 523 644.200195312 523 598.299804688 547 c 128,-1,28
 552.400390625 571 552.400390625 571 489.849609375 576.5 c 128,-1,29
 427.299804688 582 427.299804688 582 354.400390625 582 c 2,30,-1
 223.900390625 582 l 1,31,-1
 223.900390625 110 l 1,19,-1
223.900390625 692 m 1,32,-1
 357.099609375 692 l 2,33,34
 434.5 692 434.5 692 487.599609375 702.5 c 128,-1,35
 540.700195312 713 540.700195312 713 573.099609375 737 c 128,-1,36
 605.5 761 605.5 761 619.900390625 800.5 c 128,-1,37
 634.299804688 840 634.299804688 840 634.299804688 897 c 0,38,39
 634.299804688 952 634.299804688 952 621.700195312 991.5 c 128,-1,40
 609.099609375 1031 609.099609375 1031 577.599609375 1056 c 128,-1,41
 546.099609375 1081 546.099609375 1081 492.549804688 1092.5 c 128,-1,42
 439 1104 439 1104 356.200195312 1104 c 2,43,-1
 223.900390625 1104 l 1,44,-1
 223.900390625 692 l 1,32,-1
EndSplineSet
Validated: 1
EndChar

StartChar: C
Encoding: 38 67 40
Width: 1188
GlyphClass: 2
Flags: W
LayerCount: 2
Fore
SplineSet
115 603 m 0,0,1
 115 739 115 739 157.75 855 c 128,-1,2
 200.5 971 200.5 971 276.100585938 1055.5 c 128,-1,3
 351.700195312 1140 351.700195312 1140 455.650390625 1188 c 128,-1,4
 559.600585938 1236 559.600585938 1236 682 1236 c 0,5,6
 766.600585938 1236 766.600585938 1236 844 1212.5 c 128,-1,7
 921.400390625 1189 921.400390625 1189 986.650390625 1145.5 c 128,-1,8
 1051.90039062 1102 1051.90039062 1102 1102.29980469 1039.5 c 128,-1,9
 1152.70019531 977 1152.70019531 977 1184.20019531 899 c 1,10,-1
 1061.79980469 899 l 1,11,12
 992.5 1021 992.5 1021 897.100585938 1072.5 c 128,-1,13
 801.700195312 1124 801.700195312 1124 686.5 1124 c 0,14,15
 588.400390625 1124 588.400390625 1124 504.25 1084.5 c 128,-1,16
 420.100585938 1045 420.100585938 1045 358.450195312 976 c 128,-1,17
 296.799804688 907 296.799804688 907 261.700195312 812.5 c 128,-1,18
 226.600585938 718 226.600585938 718 226.600585938 608 c 0,19,20
 226.600585938 501 226.600585938 501 263.049804688 407 c 128,-1,21
 299.5 313 299.5 313 362.049804688 242.5 c 128,-1,22
 424.600585938 172 424.600585938 172 508.75 131 c 128,-1,23
 592.900390625 90 592.900390625 90 687.400390625 90 c 0,24,25
 747.700195312 90 747.700195312 90 798.100585938 103 c 128,-1,26
 848.5 116 848.5 116 893.950195312 144 c 128,-1,27
 939.400390625 172 939.400390625 172 982.150390625 215.5 c 128,-1,28
 1024.90039062 259 1024.90039062 259 1068.10058594 319 c 1,29,-1
 1188.70019531 319 l 1,30,31
 1106.79980469 149 1106.79980469 149 981.700195312 64.5 c 128,-1,32
 856.600585938 -20 856.600585938 -20 689.200195312 -20 c 0,33,34
 566.799804688 -20 566.799804688 -20 461.5 27.5 c 128,-1,35
 356.200195312 75 356.200195312 75 279.25 158.5 c 128,-1,36
 202.299804688 242 202.299804688 242 158.650390625 356 c 128,-1,37
 115 470 115 470 115 603 c 0,0,1
EndSplineSet
Validated: 1
EndChar

StartChar: D
Encoding: 39 68 41
Width: 1037
GlyphClass: 2
Flags: W
LayerCount: 2
Fore
SplineSet
115 0 m 1,0,-1
 115 1214 l 1,1,-1
 372.400390625 1214 l 2,2,3
 446.200195312 1214 446.200195312 1214 506.049804688 1209 c 128,-1,4
 565.900390625 1204 565.900390625 1204 615.849609375 1192.5 c 128,-1,5
 665.799804688 1181 665.799804688 1181 708.099609375 1163 c 128,-1,6
 750.400390625 1145 750.400390625 1145 789.099609375 1119 c 0,7,8
 912.400390625 1038 912.400390625 1038 974.950195312 907 c 128,-1,9
 1037.5 776 1037.5 776 1037.5 603 c 0,10,11
 1037.5 472 1037.5 472 999.25 361 c 128,-1,12
 961 250 961 250 883.599609375 170 c 128,-1,13
 806.200195312 90 806.200195312 90 687.849609375 45 c 128,-1,14
 569.5 0 569.5 0 409.299804688 0 c 2,15,-1
 115 0 l 1,0,-1
223.900390625 110 m 1,16,-1
 376.900390625 110 l 2,17,18
 449.799804688 110 449.799804688 110 507.849609375 116 c 128,-1,19
 565.900390625 122 565.900390625 122 613.150390625 135 c 128,-1,20
 660.400390625 148 660.400390625 148 699.099609375 169 c 128,-1,21
 737.799804688 190 737.799804688 190 770.200195312 219 c 0,22,23
 846.700195312 287 846.700195312 287 886.75 387.5 c 128,-1,24
 926.799804688 488 926.799804688 488 926.799804688 608 c 0,25,26
 926.799804688 676 926.799804688 676 913.299804688 738 c 128,-1,27
 899.799804688 800 899.799804688 800 874.599609375 853 c 128,-1,28
 849.400390625 906 849.400390625 906 812.5 949.5 c 128,-1,29
 775.599609375 993 775.599609375 993 728.799804688 1025 c 0,30,31
 697.299804688 1046 697.299804688 1046 661.75 1061 c 128,-1,32
 626.200195312 1076 626.200195312 1076 583.900390625 1085.5 c 128,-1,33
 541.599609375 1095 541.599609375 1095 490.299804688 1099.5 c 128,-1,34
 439 1104 439 1104 376.900390625 1104 c 2,35,-1
 223.900390625 1104 l 1,36,-1
 223.900390625 110 l 1,16,-1
EndSplineSet
Validated: 1
EndChar

StartChar: E
Encoding: 40 69 42
Width: 712
GlyphClass: 2
Flags: W
LayerCount: 2
Fore
SplineSet
115 0 m 1,0,-1
 115 1214 l 1,1,-1
 712.599609375 1214 l 1,2,-1
 712.599609375 1104 l 1,3,-1
 223.900390625 1104 l 1,4,-1
 223.900390625 669 l 1,5,-1
 696.400390625 669 l 1,6,-1
 696.400390625 559 l 1,7,-1
 223.900390625 559 l 1,8,-1
 223.900390625 110 l 1,9,-1
 712.599609375 110 l 1,10,-1
 712.599609375 0 l 1,11,-1
 115 0 l 1,0,-1
EndSplineSet
Validated: 1
EndChar

StartChar: F
Encoding: 41 70 43
Width: 669
GlyphClass: 2
Flags: W
LayerCount: 2
Fore
SplineSet
115 0 m 1,0,-1
 115 1214 l 1,1,-1
 669.400390625 1214 l 1,2,-1
 669.400390625 1104 l 1,3,-1
 223.900390625 1104 l 1,4,-1
 223.900390625 666 l 1,5,-1
 653.200195312 666 l 1,6,-1
 653.200195312 555 l 1,7,-1
 223.900390625 555 l 1,8,-1
 223.900390625 0 l 1,9,-1
 115 0 l 1,0,-1
EndSplineSet
Validated: 1
EndChar

StartChar: G
Encoding: 42 71 44
Width: 1279
GlyphClass: 2
Flags: W
LayerCount: 2
Fore
SplineSet
115 610 m 0,0,1
 115 698 115 698 135.25 778.5 c 128,-1,2
 155.5 859 155.5 859 192.850585938 928.5 c 128,-1,3
 230.200195312 998 230.200195312 998 282.850585938 1054.5 c 128,-1,4
 335.5 1111 335.5 1111 399.850585938 1151.5 c 128,-1,5
 464.200195312 1192 464.200195312 1192 538.900390625 1214 c 128,-1,6
 613.600585938 1236 613.600585938 1236 694.600585938 1236 c 0,7,8
 783.700195312 1236 783.700195312 1236 865.600585938 1211 c 128,-1,9
 947.5 1186 947.5 1186 1015.90039062 1141 c 128,-1,10
 1084.29980469 1096 1084.29980469 1096 1135.15039062 1032.5 c 128,-1,11
 1186 969 1186 969 1213 891 c 1,12,-1
 1089.70019531 891 l 1,13,14
 1060.90039062 946 1060.90039062 946 1020.85058594 989.5 c 128,-1,15
 980.799804688 1033 980.799804688 1033 931.75 1063 c 128,-1,16
 882.700195312 1093 882.700195312 1093 824.650390625 1108.5 c 128,-1,17
 766.600585938 1124 766.600585938 1124 703.600585938 1124 c 0,18,19
 602.799804688 1124 602.799804688 1124 515.5 1084.5 c 128,-1,20
 428.200195312 1045 428.200195312 1045 364.299804688 975 c 128,-1,21
 300.400390625 905 300.400390625 905 263.5 810.5 c 128,-1,22
 226.600585938 716 226.600585938 716 226.600585938 606 c 0,23,24
 226.600585938 498 226.600585938 498 263.950195312 403.5 c 128,-1,25
 301.299804688 309 301.299804688 309 366.100585938 239.5 c 128,-1,26
 430.900390625 170 430.900390625 170 518.200195312 130 c 128,-1,27
 605.5 90 605.5 90 705.400390625 90 c 0,28,29
 786.400390625 90 786.400390625 90 860.200195312 119 c 128,-1,30
 934 148 934 148 992.5 197.5 c 128,-1,31
 1051 247 1051 247 1091.5 312.5 c 128,-1,32
 1132 378 1132 378 1147.29980469 450 c 1,33,-1
 537.100585938 450 l 1,34,-1
 537.100585938 560 l 1,35,-1
 1279.60058594 560 l 1,36,37
 1273.29980469 446 1273.29980469 446 1228.75 341 c 128,-1,38
 1184.20019531 236 1184.20019531 236 1109.04980469 155.5 c 128,-1,39
 1033.90039062 75 1033.90039062 75 932.200195312 27.5 c 128,-1,40
 830.5 -20 830.5 -20 709.900390625 -20 c 0,41,42
 584.799804688 -20 584.799804688 -20 476.350585938 28.5 c 128,-1,43
 367.900390625 77 367.900390625 77 287.350585938 162 c 128,-1,44
 206.799804688 247 206.799804688 247 160.900390625 362 c 128,-1,45
 115 477 115 477 115 610 c 0,0,1
EndSplineSet
Validated: 1
EndChar

StartChar: H
Encoding: 43 72 45
Width: 899
GlyphClass: 2
Flags: W
LayerCount: 2
Fore
SplineSet
115 0 m 1,0,-1
 115 1214 l 1,1,-1
 223.900390625 1214 l 1,2,-1
 223.900390625 680 l 1,3,-1
 790.900390625 680 l 1,4,-1
 790.900390625 1214 l 1,5,-1
 899.799804688 1214 l 1,6,-1
 899.799804688 0 l 1,7,-1
 790.900390625 0 l 1,8,-1
 790.900390625 570 l 1,9,-1
 223.900390625 570 l 1,10,-1
 223.900390625 0 l 1,11,-1
 115 0 l 1,0,-1
EndSplineSet
Validated: 1
EndChar

StartChar: I
Encoding: 44 73 46
Width: 223
GlyphClass: 2
Flags: W
LayerCount: 2
Fore
SplineSet
115 0 m 1,0,-1
 115 1214 l 1,1,-1
 223.900390625 1214 l 1,2,-1
 223.900390625 0 l 1,3,-1
 115 0 l 1,0,-1
EndSplineSet
Validated: 1
EndChar

StartChar: J
Encoding: 45 74 47
Width: 699
GlyphClass: 2
Flags: W
LayerCount: 2
Fore
SplineSet
115 288 m 1,0,-1
 223 288 l 1,1,2
 228.399414062 194 228.399414062 194 277.899414062 141.5 c 128,-1,3
 327.399414062 89 327.399414062 89 409.299804688 89 c 0,4,5
 499.299804688 89 499.299804688 89 544.75 161.5 c 128,-1,6
 590.200195312 234 590.200195312 234 590.200195312 380 c 2,7,-1
 590.200195312 1214 l 1,8,-1
 699.099609375 1214 l 1,9,-1
 699.099609375 380 l 2,10,11
 699.099609375 177 699.099609375 177 623.5 77.5 c 128,-1,12
 547.899414062 -22 547.899414062 -22 407.5 -22 c 0,13,14
 342.700195312 -22 342.700195312 -22 290.049804688 -1 c 128,-1,15
 237.399414062 20 237.399414062 20 199.599609375 60 c 128,-1,16
 161.799804688 100 161.799804688 100 140.200195312 157.5 c 128,-1,17
 118.599609375 215 118.599609375 215 115 288 c 1,0,-1
EndSplineSet
Validated: 1
EndChar

StartChar: K
Encoding: 46 75 48
Width: 867
GlyphClass: 2
Flags: W
LayerCount: 2
Fore
SplineSet
115 0 m 1,0,-1
 115 1214 l 1,1,-1
 223.900390625 1214 l 1,2,-1
 223.900390625 516 l 1,3,-1
 730.599609375 1214 l 1,4,-1
 867.400390625 1214 l 1,5,-1
 435.400390625 623 l 1,6,-1
 867.400390625 0 l 1,7,-1
 730.599609375 0 l 1,8,-1
 366.099609375 526 l 1,9,-1
 223.900390625 332 l 1,10,-1
 223.900390625 0 l 1,11,-1
 115 0 l 1,0,-1
EndSplineSet
Validated: 1
EndChar

StartChar: L
Encoding: 47 76 49
Width: 676
GlyphClass: 2
Flags: W
LayerCount: 2
Fore
SplineSet
115 0 m 1,0,-1
 115 1214 l 1,1,-1
 223.900390625 1214 l 1,2,-1
 223.900390625 110 l 1,3,-1
 676.599609375 110 l 1,4,-1
 676.599609375 0 l 1,5,-1
 115 0 l 1,0,-1
EndSplineSet
Validated: 1
EndChar

StartChar: M
Encoding: 48 77 50
Width: 1249
GlyphClass: 2
Flags: W
LayerCount: 2
Fore
SplineSet
115 0 m 1,0,-1
 115 1214 l 1,1,-1
 285.099609375 1214 l 1,2,-1
 682.900390625 181 l 1,3,-1
 1078.90039062 1214 l 1,4,-1
 1249 1214 l 1,5,-1
 1249 0 l 1,6,-1
 1140.09960938 0 l 1,7,-1
 1140.09960938 1081 l 1,8,-1
 728.799804688 0 l 1,9,-1
 634.299804688 0 l 1,10,-1
 223.900390625 1081 l 1,11,-1
 223.900390625 0 l 1,12,-1
 115 0 l 1,0,-1
EndSplineSet
Validated: 1
EndChar

StartChar: N
Encoding: 49 78 51
Width: 984
GlyphClass: 2
Flags: W
LayerCount: 2
Fore
SplineSet
115 0 m 1,0,-1
 115 1214 l 1,1,-1
 262.599609375 1214 l 1,2,-1
 875.5 207 l 1,3,-1
 875.5 1214 l 1,4,-1
 984.400390625 1214 l 1,5,-1
 984.400390625 0 l 1,6,-1
 875.5 0 l 1,7,-1
 223.900390625 1068 l 1,8,-1
 223.900390625 0 l 1,9,-1
 115 0 l 1,0,-1
EndSplineSet
Validated: 1
EndChar

StartChar: O
Encoding: 50 79 52
Width: 1270
GlyphClass: 2
Flags: W
LayerCount: 2
Fore
SplineSet
115 615 m 0,0,1
 115 699 115 699 136.150390625 777.5 c 128,-1,2
 157.299804688 856 157.299804688 856 195.549804688 925 c 128,-1,3
 233.799804688 994 233.799804688 994 286.900390625 1051.5 c 128,-1,4
 340 1109 340 1109 404.350585938 1150 c 128,-1,5
 468.700195312 1191 468.700195312 1191 542.049804688 1213.5 c 128,-1,6
 615.400390625 1236 615.400390625 1236 693.700195312 1236 c 0,7,8
 812.5 1236 812.5 1236 917.350585938 1186.5 c 128,-1,9
 1022.20019531 1137 1022.20019531 1137 1100.95019531 1051.5 c 128,-1,10
 1179.70019531 966 1179.70019531 966 1225.15039062 851 c 128,-1,11
 1270.60058594 736 1270.60058594 736 1270.60058594 606 c 0,12,13
 1270.60058594 477 1270.60058594 477 1225.15039062 363.5 c 128,-1,14
 1179.70019531 250 1179.70019531 250 1100.95019531 164.5 c 128,-1,15
 1022.20019531 79 1022.20019531 79 917.350585938 29.5 c 128,-1,16
 812.5 -20 812.5 -20 693.700195312 -20 c 0,17,18
 573.100585938 -20 573.100585938 -20 467.799804688 29.5 c 128,-1,19
 362.5 79 362.5 79 284.200195312 165 c 128,-1,20
 205.900390625 251 205.900390625 251 160.450195312 366.5 c 128,-1,21
 115 482 115 482 115 615 c 0,0,1
226.600585938 611 m 0,22,23
 226.600585938 503 226.600585938 503 263.5 408.5 c 128,-1,24
 300.400390625 314 300.400390625 314 363.850585938 243 c 128,-1,25
 427.299804688 172 427.299804688 172 512.350585938 131 c 128,-1,26
 597.400390625 90 597.400390625 90 693.700195312 90 c 0,27,28
 789.100585938 90 789.100585938 90 873.700195312 131 c 128,-1,29
 958.299804688 172 958.299804688 172 1021.75 242 c 128,-1,30
 1085.20019531 312 1085.20019531 312 1122.10058594 406 c 128,-1,31
 1159 500 1159 500 1159 605 c 0,32,33
 1159 676 1159 676 1142.35058594 742 c 128,-1,34
 1125.70019531 808 1125.70019531 808 1095.10058594 865.5 c 128,-1,35
 1064.5 923 1064.5 923 1021.75 971 c 128,-1,36
 979 1019 979 1019 927.25 1053 c 128,-1,37
 875.5 1087 875.5 1087 816.100585938 1105.5 c 128,-1,38
 756.700195312 1124 756.700195312 1124 693.700195312 1124 c 0,39,40
 599.200195312 1124 599.200195312 1124 514.150390625 1083 c 128,-1,41
 429.100585938 1042 429.100585938 1042 365.200195312 972 c 128,-1,42
 301.299804688 902 301.299804688 902 263.950195312 808.5 c 128,-1,43
 226.600585938 715 226.600585938 715 226.600585938 611 c 0,22,23
EndSplineSet
Validated: 1
EndChar

StartChar: P
Encoding: 51 80 53
Width: 837
GlyphClass: 2
Flags: W
LayerCount: 2
Fore
SplineSet
115 0 m 1,0,-1
 115 1214 l 1,1,-1
 416.5 1214 l 2,2,3
 529 1214 529 1214 609.099609375 1192.5 c 128,-1,4
 689.200195312 1171 689.200195312 1171 740.049804688 1126 c 128,-1,5
 790.900390625 1081 790.900390625 1081 814.299804688 1011.5 c 128,-1,6
 837.700195312 942 837.700195312 942 837.700195312 846 c 0,7,8
 837.700195312 760 837.700195312 760 816.549804688 693.5 c 128,-1,9
 795.400390625 627 795.400390625 627 747.700195312 582 c 128,-1,10
 700 537 700 537 623.049804688 514 c 128,-1,11
 546.099609375 491 546.099609375 491 434.5 491 c 2,12,-1
 223.900390625 491 l 1,13,-1
 223.900390625 0 l 1,14,-1
 115 0 l 1,0,-1
223.900390625 601 m 1,15,-1
 427.299804688 601 l 2,16,17
 508.299804688 601 508.299804688 601 565.450195312 614.5 c 128,-1,18
 622.599609375 628 622.599609375 628 658.599609375 657.5 c 128,-1,19
 694.599609375 687 694.599609375 687 710.799804688 733.5 c 128,-1,20
 727 780 727 780 727 846 c 0,21,22
 727 939 727 939 702.25 990.5 c 128,-1,23
 677.5 1042 677.5 1042 631.599609375 1067.5 c 128,-1,24
 585.700195312 1093 585.700195312 1093 521.799804688 1098.5 c 128,-1,25
 457.900390625 1104 457.900390625 1104 379.599609375 1104 c 2,26,-1
 223.900390625 1104 l 1,27,-1
 223.900390625 601 l 1,15,-1
EndSplineSet
Validated: 1
EndChar

StartChar: Q
Encoding: 52 81 54
Width: 1291
GlyphClass: 2
Flags: W
LayerCount: 2
Fore
SplineSet
115 606 m 0,0,1
 115 741 115 741 160 856.5 c 128,-1,2
 205 972 205 972 284.650390625 1056 c 128,-1,3
 364.299804688 1140 364.299804688 1140 472.299804688 1188 c 128,-1,4
 580.299804688 1236 580.299804688 1236 707.200195312 1236 c 0,5,6
 832.299804688 1236 832.299804688 1236 939.400390625 1189 c 128,-1,7
 1046.5 1142 1046.5 1142 1124.79980469 1058 c 128,-1,8
 1203.10058594 974 1203.10058594 974 1247.20019531 859.5 c 128,-1,9
 1291.29980469 745 1291.29980469 745 1291.29980469 610 c 0,10,11
 1291.29980469 470 1291.29980469 470 1244.95019531 354 c 128,-1,12
 1198.60058594 238 1198.60058594 238 1109.5 153 c 1,13,14
 1150.90039062 119 1150.90039062 119 1181.04980469 104.5 c 128,-1,15
 1211.20019531 90 1211.20019531 90 1245.40039062 90 c 0,16,17
 1249 90 1249 90 1257.54980469 90 c 128,-1,18
 1266.10058594 90 1266.10058594 90 1273.29980469 92 c 1,19,-1
 1273.29980469 -20 l 1,20,21
 1235.5 -20 1235.5 -20 1204 -14.5 c 128,-1,22
 1172.5 -9 1172.5 -9 1144.15039062 3.5 c 128,-1,23
 1115.79980469 16 1115.79980469 16 1088.79980469 35.5 c 128,-1,24
 1061.79980469 55 1061.79980469 55 1033.90039062 84 c 1,25,26
 964.600585938 32 964.600585938 32 880 6 c 128,-1,27
 795.400390625 -20 795.400390625 -20 705.400390625 -20 c 0,28,29
 582.100585938 -20 582.100585938 -20 474.549804688 29 c 128,-1,30
 367 78 367 78 286.900390625 162.5 c 128,-1,31
 206.799804688 247 206.799804688 247 160.900390625 361 c 128,-1,32
 115 475 115 475 115 606 c 0,0,1
226.600585938 597 m 0,33,34
 226.600585938 563 226.600585938 563 229.75 533 c 128,-1,35
 232.900390625 503 232.900390625 503 242.799804688 458 c 1,36,37
 305.799804688 482 305.799804688 482 359.350585938 491.5 c 128,-1,38
 412.900390625 501 412.900390625 501 475.900390625 501 c 0,39,40
 557.799804688 501 557.799804688 501 629.350585938 484 c 128,-1,41
 700.900390625 467 700.900390625 467 767.049804688 433.5 c 128,-1,42
 833.200195312 400 833.200195312 400 898 350 c 128,-1,43
 962.799804688 300 962.799804688 300 1031.20019531 233 c 1,44,45
 1106.79980469 314 1106.79980469 314 1143.25 408 c 128,-1,46
 1179.70019531 502 1179.70019531 502 1179.70019531 610 c 0,47,48
 1179.70019531 719 1179.70019531 719 1143.25 813 c 128,-1,49
 1106.79980469 907 1106.79980469 907 1042.45019531 976 c 128,-1,50
 978.100585938 1045 978.100585938 1045 891.25 1084.5 c 128,-1,51
 804.400390625 1124 804.400390625 1124 703.600585938 1124 c 0,52,53
 601.900390625 1124 601.900390625 1124 515.049804688 1083.5 c 128,-1,54
 428.200195312 1043 428.200195312 1043 363.850585938 972.5 c 128,-1,55
 299.5 902 299.5 902 263.049804688 805.5 c 128,-1,56
 226.600585938 709 226.600585938 709 226.600585938 597 c 0,33,34
288.700195312 355 m 1,57,58
 314.799804688 301 314.799804688 301 358 252.5 c 128,-1,59
 401.200195312 204 401.200195312 204 455.650390625 168 c 128,-1,60
 510.100585938 132 510.100585938 132 574 111 c 128,-1,61
 637.900390625 90 637.900390625 90 705.400390625 90 c 0,62,63
 774.700195312 90 774.700195312 90 831.850585938 108 c 128,-1,64
 889 126 889 126 944.799804688 164 c 1,65,66
 885.400390625 224 885.400390625 224 828.25 266.5 c 128,-1,67
 771.100585938 309 771.100585938 309 712.600585938 336.5 c 128,-1,68
 654.100585938 364 654.100585938 364 592 376.5 c 128,-1,69
 529.900390625 389 529.900390625 389 459.700195312 389 c 0,70,71
 434.5 389 434.5 389 412.900390625 387.5 c 128,-1,72
 391.299804688 386 391.299804688 386 371.049804688 382 c 128,-1,73
 350.799804688 378 350.799804688 378 330.549804688 371.5 c 128,-1,74
 310.299804688 365 310.299804688 365 288.700195312 355 c 1,57,58
EndSplineSet
Validated: 1
EndChar

StartChar: R
Encoding: 53 82 55
Width: 855
GlyphClass: 2
Flags: W
LayerCount: 2
Fore
SplineSet
115 0 m 1,0,-1
 115 1214 l 1,1,-1
 385.900390625 1214 l 2,2,3
 514.599609375 1214 514.599609375 1214 604.150390625 1188.5 c 128,-1,4
 693.700195312 1163 693.700195312 1163 749.5 1113.5 c 128,-1,5
 805.299804688 1064 805.299804688 1064 830.5 991 c 128,-1,6
 855.700195312 918 855.700195312 918 855.700195312 823 c 0,7,8
 855.700195312 661 855.700195312 661 773.799804688 566.5 c 128,-1,9
 691.900390625 472 691.900390625 472 533.5 454 c 1,10,-1
 839.5 0 l 1,11,-1
 703.599609375 0 l 1,12,-1
 335.5 551 l 1,13,14
 449.799804688 551 449.799804688 551 528.549804688 563.5 c 128,-1,15
 607.299804688 576 607.299804688 576 655 607.5 c 128,-1,16
 702.700195312 639 702.700195312 639 723.849609375 692.5 c 128,-1,17
 745 746 745 746 745 828 c 0,18,19
 745 904 745 904 723.400390625 956.5 c 128,-1,20
 701.799804688 1009 701.799804688 1009 656.799804688 1042 c 128,-1,21
 611.799804688 1075 611.799804688 1075 542.5 1089.5 c 128,-1,22
 473.200195312 1104 473.200195312 1104 377.799804688 1104 c 2,23,-1
 223.900390625 1104 l 1,24,-1
 223.900390625 0 l 1,25,-1
 115 0 l 1,0,-1
EndSplineSet
Validated: 1
EndChar

StartChar: S
Encoding: 54 83 56
Width: 786
GlyphClass: 2
Flags: W
LayerCount: 2
Fore
SplineSet
115 340 m 1,0,-1
 232 340 l 1,1,2
 244.599609375 217 244.599609375 217 305.799804688 153.5 c 128,-1,3
 367 90 367 90 459.69921875 90 c 0,4,5
 506.5 90 506.5 90 546.099609375 108 c 128,-1,6
 585.69921875 126 585.69921875 126 614.5 158.5 c 128,-1,7
 643.299804688 191 643.299804688 191 659.5 235 c 128,-1,8
 675.69921875 279 675.69921875 279 675.69921875 332 c 0,9,10
 675.69921875 382 675.69921875 382 664 419 c 128,-1,11
 652.299804688 456 652.299804688 456 624.399414062 485.5 c 128,-1,12
 596.5 515 596.5 515 549.25 539 c 128,-1,13
 502 563 502 563 431.799804688 587 c 0,14,15
 384.099609375 603 384.099609375 603 352.149414062 615.5 c 128,-1,16
 320.19921875 628 320.19921875 628 298.149414062 639.5 c 128,-1,17
 276.099609375 651 276.099609375 651 259.899414062 663.5 c 128,-1,18
 243.69921875 676 243.69921875 676 227.5 693 c 0,19,20
 190.599609375 732 190.599609375 732 170.799804688 789 c 128,-1,21
 151 846 151 846 151 909 c 0,22,23
 151 980 151 980 173.5 1040 c 128,-1,24
 196 1100 196 1100 236.5 1143.5 c 128,-1,25
 277 1187 277 1187 332.349609375 1211.5 c 128,-1,26
 387.69921875 1236 387.69921875 1236 453.399414062 1236 c 0,27,28
 520.899414062 1236 520.899414062 1236 577.149414062 1212.5 c 128,-1,29
 633.399414062 1189 633.399414062 1189 673.899414062 1145.5 c 128,-1,30
 714.399414062 1102 714.399414062 1102 737.349609375 1041.5 c 128,-1,31
 760.299804688 981 760.299804688 981 760.299804688 907 c 1,32,-1
 646 907 l 1,33,34
 646 956 646 956 631.149414062 996.5 c 128,-1,35
 616.299804688 1037 616.299804688 1037 589.75 1065 c 128,-1,36
 563.19921875 1093 563.19921875 1093 527.649414062 1108.5 c 128,-1,37
 492.099609375 1124 492.099609375 1124 450.69921875 1124 c 0,38,39
 410.19921875 1124 410.19921875 1124 375.549804688 1108 c 128,-1,40
 340.899414062 1092 340.899414062 1092 315.69921875 1063.5 c 128,-1,41
 290.5 1035 290.5 1035 276.099609375 996.5 c 128,-1,42
 261.69921875 958 261.69921875 958 261.69921875 912 c 0,43,44
 261.69921875 870 261.69921875 870 275.649414062 832 c 128,-1,45
 289.599609375 794 289.599609375 794 313 771 c 0,46,47
 323.799804688 760 323.799804688 760 336.399414062 751.5 c 128,-1,48
 349 743 349 743 367 734.5 c 128,-1,49
 385 726 385 726 411.099609375 716.5 c 128,-1,50
 437.19921875 707 437.19921875 707 474.099609375 695 c 0,51,52
 516.399414062 681 516.399414062 681 547 669.5 c 128,-1,53
 577.599609375 658 577.599609375 658 601 646.5 c 128,-1,54
 624.399414062 635 624.399414062 635 642.399414062 623.5 c 128,-1,55
 660.399414062 612 660.399414062 612 677.5 598 c 0,56,57
 729.69921875 555 729.69921875 555 758.049804688 487 c 128,-1,58
 786.399414062 419 786.399414062 419 786.399414062 339 c 0,59,60
 786.399414062 261 786.399414062 261 761.649414062 195 c 128,-1,61
 736.899414062 129 736.899414062 129 692.799804688 81.5 c 128,-1,62
 648.69921875 34 648.69921875 34 588.399414062 7 c 128,-1,63
 528.099609375 -20 528.099609375 -20 457 -20 c 0,64,65
 383.19921875 -20 383.19921875 -20 322 5.5 c 128,-1,66
 260.799804688 31 260.799804688 31 216.25 78 c 128,-1,67
 171.69921875 125 171.69921875 125 145.149414062 191.5 c 128,-1,68
 118.599609375 258 118.599609375 258 115 340 c 1,0,-1
EndSplineSet
Validated: 1
EndChar

StartChar: T
Encoding: 55 84 57
Width: 724
GlyphClass: 2
Flags: W
LayerCount: 2
Fore
SplineSet
115 1104 m 1,0,-1
 115 1214 l 1,1,-1
 724.299804688 1214 l 1,2,-1
 724.299804688 1104 l 1,3,-1
 474.100585938 1104 l 1,4,-1
 474.100585938 0 l 1,5,-1
 364.299804688 0 l 1,6,-1
 364.299804688 1104 l 1,7,-1
 115 1104 l 1,0,-1
EndSplineSet
Validated: 1
EndChar

StartChar: U
Encoding: 56 85 58
Width: 858
GlyphClass: 2
Flags: W
LayerCount: 2
Fore
SplineSet
115 457 m 2,0,-1
 115 1214 l 1,1,-1
 223.900390625 1214 l 1,2,-1
 223.900390625 457 l 2,3,4
 223.900390625 270 223.900390625 270 290.950195312 180 c 128,-1,5
 358 90 358 90 487.599609375 90 c 0,6,7
 614.5 90 614.5 90 682 180 c 128,-1,8
 749.5 270 749.5 270 749.5 457 c 2,9,-1
 749.5 1214 l 1,10,-1
 858.400390625 1214 l 1,11,-1
 858.400390625 457 l 2,12,13
 858.400390625 333 858.400390625 333 831.400390625 243 c 128,-1,14
 804.400390625 153 804.400390625 153 755.349609375 94.5 c 128,-1,15
 706.299804688 36 706.299804688 36 637.900390625 8 c 128,-1,16
 569.5 -20 569.5 -20 485.799804688 -20 c 0,17,18
 403 -20 403 -20 335.049804688 8 c 128,-1,19
 267.099609375 36 267.099609375 36 218.049804688 94.5 c 128,-1,20
 169 153 169 153 142 243 c 128,-1,21
 115 333 115 333 115 457 c 2,0,-1
EndSplineSet
Validated: 1
EndChar

StartChar: V
Encoding: 57 86 59
Width: 1123
GlyphClass: 2
Flags: W
LayerCount: 2
Fore
SplineSet
115 1214 m 1,0,-1
 235.599609375 1214 l 1,1,-1
 619.899414062 151 l 1,2,-1
 1006 1214 l 1,3,-1
 1123.89941406 1214 l 1,4,-1
 671.19921875 0 l 1,5,-1
 565 0 l 1,6,-1
 115 1214 l 1,0,-1
EndSplineSet
Validated: 1
EndChar

StartChar: W
Encoding: 58 87 60
Width: 1505
GlyphClass: 2
Flags: W
LayerCount: 2
Fore
SplineSet
115 1214 m 1,0,-1
 227.5 1214 l 1,1,-1
 496.599609375 158 l 1,2,-1
 758.5 1214 l 1,3,-1
 862 1214 l 1,4,-1
 1123.89941406 158 l 1,5,-1
 1393 1214 l 1,6,-1
 1505.5 1214 l 1,7,-1
 1192.29980469 0 l 1,8,-1
 1051.89941406 0 l 1,9,-1
 808.899414062 996 l 1,10,-1
 569.5 0 l 1,11,-1
 427.299804688 0 l 1,12,-1
 115 1214 l 1,0,-1
EndSplineSet
Validated: 1
EndChar

StartChar: X
Encoding: 59 88 61
Width: 992
GlyphClass: 2
Flags: W
LayerCount: 2
Fore
SplineSet
115 0 m 1,0,-1
 486.700195312 621 l 1,1,-1
 135.700195312 1214 l 1,2,-1
 264.399414062 1214 l 1,3,-1
 554.200195312 728 l 1,4,-1
 843.099609375 1214 l 1,5,-1
 970 1214 l 1,6,-1
 619.899414062 621 l 1,7,-1
 992.5 0 l 1,8,-1
 863.799804688 0 l 1,9,-1
 554.200195312 519 l 1,10,-1
 243.700195312 0 l 1,11,-1
 115 0 l 1,0,-1
EndSplineSet
Validated: 1
EndChar

StartChar: Y
Encoding: 60 89 62
Width: 985
GlyphClass: 2
Flags: W
LayerCount: 2
Fore
SplineSet
115 1214 m 1,0,-1
 236.5 1214 l 1,1,-1
 547 534 l 1,2,-1
 864.700195312 1214 l 1,3,-1
 985.299804688 1214 l 1,4,-1
 603.700195312 406 l 1,5,-1
 603.700195312 0 l 1,6,-1
 493.899414062 0 l 1,7,-1
 493.899414062 406 l 1,8,-1
 115 1214 l 1,0,-1
EndSplineSet
Validated: 1
EndChar

StartChar: Z
Encoding: 61 90 63
Width: 790
GlyphClass: 2
Flags: W
LayerCount: 2
Fore
SplineSet
115 0 m 1,0,-1
 115 110 l 1,1,-1
 651.399414062 1104 l 1,2,-1
 131.200195312 1104 l 1,3,-1
 131.200195312 1214 l 1,4,-1
 774.700195312 1214 l 1,5,-1
 774.700195312 1104 l 1,6,-1
 239.200195312 110 l 1,7,-1
 790.899414062 110 l 1,8,-1
 790.899414062 0 l 1,9,-1
 115 0 l 1,0,-1
EndSplineSet
Validated: 1
EndChar

StartChar: bracketleft
Encoding: 62 91 64
Width: 434
GlyphClass: 2
Flags: W
LayerCount: 2
Fore
SplineSet
115 -351 m 1,0,-1
 115 1142 l 1,1,-1
 434.5 1142 l 1,2,-1
 434.5 1038 l 1,3,-1
 225.700195312 1038 l 1,4,-1
 225.700195312 -247 l 1,5,-1
 434.5 -247 l 1,6,-1
 434.5 -351 l 1,7,-1
 115 -351 l 1,0,-1
EndSplineSet
Validated: 1
EndChar

StartChar: backslash
Encoding: 63 92 65
Width: 617
GlyphClass: 2
Flags: W
LayerCount: 2
Fore
SplineSet
115 1027 m 1,0,-1
 226.599609375 1027 l 1,1,-1
 617.19921875 -236 l 1,2,-1
 506.5 -236 l 1,3,-1
 115 1027 l 1,0,-1
EndSplineSet
Validated: 1
EndChar

StartChar: bracketright
Encoding: 64 93 66
Width: 434
GlyphClass: 2
Flags: W
LayerCount: 2
Fore
SplineSet
115 -247 m 1,0,-1
 323.799804688 -247 l 1,1,-1
 323.799804688 1038 l 1,2,-1
 115 1038 l 1,3,-1
 115 1142 l 1,4,-1
 434.5 1142 l 1,5,-1
 434.5 -351 l 1,6,-1
 115 -351 l 1,7,-1
 115 -247 l 1,0,-1
EndSplineSet
Validated: 1
EndChar

StartChar: asciicircum
Encoding: 65 94 67
Width: 925
GlyphClass: 2
Flags: W
LayerCount: 2
Fore
SplineSet
115 284 m 1,0,-1
 460.599609375 1168 l 1,1,-1
 582.099609375 1168 l 1,2,-1
 925.899414062 284 l 1,3,-1
 810.700195312 284 l 1,4,-1
 521.799804688 1043 l 1,5,-1
 230.200195312 284 l 1,6,-1
 115 284 l 1,0,-1
EndSplineSet
Validated: 1
EndChar

StartChar: underscore
Encoding: 66 95 68
Width: 871
GlyphClass: 2
Flags: W
LayerCount: 2
Fore
SplineSet
115 -112 m 1,0,-1
 871 -112 l 1,1,-1
 871 -209 l 1,2,-1
 115 -209 l 1,3,-1
 115 -112 l 1,0,-1
EndSplineSet
Validated: 1
EndChar

StartChar: grave
Encoding: 67 96 69
Width: 458
GlyphClass: 2
Flags: W
LayerCount: 2
Fore
SplineSet
115 1189 m 1,0,-1
 167.200195312 1286 l 1,1,-1
 458.799804688 1092 l 1,2,-1
 407.5 998 l 1,3,-1
 115 1189 l 1,0,-1
EndSplineSet
Validated: 1
EndChar

StartChar: a
Encoding: 68 97 70
Width: 1036
GlyphClass: 2
Flags: W
LayerCount: 2
Fore
SplineSet
115 457 m 256,0,1
 115 560 115 560 150.149414062 648.5 c 128,-1,2
 185.299804688 737 185.299804688 737 246.575195312 801.5 c 128,-1,3
 307.849609375 866 307.849609375 866 391.924804688 903 c 128,-1,4
 476 940 476 940 573.849609375 940 c 0,5,6
 687.849609375 940 687.849609375 940 770.974609375 895.5 c 128,-1,7
 854.099609375 851 854.099609375 851 918.700195312 756 c 1,8,-1
 918.700195312 919 l 1,9,-1
 1036.5 919 l 1,10,-1
 1036.5 0 l 1,11,-1
 918.700195312 0 l 1,12,-1
 918.700195312 161 l 1,13,14
 884.5 112 884.5 112 848.399414062 77.5 c 128,-1,15
 812.299804688 43 812.299804688 43 771.450195312 21 c 128,-1,16
 730.599609375 -1 730.599609375 -1 684.049804688 -11 c 128,-1,17
 637.5 -21 637.5 -21 582.399414062 -21 c 0,18,19
 481.700195312 -21 481.700195312 -21 396.200195312 15 c 128,-1,20
 310.700195312 51 310.700195312 51 248 115 c 128,-1,21
 185.299804688 179 185.299804688 179 150.149414062 266.5 c 128,-1,22
 115 354 115 354 115 457 c 256,0,1
233.75 465 m 0,23,24
 233.75 386 233.75 386 260.349609375 318 c 128,-1,25
 286.950195312 250 286.950195312 250 333.974609375 199.5 c 128,-1,26
 381 149 381 149 445.125 120.5 c 128,-1,27
 509.25 92 509.25 92 583.349609375 92 c 0,28,29
 653.649414062 92 653.649414062 92 714.924804688 120.5 c 128,-1,30
 776.200195312 149 776.200195312 149 821.325195312 199.5 c 128,-1,31
 866.450195312 250 866.450195312 250 892.575195312 318 c 128,-1,32
 918.700195312 386 918.700195312 386 918.700195312 464 c 0,33,34
 918.700195312 540 918.700195312 540 892.099609375 606.5 c 128,-1,35
 865.5 673 865.5 673 819.424804688 721.5 c 128,-1,36
 773.349609375 770 773.349609375 770 711.125 798 c 128,-1,37
 648.899414062 826 648.899414062 826 577.649414062 826 c 256,38,39
 506.399414062 826 506.399414062 826 443.700195312 797.5 c 128,-1,40
 381 769 381 769 334.450195312 720.5 c 128,-1,41
 287.899414062 672 287.899414062 672 260.825195312 606 c 128,-1,42
 233.75 540 233.75 540 233.75 465 c 0,23,24
EndSplineSet
Validated: 1
EndChar

StartChar: b
Encoding: 69 98 71
Width: 1035
GlyphClass: 2
Flags: W
LayerCount: 2
Fore
SplineSet
115 0 m 1,0,-1
 115 1241 l 1,1,-1
 232.799804688 1241 l 1,2,-1
 232.799804688 761 l 1,3,4
 289.799804688 849 289.799804688 849 377.674804688 894.5 c 128,-1,5
 465.549804688 940 465.549804688 940 575.75 940 c 0,6,7
 672.649414062 940 672.649414062 940 756.724609375 903 c 128,-1,8
 840.799804688 866 840.799804688 866 902.549804688 801.5 c 128,-1,9
 964.299804688 737 964.299804688 737 999.924804688 649.5 c 128,-1,10
 1035.54980469 562 1035.54980469 562 1035.54980469 460 c 0,11,12
 1035.54980469 357 1035.54980469 357 1000.39941406 269 c 128,-1,13
 965.25 181 965.25 181 903.5 116.5 c 128,-1,14
 841.75 52 841.75 52 757.200195312 15.5 c 128,-1,15
 672.649414062 -21 672.649414062 -21 573.849609375 -21 c 0,16,17
 465.549804688 -21 465.549804688 -21 376.724609375 25.5 c 128,-1,18
 287.899414062 72 287.899414062 72 232.799804688 158 c 1,19,-1
 232.799804688 0 l 1,20,-1
 115 0 l 1,0,-1
225.200195312 464 m 0,21,22
 225.200195312 387 225.200195312 387 252.274414062 319.5 c 128,-1,23
 279.349609375 252 279.349609375 252 326.375 201.5 c 128,-1,24
 373.399414062 151 373.399414062 151 436.575195312 121.5 c 128,-1,25
 499.75 92 499.75 92 571 92 c 0,26,27
 645.099609375 92 645.099609375 92 707.799804688 120.5 c 128,-1,28
 770.5 149 770.5 149 817.049804688 198.5 c 128,-1,29
 863.599609375 248 863.599609375 248 889.724609375 316 c 128,-1,30
 915.849609375 384 915.849609375 384 915.849609375 464 c 0,31,32
 915.849609375 541 915.849609375 541 889.724609375 607.5 c 128,-1,33
 863.599609375 674 863.599609375 674 817.524414062 722.5 c 128,-1,34
 771.450195312 771 771.450195312 771 708.75 798.5 c 128,-1,35
 646.049804688 826 646.049804688 826 572.899414062 826 c 256,36,37
 499.75 826 499.75 826 436.575195312 798 c 128,-1,38
 373.399414062 770 373.399414062 770 326.375 721 c 128,-1,39
 279.349609375 672 279.349609375 672 252.274414062 606 c 128,-1,40
 225.200195312 540 225.200195312 540 225.200195312 464 c 0,21,22
EndSplineSet
Validated: 1
EndChar

StartChar: c
Encoding: 70 99 72
Width: 1017
GlyphClass: 2
Flags: W
LayerCount: 2
Fore
SplineSet
115 462 m 0,0,1
 115 562 115 562 151.099609375 649.5 c 128,-1,2
 187.200195312 737 187.200195312 737 250.375 801.5 c 128,-1,3
 313.549804688 866 313.549804688 866 398.575195312 903 c 128,-1,4
 483.599609375 940 483.599609375 940 582.399414062 940 c 0,5,6
 655.549804688 940 655.549804688 940 722.524414062 919 c 128,-1,7
 789.5 898 789.5 898 846.024414062 859 c 128,-1,8
 902.549804688 820 902.549804688 820 945.774414062 764.5 c 128,-1,9
 989 709 989 709 1015.59960938 640 c 1,10,-1
 883.549804688 640 l 1,11,12
 832.25 731 832.25 731 755.299804688 778.5 c 128,-1,13
 678.349609375 826 678.349609375 826 580.5 826 c 0,14,15
 507.349609375 826 507.349609375 826 444.174804688 797.5 c 128,-1,16
 381 769 381 769 333.974609375 719.5 c 128,-1,17
 286.950195312 670 286.950195312 670 260.349609375 603 c 128,-1,18
 233.75 536 233.75 536 233.75 458 c 0,19,20
 233.75 382 233.75 382 260.825195312 315 c 128,-1,21
 287.899414062 248 287.899414062 248 335.399414062 198.5 c 128,-1,22
 382.899414062 149 382.899414062 149 447.024414062 120.5 c 128,-1,23
 511.149414062 92 511.149414062 92 585.25 92 c 0,24,25
 630.849609375 92 630.849609375 92 670.75 102 c 128,-1,26
 710.649414062 112 710.649414062 112 746.274414062 133.5 c 128,-1,27
 781.899414062 155 781.899414062 155 815.625 188.5 c 128,-1,28
 849.349609375 222 849.349609375 222 883.549804688 270 c 1,29,-1
 1017.5 270 l 1,30,31
 977.599609375 191 977.599609375 191 931.524414062 136 c 128,-1,32
 885.450195312 81 885.450195312 81 831.774414062 46 c 128,-1,33
 778.099609375 11 778.099609375 11 717.774414062 -5 c 128,-1,34
 657.450195312 -21 657.450195312 -21 590 -21 c 0,35,36
 489.299804688 -21 489.299804688 -21 402.849609375 16 c 128,-1,37
 316.399414062 53 316.399414062 53 252.274414062 118 c 128,-1,38
 188.149414062 183 188.149414062 183 151.575195312 271 c 128,-1,39
 115 359 115 359 115 462 c 0,0,1
EndSplineSet
Validated: 1
EndChar

StartChar: d
Encoding: 71 100 73
Width: 1040
GlyphClass: 2
Flags: W
LayerCount: 2
Fore
SplineSet
115 458 m 0,0,1
 115 561 115 561 150.625 649 c 128,-1,2
 186.25 737 186.25 737 248.474609375 801.5 c 128,-1,3
 310.700195312 866 310.700195312 866 395.25 903 c 128,-1,4
 479.799804688 940 479.799804688 940 578.599609375 940 c 0,5,6
 682.149414062 940 682.149414062 940 769.549804688 897.5 c 128,-1,7
 856.950195312 855 856.950195312 855 921.549804688 773 c 1,8,-1
 921.549804688 1241 l 1,9,-1
 1040.29980469 1241 l 1,10,-1
 1040.29980469 0 l 1,11,-1
 921.549804688 0 l 1,12,-1
 921.549804688 166 l 1,13,14
 888.299804688 116 888.299804688 116 853.149414062 81 c 128,-1,15
 818 46 818 46 777.625 23 c 128,-1,16
 737.25 0 737.25 0 690.700195312 -10.5 c 128,-1,17
 644.149414062 -21 644.149414062 -21 590 -21 c 0,18,19
 488.349609375 -21 488.349609375 -21 401.899414062 15.5 c 128,-1,20
 315.450195312 52 315.450195312 52 251.325195312 116.5 c 128,-1,21
 187.200195312 181 187.200195312 181 151.099609375 268.5 c 128,-1,22
 115 356 115 356 115 458 c 0,0,1
233.75 464 m 0,23,24
 233.75 385 233.75 385 260.825195312 317 c 128,-1,25
 287.899414062 249 287.899414062 249 335.399414062 199 c 128,-1,26
 382.899414062 149 382.899414062 149 447.5 120.5 c 128,-1,27
 512.099609375 92 512.099609375 92 587.149414062 92 c 0,28,29
 656.5 92 656.5 92 718.25 121.5 c 128,-1,30
 780 151 780 151 826.549804688 201.5 c 128,-1,31
 873.099609375 252 873.099609375 252 899.700195312 319 c 128,-1,32
 926.299804688 386 926.299804688 386 926.299804688 462 c 0,33,34
 926.299804688 537 926.299804688 537 898.75 603.5 c 128,-1,35
 871.200195312 670 871.200195312 670 823.224609375 719.5 c 128,-1,36
 775.25 769 775.25 769 711.599609375 797.5 c 128,-1,37
 647.950195312 826 647.950195312 826 575.75 826 c 0,38,39
 504.5 826 504.5 826 442.274414062 797.5 c 128,-1,40
 380.049804688 769 380.049804688 769 333.5 720 c 128,-1,41
 286.950195312 671 286.950195312 671 260.349609375 605 c 128,-1,42
 233.75 539 233.75 539 233.75 464 c 0,23,24
EndSplineSet
Validated: 1
EndChar

StartChar: e
Encoding: 72 101 74
Width: 1022
GlyphClass: 2
Flags: W
LayerCount: 2
Fore
SplineSet
115 464 m 0,0,1
 115 564 115 564 150.149414062 651 c 128,-1,2
 185.299804688 738 185.299804688 738 246.099609375 802 c 128,-1,3
 306.899414062 866 306.899414062 866 389.549804688 903 c 128,-1,4
 472.200195312 940 472.200195312 940 567.200195312 940 c 0,5,6
 664.099609375 940 664.099609375 940 747.700195312 904.5 c 128,-1,7
 831.299804688 869 831.299804688 869 892.099609375 801.5 c 128,-1,8
 952.899414062 734 952.899414062 734 987.575195312 637 c 128,-1,9
 1022.25 540 1022.25 540 1022.25 418 c 1,10,-1
 232.799804688 418 l 1,11,12
 236.599609375 350 236.599609375 350 264.625 290.5 c 128,-1,13
 292.649414062 231 292.649414062 231 338.724609375 187 c 128,-1,14
 384.799804688 143 384.799804688 143 445.125 117.5 c 128,-1,15
 505.450195312 92 505.450195312 92 572.899414062 92 c 0,16,17
 622.299804688 92 622.299804688 92 669.325195312 107 c 128,-1,18
 716.349609375 122 716.349609375 122 756.25 149.5 c 128,-1,19
 796.149414062 177 796.149414062 177 827.024414062 216 c 128,-1,20
 857.899414062 255 857.899414062 255 876.899414062 302 c 1,21,-1
 1000.39941406 302 l 1,22,23
 979.5 237 979.5 237 938.174804688 178 c 128,-1,24
 896.849609375 119 896.849609375 119 841.274414062 75 c 128,-1,25
 785.700195312 31 785.700195312 31 717.774414062 5 c 128,-1,26
 649.849609375 -21 649.849609375 -21 575.75 -21 c 0,27,28
 478.849609375 -21 478.849609375 -21 394.774414062 16.5 c 128,-1,29
 310.700195312 54 310.700195312 54 248.474609375 119 c 128,-1,30
 186.25 184 186.25 184 150.625 273 c 128,-1,31
 115 362 115 362 115 464 c 0,0,1
235.649414062 531 m 1,32,-1
 904.450195312 531 l 1,33,34
 889.25 600 889.25 600 858.375 654.5 c 128,-1,35
 827.5 709 827.5 709 783.799804688 747 c 128,-1,36
 740.099609375 785 740.099609375 785 685 805.5 c 128,-1,37
 629.899414062 826 629.899414062 826 566.25 826 c 0,38,39
 503.549804688 826 503.549804688 826 448.924804688 804.5 c 128,-1,40
 394.299804688 783 394.299804688 783 350.599609375 744.5 c 128,-1,41
 306.899414062 706 306.899414062 706 277.450195312 651.5 c 128,-1,42
 248 597 248 597 235.649414062 531 c 1,32,-1
EndSplineSet
Validated: 1
EndChar

StartChar: f
Encoding: 73 102 75
Width: 585
GlyphClass: 2
Flags: W
LayerCount: 2
Fore
SplineSet
115 806 m 1,0,-1
 115 919 l 1,1,-1
 250.849609375 919 l 1,2,3
 245.149414062 1241 245.149414062 1241 585.25 1241 c 1,4,-1
 585.25 1129 l 1,5,6
 525.399414062 1129 525.399414062 1129 483.599609375 1117.5 c 128,-1,7
 441.799804688 1106 441.799804688 1106 416.149414062 1081 c 128,-1,8
 390.5 1056 390.5 1056 379.099609375 1016 c 128,-1,9
 367.69921875 976 367.69921875 976 368.649414062 919 c 1,10,-1
 585.25 919 l 1,11,-1
 585.25 806 l 1,12,-1
 368.649414062 806 l 1,13,-1
 368.649414062 0 l 1,14,-1
 250.849609375 0 l 1,15,-1
 250.849609375 806 l 1,16,-1
 115 806 l 1,0,-1
EndSplineSet
Validated: 33
EndChar

StartChar: g
Encoding: 74 103 76
Width: 1020
GlyphClass: 2
Flags: W
LayerCount: 2
Fore
SplineSet
115 455 m 0,0,1
 115 559 115 559 148.724609375 647.5 c 128,-1,2
 182.450195312 736 182.450195312 736 242.299804688 801 c 128,-1,3
 302.149414062 866 302.149414062 866 383.849609375 903 c 128,-1,4
 465.549804688 940 465.549804688 940 561.5 940 c 0,5,6
 671.700195312 940 671.700195312 940 754.349609375 895.5 c 128,-1,7
 837 851 837 851 902.549804688 756 c 1,8,-1
 902.549804688 919 l 1,9,-1
 1020.34960938 919 l 1,10,-1
 1020.34960938 165 l 2,11,12
 1020.34960938 98 1020.34960938 98 1016.07519531 45 c 128,-1,13
 1011.79980469 -8 1011.79980469 -8 1002.29980469 -51 c 128,-1,14
 992.799804688 -94 992.799804688 -94 977.125 -129 c 128,-1,15
 961.450195312 -164 961.450195312 -164 939.599609375 -195 c 0,16,17
 882.599609375 -274 882.599609375 -274 790.924804688 -317 c 128,-1,18
 699.25 -360 699.25 -360 585.25 -360 c 0,19,20
 419 -360 419 -360 306.899414062 -275 c 128,-1,21
 194.799804688 -190 194.799804688 -190 146.349609375 -28 c 1,22,-1
 261.299804688 -28 l 1,23,24
 294.549804688 -90 294.549804688 -90 328.274414062 -132 c 128,-1,25
 362 -174 362 -174 400 -199.5 c 128,-1,26
 438 -225 438 -225 482.649414062 -235.5 c 128,-1,27
 527.299804688 -246 527.299804688 -246 582.399414062 -246 c 0,28,29
 741.049804688 -246 741.049804688 -246 821.799804688 -152 c 128,-1,30
 902.549804688 -58 902.549804688 -58 902.549804688 124 c 2,31,-1
 902.549804688 186 l 1,32,33
 851.25 80 851.25 80 769.549804688 29.5 c 128,-1,34
 687.849609375 -21 687.849609375 -21 569.099609375 -21 c 0,35,36
 473.149414062 -21 473.149414062 -21 390.5 15.5 c 128,-1,37
 307.849609375 52 307.849609375 52 246.575195312 116 c 128,-1,38
 185.299804688 180 185.299804688 180 150.149414062 267 c 128,-1,39
 115 354 115 354 115 455 c 0,0,1
233.75 465 m 0,40,41
 233.75 385 233.75 385 259.399414062 317 c 128,-1,42
 285.049804688 249 285.049804688 249 329.700195312 199 c 128,-1,43
 374.349609375 149 374.349609375 149 436.099609375 120.5 c 128,-1,44
 497.849609375 92 497.849609375 92 569.099609375 92 c 256,45,46
 640.349609375 92 640.349609375 92 701.149414062 121 c 128,-1,47
 761.950195312 150 761.950195312 150 807.075195312 200.5 c 128,-1,48
 852.200195312 251 852.200195312 251 877.375 320 c 128,-1,49
 902.549804688 389 902.549804688 389 902.549804688 470 c 0,50,51
 902.549804688 545 902.549804688 545 876.899414062 610 c 128,-1,52
 851.25 675 851.25 675 806.125 723 c 128,-1,53
 761 771 761 771 699.724609375 798.5 c 128,-1,54
 638.450195312 826 638.450195312 826 567.200195312 826 c 0,55,56
 495 826 495 826 433.724609375 799 c 128,-1,57
 372.450195312 772 372.450195312 772 328.274414062 724 c 128,-1,58
 284.099609375 676 284.099609375 676 258.924804688 610 c 128,-1,59
 233.75 544 233.75 544 233.75 465 c 0,40,41
EndSplineSet
Validated: 1
EndChar

StartChar: h
Encoding: 75 104 77
Width: 887
GlyphClass: 2
Flags: W
LayerCount: 2
Fore
SplineSet
115 0 m 1,0,-1
 115 1241 l 1,1,-1
 232.799804688 1241 l 1,2,-1
 232.799804688 799 l 1,3,4
 277.450195312 868 277.450195312 868 348.700195312 904 c 128,-1,5
 419.950195312 940 419.950195312 940 510.200195312 940 c 0,6,7
 595.700195312 940 595.700195312 940 665.049804688 913.5 c 128,-1,8
 734.399414062 887 734.399414062 887 783.799804688 832 c 128,-1,9
 833.200195312 777 833.200195312 777 860.274414062 693 c 128,-1,10
 887.349609375 609 887.349609375 609 887.349609375 494 c 2,11,-1
 887.349609375 0 l 1,12,-1
 768.599609375 0 l 1,13,-1
 768.599609375 494 l 2,14,15
 768.599609375 579 768.599609375 579 749.125 642 c 128,-1,16
 729.649414062 705 729.649414062 705 694.024414062 745.5 c 128,-1,17
 658.399414062 786 658.399414062 786 609 806 c 128,-1,18
 559.599609375 826 559.599609375 826 499.75 826 c 0,19,20
 442.75 826 442.75 826 393.825195312 807.5 c 128,-1,21
 344.899414062 789 344.899414062 789 309.274414062 749.5 c 128,-1,22
 273.649414062 710 273.649414062 710 253.224609375 649 c 128,-1,23
 232.799804688 588 232.799804688 588 232.799804688 504 c 2,24,-1
 232.799804688 0 l 1,25,-1
 115 0 l 1,0,-1
EndSplineSet
Validated: 1
EndChar

StartChar: i
Encoding: 76 105 78
Width: 232
GlyphClass: 2
Flags: W
LayerCount: 2
Fore
SplineSet
115 0 m 1,0,-1
 115 919 l 1,1,-1
 232.799804688 919 l 1,2,-1
 232.799804688 0 l 1,3,-1
 115 0 l 1,0,-1
115 1019 m 1,4,-1
 115 1231 l 1,5,-1
 232.799804688 1231 l 1,6,-1
 232.799804688 1019 l 1,7,-1
 115 1019 l 1,4,-1
EndSplineSet
Validated: 1
EndChar

StartChar: j
Encoding: 77 106 79
Width: 409
GlyphClass: 2
Flags: W
LayerCount: 2
Fore
SplineSet
115 -202 m 1,0,1
 164.400390625 -199 164.400390625 -199 198.125 -184 c 128,-1,2
 231.849609375 -169 231.849609375 -169 252.75 -137.5 c 128,-1,3
 273.650390625 -106 273.650390625 -106 282.674804688 -57 c 128,-1,4
 291.700195312 -8 291.700195312 -8 291.700195312 64 c 2,5,-1
 291.700195312 919 l 1,6,-1
 409.5 919 l 1,7,-1
 409.5 64 l 2,8,9
 409.5 -35 409.5 -35 391.450195312 -106.5 c 128,-1,10
 373.400390625 -178 373.400390625 -178 336.349609375 -224.5 c 128,-1,11
 299.299804688 -271 299.299804688 -271 244.200195312 -294.5 c 128,-1,12
 189.099609375 -318 189.099609375 -318 115 -321 c 1,13,-1
 115 -202 l 1,0,1
291.700195312 1019 m 1,14,-1
 291.700195312 1231 l 1,15,-1
 409.5 1231 l 1,16,-1
 409.5 1019 l 1,17,-1
 291.700195312 1019 l 1,14,-1
EndSplineSet
Validated: 1
EndChar

StartChar: k
Encoding: 78 107 80
Width: 807
GlyphClass: 2
Flags: W
LayerCount: 2
Fore
SplineSet
115 0 m 1,0,-1
 115 1241 l 1,1,-1
 232.799804688 1241 l 1,2,-1
 232.799804688 361 l 1,3,-1
 639.399414062 919 l 1,4,-1
 784.75 919 l 1,5,-1
 444.649414062 457 l 1,6,-1
 807.549804688 0 l 1,7,-1
 660.299804688 0 l 1,8,-1
 370.549804688 368 l 1,9,-1
 232.799804688 190 l 1,10,-1
 232.799804688 0 l 1,11,-1
 115 0 l 1,0,-1
EndSplineSet
Validated: 1
EndChar

StartChar: l
Encoding: 79 108 81
Width: 232
GlyphClass: 2
Flags: W
LayerCount: 2
Fore
SplineSet
115 0 m 1,0,-1
 115 1241 l 1,1,-1
 232.799804688 1241 l 1,2,-1
 232.799804688 0 l 1,3,-1
 115 0 l 1,0,-1
EndSplineSet
Validated: 1
EndChar

StartChar: m
Encoding: 80 109 82
Width: 1409
GlyphClass: 2
Flags: W
LayerCount: 2
Fore
SplineSet
115 0 m 1,0,-1
 115 919 l 1,1,-1
 232.799804688 919 l 1,2,-1
 232.799804688 813 l 1,3,4
 258.450195312 847 258.450195312 847 284.575195312 871.5 c 128,-1,5
 310.700195312 896 310.700195312 896 340.149414062 911 c 128,-1,6
 369.599609375 926 369.599609375 926 403.325195312 933 c 128,-1,7
 437.049804688 940 437.049804688 940 478.849609375 940 c 0,8,9
 576.700195312 940 576.700195312 940 644.625 898.5 c 128,-1,10
 712.549804688 857 712.549804688 857 763.849609375 764 c 1,11,12
 819.899414062 857 819.899414062 857 892.575195312 899.5 c 128,-1,13
 965.25 942 965.25 942 1066.89941406 942 c 0,14,15
 1141.95019531 942 1141.95019531 942 1204.64941406 917.5 c 128,-1,16
 1267.34960938 893 1267.34960938 893 1312.95019531 844 c 128,-1,17
 1358.54980469 795 1358.54980469 795 1384.20019531 720.5 c 128,-1,18
 1409.84960938 646 1409.84960938 646 1409.84960938 546 c 2,19,-1
 1409.84960938 0 l 1,20,-1
 1292.04980469 0 l 1,21,-1
 1292.04980469 532 l 2,22,23
 1292.04980469 610 1292.04980469 610 1276.375 666 c 128,-1,24
 1260.70019531 722 1260.70019531 722 1230.77441406 758 c 128,-1,25
 1200.84960938 794 1200.84960938 794 1158.09960938 811 c 128,-1,26
 1115.34960938 828 1115.34960938 828 1061.20019531 828 c 0,27,28
 1008.95019531 828 1008.95019531 828 965.25 811 c 128,-1,29
 921.549804688 794 921.549804688 794 889.724609375 758 c 128,-1,30
 857.899414062 722 857.899414062 722 839.849609375 666 c 128,-1,31
 821.799804688 610 821.799804688 610 821.799804688 532 c 2,32,-1
 821.799804688 0 l 1,33,-1
 703.049804688 0 l 1,34,-1
 703.049804688 536 l 2,35,36
 703.049804688 613 703.049804688 613 685 668 c 128,-1,37
 666.950195312 723 666.950195312 723 635.599609375 758 c 128,-1,38
 604.25 793 604.25 793 561.024414062 809.5 c 128,-1,39
 517.799804688 826 517.799804688 826 467.450195312 826 c 0,40,41
 356.299804688 826 356.299804688 826 294.549804688 750 c 128,-1,42
 232.799804688 674 232.799804688 674 232.799804688 536 c 2,43,-1
 232.799804688 0 l 1,44,-1
 115 0 l 1,0,-1
EndSplineSet
Validated: 1
EndChar

StartChar: n
Encoding: 81 110 83
Width: 887
GlyphClass: 2
Flags: W
LayerCount: 2
Fore
SplineSet
115 0 m 1,0,-1
 115 919 l 1,1,-1
 232.799804688 919 l 1,2,-1
 232.799804688 799 l 1,3,4
 342.049804688 940 342.049804688 940 514 940 c 0,5,6
 595.700195312 940 595.700195312 940 664.575195312 913.5 c 128,-1,7
 733.450195312 887 733.450195312 887 782.849609375 831.5 c 128,-1,8
 832.25 776 832.25 776 859.799804688 689.5 c 128,-1,9
 887.349609375 603 887.349609375 603 887.349609375 482 c 2,10,-1
 887.349609375 0 l 1,11,-1
 768.599609375 0 l 1,12,-1
 768.599609375 482 l 2,13,14
 768.599609375 576 768.599609375 576 749.125 641.5 c 128,-1,15
 729.649414062 707 729.649414062 707 694.5 748 c 128,-1,16
 659.349609375 789 659.349609375 789 609.474609375 807.5 c 128,-1,17
 559.599609375 826 559.599609375 826 499.75 826 c 256,18,19
 439.899414062 826 439.899414062 826 390.974609375 807.5 c 128,-1,20
 342.049804688 789 342.049804688 789 306.899414062 750 c 128,-1,21
 271.75 711 271.75 711 252.274414062 650.5 c 128,-1,22
 232.799804688 590 232.799804688 590 232.799804688 505 c 2,23,-1
 232.799804688 0 l 1,24,-1
 115 0 l 1,0,-1
EndSplineSet
Validated: 1
EndChar

StartChar: o
Encoding: 82 111 84
Width: 1025
GlyphClass: 2
Flags: W
LayerCount: 2
Fore
SplineSet
115 465 m 0,0,1
 115 566 115 566 150.149414062 653 c 128,-1,2
 185.299804688 740 185.299804688 740 246.575195312 803.5 c 128,-1,3
 307.849609375 867 307.849609375 867 391.924804688 903.5 c 128,-1,4
 476 940 476 940 572.899414062 940 c 0,5,6
 670.75 940 670.75 940 753.875 904 c 128,-1,7
 837 868 837 868 897.325195312 803.5 c 128,-1,8
 957.649414062 739 957.649414062 739 991.375 650.5 c 128,-1,9
 1025.09960938 562 1025.09960938 562 1025.09960938 457 c 0,10,11
 1025.09960938 353 1025.09960938 353 991.849609375 265.5 c 128,-1,12
 958.599609375 178 958.599609375 178 899.224609375 114.5 c 128,-1,13
 839.849609375 51 839.849609375 51 758.625 15 c 128,-1,14
 677.399414062 -21 677.399414062 -21 582.399414062 -21 c 0,15,16
 480.75 -21 480.75 -21 394.774414062 15.5 c 128,-1,17
 308.799804688 52 308.799804688 52 246.575195312 116.5 c 128,-1,18
 184.349609375 181 184.349609375 181 149.674804688 270 c 128,-1,19
 115 359 115 359 115 465 c 0,0,1
233.75 462 m 0,20,21
 233.75 381 233.75 381 259.399414062 313.5 c 128,-1,22
 285.049804688 246 285.049804688 246 331.125 196.5 c 128,-1,23
 377.200195312 147 377.200195312 147 440.375 119.5 c 128,-1,24
 503.549804688 92 503.549804688 92 578.599609375 92 c 0,25,26
 649.849609375 92 649.849609375 92 710.174804688 119 c 128,-1,27
 770.5 146 770.5 146 813.724609375 194.5 c 128,-1,28
 856.950195312 243 856.950195312 243 881.649414062 309.5 c 128,-1,29
 906.349609375 376 906.349609375 376 906.349609375 455 c 0,30,31
 906.349609375 535 906.349609375 535 881.174804688 603 c 128,-1,32
 856 671 856 671 811.349609375 720.5 c 128,-1,33
 766.700195312 770 766.700195312 770 705.424804688 798 c 128,-1,34
 644.149414062 826 644.149414062 826 572.899414062 826 c 0,35,36
 499.75 826 499.75 826 438 798.5 c 128,-1,37
 376.25 771 376.25 771 330.649414062 722 c 128,-1,38
 285.049804688 673 285.049804688 673 259.399414062 606.5 c 128,-1,39
 233.75 540 233.75 540 233.75 462 c 0,20,21
EndSplineSet
Validated: 1
EndChar

StartChar: p
Encoding: 83 112 85
Width: 1035
GlyphClass: 2
Flags: W
LayerCount: 2
Fore
SplineSet
115 -321 m 1,0,-1
 115 919 l 1,1,-1
 232.799804688 919 l 1,2,-1
 232.799804688 761 l 1,3,4
 287.899414062 849 287.899414062 849 375.774414062 894.5 c 128,-1,5
 463.649414062 940 463.649414062 940 575.75 940 c 0,6,7
 673.599609375 940 673.599609375 940 757.674804688 903 c 128,-1,8
 841.75 866 841.75 866 903.5 801 c 128,-1,9
 965.25 736 965.25 736 1000.39941406 648 c 128,-1,10
 1035.54980469 560 1035.54980469 560 1035.54980469 457 c 0,11,12
 1035.54980469 356 1035.54980469 356 999.924804688 269 c 128,-1,13
 964.299804688 182 964.299804688 182 902.075195312 117.5 c 128,-1,14
 839.849609375 53 839.849609375 53 755.299804688 16 c 128,-1,15
 670.75 -21 670.75 -21 572.899414062 -21 c 0,16,17
 463.649414062 -21 463.649414062 -21 377.200195312 24 c 128,-1,18
 290.75 69 290.75 69 232.799804688 158 c 1,19,-1
 232.799804688 -321 l 1,20,-1
 115 -321 l 1,0,-1
225.200195312 464 m 0,21,22
 225.200195312 384 225.200195312 384 251.325195312 316 c 128,-1,23
 277.450195312 248 277.450195312 248 324 198.5 c 128,-1,24
 370.549804688 149 370.549804688 149 434.200195312 120.5 c 128,-1,25
 497.849609375 92 497.849609375 92 572.899414062 92 c 0,26,27
 646.049804688 92 646.049804688 92 708.75 120 c 128,-1,28
 771.450195312 148 771.450195312 148 817.524414062 197 c 128,-1,29
 863.599609375 246 863.599609375 246 889.724609375 312.5 c 128,-1,30
 915.849609375 379 915.849609375 379 915.849609375 457 c 0,31,32
 915.849609375 536 915.849609375 536 889.724609375 603.5 c 128,-1,33
 863.599609375 671 863.599609375 671 817.049804688 720.5 c 128,-1,34
 770.5 770 770.5 770 707.799804688 798 c 128,-1,35
 645.099609375 826 645.099609375 826 571 826 c 0,36,37
 498.799804688 826 498.799804688 826 435.625 798 c 128,-1,38
 372.450195312 770 372.450195312 770 325.899414062 721 c 128,-1,39
 279.349609375 672 279.349609375 672 252.274414062 606 c 128,-1,40
 225.200195312 540 225.200195312 540 225.200195312 464 c 0,21,22
EndSplineSet
Validated: 1
EndChar

StartChar: q
Encoding: 84 113 86
Width: 1035
GlyphClass: 2
Flags: W
LayerCount: 2
Fore
SplineSet
115 458 m 0,0,1
 115 560 115 560 150.149414062 648.5 c 128,-1,2
 185.299804688 737 185.299804688 737 247.049804688 801.5 c 128,-1,3
 308.799804688 866 308.799804688 866 392.399414062 903 c 128,-1,4
 476 940 476 940 573.849609375 940 c 0,5,6
 685.950195312 940 685.950195312 940 773.825195312 894.5 c 128,-1,7
 861.700195312 849 861.700195312 849 916.799804688 761 c 1,8,-1
 916.799804688 919 l 1,9,-1
 1035.54980469 919 l 1,10,-1
 1035.54980469 -321 l 1,11,-1
 916.799804688 -321 l 1,12,-1
 916.799804688 158 l 1,13,14
 859.799804688 69 859.799804688 69 773.349609375 24 c 128,-1,15
 686.899414062 -21 686.899414062 -21 577.649414062 -21 c 0,16,17
 479.799804688 -21 479.799804688 -21 395.25 16 c 128,-1,18
 310.700195312 53 310.700195312 53 248.474609375 117.5 c 128,-1,19
 186.25 182 186.25 182 150.625 269.5 c 128,-1,20
 115 357 115 357 115 458 c 0,0,1
233.75 457 m 0,21,22
 233.75 379 233.75 379 259.875 312.5 c 128,-1,23
 286 246 286 246 332.549804688 197 c 128,-1,24
 379.099609375 148 379.099609375 148 442.274414062 120 c 128,-1,25
 505.450195312 92 505.450195312 92 578.599609375 92 c 0,26,27
 650.799804688 92 650.799804688 92 713.974609375 120 c 128,-1,28
 777.149414062 148 777.149414062 148 824.174804688 197 c 128,-1,29
 871.200195312 246 871.200195312 246 898.274414062 312 c 128,-1,30
 925.349609375 378 925.349609375 378 925.349609375 453 c 0,31,32
 925.349609375 533 925.349609375 533 898.75 601.5 c 128,-1,33
 872.149414062 670 872.149414062 670 826.075195312 720 c 128,-1,34
 780 770 780 770 716.349609375 798 c 128,-1,35
 652.700195312 826 652.700195312 826 578.599609375 826 c 0,36,37
 505.450195312 826 505.450195312 826 442.274414062 798 c 128,-1,38
 379.099609375 770 379.099609375 770 332.549804688 720.5 c 128,-1,39
 286 671 286 671 259.875 603.5 c 128,-1,40
 233.75 536 233.75 536 233.75 457 c 0,21,22
EndSplineSet
Validated: 1
EndChar

StartChar: r
Encoding: 85 114 87
Width: 479
GlyphClass: 2
Flags: W
LayerCount: 2
Fore
SplineSet
115 0 m 1,0,-1
 115 919 l 1,1,-1
 232.799804688 919 l 1,2,-1
 232.799804688 788 l 1,3,4
 267.950195312 863 267.950195312 863 326.849609375 899 c 128,-1,5
 385.75 935 385.75 935 479.799804688 940 c 1,6,-1
 479.799804688 818 l 1,7,8
 232.799804688 792 232.799804688 792 232.799804688 536 c 2,9,-1
 232.799804688 0 l 1,10,-1
 115 0 l 1,0,-1
EndSplineSet
Validated: 1
EndChar

StartChar: s
Encoding: 86 115 88
Width: 662
GlyphClass: 2
Flags: W
LayerCount: 2
Fore
SplineSet
115 270 m 1,0,-1
 231.849609375 270 l 1,1,2
 231.849609375 185 231.849609375 185 276.974609375 138.5 c 128,-1,3
 322.099609375 92 322.099609375 92 396.200195312 92 c 0,4,5
 427.549804688 92 427.549804688 92 454.625 104 c 128,-1,6
 481.700195312 116 481.700195312 116 501.174804688 137.5 c 128,-1,7
 520.650390625 159 520.650390625 159 531.575195312 188 c 128,-1,8
 542.5 217 542.5 217 542.5 252 c 0,9,10
 542.5 286 542.5 286 533.950195312 310.5 c 128,-1,11
 525.400390625 335 525.400390625 335 505.450195312 354.5 c 128,-1,12
 485.5 374 485.5 374 453.200195312 391 c 128,-1,13
 420.900390625 408 420.900390625 408 373.400390625 428 c 0,14,15
 327.799804688 447 327.799804688 447 301.674804688 458.5 c 128,-1,16
 275.549804688 470 275.549804688 470 260.349609375 478.5 c 128,-1,17
 245.150390625 487 245.150390625 487 235.650390625 495.5 c 128,-1,18
 226.150390625 504 226.150390625 504 212.849609375 517 c 0,19,20
 147.299804688 583 147.299804688 583 147.299804688 682 c 0,21,22
 147.299804688 738 147.299804688 738 165.825195312 785 c 128,-1,23
 184.349609375 832 184.349609375 832 217.599609375 866.5 c 128,-1,24
 250.849609375 901 250.849609375 901 295.974609375 920.5 c 128,-1,25
 341.099609375 940 341.099609375 940 394.299804688 940 c 0,26,27
 446.549804688 940 446.549804688 940 491.674804688 922 c 128,-1,28
 536.799804688 904 536.799804688 904 570.049804688 871.5 c 128,-1,29
 603.299804688 839 603.299804688 839 621.825195312 793 c 128,-1,30
 640.349609375 747 640.349609375 747 640.349609375 692 c 1,31,-1
 520.650390625 692 l 1,32,33
 520.650390625 758 520.650390625 758 485.5 792 c 128,-1,34
 450.349609375 826 450.349609375 826 392.400390625 826 c 0,35,36
 366.75 826 366.75 826 343.950195312 815.5 c 128,-1,37
 321.150390625 805 321.150390625 805 304.049804688 787 c 128,-1,38
 286.950195312 769 286.950195312 769 276.974609375 745 c 128,-1,39
 267 721 267 721 267 694 c 0,40,41
 267 614 267 614 346.799804688 573 c 0,42,43
 356.299804688 568 356.299804688 568 364.849609375 564 c 128,-1,44
 373.400390625 560 373.400390625 560 389.075195312 552.5 c 128,-1,45
 404.75 545 404.75 545 433.25 533 c 128,-1,46
 461.75 521 461.75 521 511.150390625 499 c 0,47,48
 662.200195312 432 662.200195312 432 662.200195312 264 c 0,49,50
 662.200195312 201 662.200195312 201 642.724609375 148.5 c 128,-1,51
 623.25 96 623.25 96 587.625 58.5 c 128,-1,52
 552 21 552 21 503.075195312 0 c 128,-1,53
 454.150390625 -21 454.150390625 -21 396.200195312 -21 c 0,54,55
 333.5 -21 333.5 -21 281.724609375 -0.5 c 128,-1,56
 229.950195312 20 229.950195312 20 192.900390625 58 c 128,-1,57
 155.849609375 96 155.849609375 96 135.424804688 149.5 c 128,-1,58
 115 203 115 203 115 270 c 1,0,-1
EndSplineSet
Validated: 1
EndChar

StartChar: t
Encoding: 87 116 89
Width: 617
GlyphClass: 2
Flags: W
LayerCount: 2
Fore
SplineSet
115 806 m 1,0,-1
 115 919 l 1,1,-1
 303.099609375 919 l 1,2,-1
 303.099609375 1241 l 1,3,-1
 421.849609375 1241 l 1,4,-1
 421.849609375 919 l 1,5,-1
 617.549804688 919 l 1,6,-1
 617.549804688 806 l 1,7,-1
 421.849609375 806 l 1,8,-1
 421.849609375 0 l 1,9,-1
 303.099609375 0 l 1,10,-1
 303.099609375 806 l 1,11,-1
 115 806 l 1,0,-1
EndSplineSet
Validated: 1
EndChar

StartChar: u
Encoding: 88 117 90
Width: 883
GlyphClass: 2
Flags: W
LayerCount: 2
Fore
SplineSet
115 423 m 2,0,-1
 115 919 l 1,1,-1
 232.799804688 919 l 1,2,-1
 232.799804688 423 l 2,3,4
 232.799804688 336 232.799804688 336 249.899414062 273 c 128,-1,5
 267 210 267 210 300.25 170 c 128,-1,6
 333.5 130 333.5 130 381.950195312 111 c 128,-1,7
 430.399414062 92 430.399414062 92 494.049804688 92 c 0,8,9
 553.899414062 92 553.899414062 92 603.774414062 112 c 128,-1,10
 653.649414062 132 653.649414062 132 689.75 175 c 128,-1,11
 725.849609375 218 725.849609375 218 745.799804688 285.5 c 128,-1,12
 765.75 353 765.75 353 765.75 447 c 2,13,-1
 765.75 919 l 1,14,-1
 883.549804688 919 l 1,15,-1
 883.549804688 0 l 1,16,-1
 765.75 0 l 1,17,-1
 765.75 143 l 1,18,19
 721.099609375 57 721.099609375 57 654.125 18 c 128,-1,20
 587.149414062 -21 587.149414062 -21 484.549804688 -21 c 0,21,22
 401.899414062 -21 401.899414062 -21 333.5 3 c 128,-1,23
 265.099609375 27 265.099609375 27 216.649414062 80.5 c 128,-1,24
 168.200195312 134 168.200195312 134 141.599609375 218.5 c 128,-1,25
 115 303 115 303 115 423 c 2,0,-1
EndSplineSet
Validated: 1
EndChar

StartChar: v
Encoding: 89 118 91
Width: 973
GlyphClass: 2
Flags: W
LayerCount: 2
Fore
SplineSet
115 919 m 1,0,-1
 234.700195312 919 l 1,1,-1
 541.55078125 146 l 1,2,-1
 854.100585938 919 l 1,3,-1
 973.80078125 919 l 1,4,-1
 607.100585938 0 l 1,5,-1
 482.650390625 0 l 1,6,-1
 115 919 l 1,0,-1
EndSplineSet
Validated: 1
EndChar

StartChar: w
Encoding: 90 119 92
Width: 1418
GlyphClass: 2
Flags: W
LayerCount: 2
Fore
SplineSet
115 919 m 1,0,-1
 232.799804688 919 l 1,1,-1
 510.19921875 149 l 1,2,-1
 716.349609375 806 l 1,3,-1
 813.25 806 l 1,4,-1
 1019.39941406 149 l 1,5,-1
 1303.44921875 919 l 1,6,-1
 1418.39941406 919 l 1,7,-1
 1080.19921875 0 l 1,8,-1
 953.849609375 0 l 1,9,-1
 763.849609375 610 l 1,10,-1
 575.75 0 l 1,11,-1
 448.44921875 0 l 1,12,-1
 115 919 l 1,0,-1
EndSplineSet
Validated: 1
EndChar

StartChar: x
Encoding: 91 120 93
Width: 833
GlyphClass: 2
Flags: W
LayerCount: 2
Fore
SplineSet
115 0 m 1,0,-1
 409.5 454 l 1,1,-1
 115 891 l 1,2,-1
 245.150390625 891 l 1,3,-1
 474.100585938 547 l 1,4,-1
 701.150390625 891 l 1,5,-1
 833.200195312 891 l 1,6,-1
 537.75 454 l 1,7,-1
 833.200195312 0 l 1,8,-1
 701.150390625 0 l 1,9,-1
 474.100585938 357 l 1,10,-1
 245.150390625 0 l 1,11,-1
 115 0 l 1,0,-1
EndSplineSet
Validated: 1
EndChar

StartChar: y
Encoding: 92 121 94
Width: 915
GlyphClass: 2
Flags: W
LayerCount: 2
Fore
SplineSet
115 891 m 1,0,-1
 240.400390625 891 l 1,1,-1
 507.349609375 181 l 1,2,-1
 794.25 891 l 1,3,-1
 915.849609375 891 l 1,4,-1
 427.549804688 -312 l 1,5,-1
 305 -312 l 1,6,-1
 442.75 29 l 1,7,-1
 115 891 l 1,0,-1
EndSplineSet
Validated: 1
EndChar

StartChar: z
Encoding: 93 122 95
Width: 742
GlyphClass: 2
Flags: W
LayerCount: 2
Fore
SplineSet
115 0 m 1,0,-1
 115 109 l 1,1,-1
 582.399414062 782 l 1,2,-1
 131.149414062 782 l 1,3,-1
 131.149414062 891 l 1,4,-1
 712.549804688 891 l 1,5,-1
 712.549804688 788 l 1,6,-1
 249.899414062 109 l 1,7,-1
 742 109 l 1,8,-1
 742 0 l 1,9,-1
 115 0 l 1,0,-1
EndSplineSet
Validated: 1
EndChar

StartChar: braceleft
Encoding: 94 123 96
Width: 544
GlyphClass: 2
Flags: W
LayerCount: 2
Fore
SplineSet
115 343 m 1,0,-1
 115 447 l 1,1,2
 147.299804688 447 147.299804688 447 175.325195312 456.5 c 128,-1,3
 203.349609375 466 203.349609375 466 224.724609375 482.5 c 128,-1,4
 246.099609375 499 246.099609375 499 258.450195312 521 c 128,-1,5
 270.799804688 543 270.799804688 543 270.799804688 569 c 2,6,-1
 270.799804688 916 l 2,7,8
 270.799804688 962 270.799804688 962 292.174804688 1003.5 c 128,-1,9
 313.549804688 1045 313.549804688 1045 350.599609375 1075.5 c 128,-1,10
 387.650390625 1106 387.650390625 1106 437.525390625 1124 c 128,-1,11
 487.400390625 1142 487.400390625 1142 544.400390625 1142 c 1,12,-1
 544.400390625 1038 l 1,13,14
 512.099609375 1038 512.099609375 1038 483.599609375 1028.5 c 128,-1,15
 455.099609375 1019 455.099609375 1019 433.724609375 1002.5 c 128,-1,16
 412.349609375 986 412.349609375 986 400 963.5 c 128,-1,17
 387.650390625 941 387.650390625 941 387.650390625 916 c 2,18,-1
 387.650390625 569 l 2,19,20
 387.650390625 516 387.650390625 516 361.525390625 471 c 128,-1,21
 335.400390625 426 335.400390625 426 288.849609375 395 c 1,22,23
 335.400390625 364 335.400390625 364 361.525390625 319 c 128,-1,24
 387.650390625 274 387.650390625 274 387.650390625 221 c 2,25,-1
 387.650390625 -125 l 2,26,27
 387.650390625 -151 387.650390625 -151 400 -173 c 128,-1,28
 412.349609375 -195 412.349609375 -195 433.724609375 -211.5 c 128,-1,29
 455.099609375 -228 455.099609375 -228 483.599609375 -237.5 c 128,-1,30
 512.099609375 -247 512.099609375 -247 544.400390625 -247 c 1,31,-1
 544.400390625 -351 l 1,32,33
 487.400390625 -351 487.400390625 -351 437.525390625 -333 c 128,-1,34
 387.650390625 -315 387.650390625 -315 350.599609375 -284.5 c 128,-1,35
 313.549804688 -254 313.549804688 -254 292.174804688 -213 c 128,-1,36
 270.799804688 -172 270.799804688 -172 270.799804688 -125 c 2,37,-1
 270.799804688 221 l 2,38,39
 270.799804688 246 270.799804688 246 258.450195312 268.5 c 128,-1,40
 246.099609375 291 246.099609375 291 224.724609375 307.5 c 128,-1,41
 203.349609375 324 203.349609375 324 175.325195312 333.5 c 128,-1,42
 147.299804688 343 147.299804688 343 115 343 c 1,0,-1
EndSplineSet
Validated: 1
EndChar

StartChar: bar
Encoding: 95 124 97
Width: 226
GlyphClass: 2
Flags: W
LayerCount: 2
Fore
SplineSet
115 -236 m 1,0,-1
 115 1027 l 1,1,-1
 226.149414062 1027 l 1,2,-1
 226.149414062 -236 l 1,3,-1
 115 -236 l 1,0,-1
EndSplineSet
Validated: 1
EndChar

StartChar: braceright
Encoding: 96 125 98
Width: 544
GlyphClass: 2
Flags: W
LayerCount: 2
Fore
SplineSet
115 -247 m 1,0,1
 147.299804688 -247 147.299804688 -247 175.325195312 -237.5 c 128,-1,2
 203.349609375 -228 203.349609375 -228 224.724609375 -211.5 c 128,-1,3
 246.099609375 -195 246.099609375 -195 258.450195312 -173 c 128,-1,4
 270.799804688 -151 270.799804688 -151 270.799804688 -125 c 2,5,-1
 270.799804688 221 l 2,6,7
 270.799804688 274 270.799804688 274 297.400390625 319 c 128,-1,8
 324 364 324 364 369.599609375 395 c 1,9,10
 324 426 324 426 297.400390625 471 c 128,-1,11
 270.799804688 516 270.799804688 516 270.799804688 569 c 2,12,-1
 270.799804688 916 l 2,13,14
 270.799804688 941 270.799804688 941 258.450195312 963.5 c 128,-1,15
 246.099609375 986 246.099609375 986 224.724609375 1002.5 c 128,-1,16
 203.349609375 1019 203.349609375 1019 175.325195312 1028.5 c 128,-1,17
 147.299804688 1038 147.299804688 1038 115 1038 c 1,18,-1
 115 1142 l 1,19,20
 172 1142 172 1142 221.400390625 1124 c 128,-1,21
 270.799804688 1106 270.799804688 1106 307.849609375 1075.5 c 128,-1,22
 344.900390625 1045 344.900390625 1045 366.275390625 1003.5 c 128,-1,23
 387.650390625 962 387.650390625 962 387.650390625 916 c 2,24,-1
 387.650390625 569 l 2,25,26
 387.650390625 543 387.650390625 543 400 521 c 128,-1,27
 412.349609375 499 412.349609375 499 433.724609375 482.5 c 128,-1,28
 455.099609375 466 455.099609375 466 483.599609375 456.5 c 128,-1,29
 512.099609375 447 512.099609375 447 544.400390625 447 c 1,30,-1
 544.400390625 343 l 1,31,32
 512.099609375 343 512.099609375 343 483.599609375 333.5 c 128,-1,33
 455.099609375 324 455.099609375 324 433.724609375 307.5 c 128,-1,34
 412.349609375 291 412.349609375 291 400 268.5 c 128,-1,35
 387.650390625 246 387.650390625 246 387.650390625 221 c 2,36,-1
 387.650390625 -125 l 2,37,38
 387.650390625 -172 387.650390625 -172 366.275390625 -213 c 128,-1,39
 344.900390625 -254 344.900390625 -254 307.849609375 -284.5 c 128,-1,40
 270.799804688 -315 270.799804688 -315 221.400390625 -333 c 128,-1,41
 172 -351 172 -351 115 -351 c 1,42,-1
 115 -247 l 1,0,1
EndSplineSet
Validated: 1
EndChar

StartChar: asciitilde
Encoding: 97 126 99
Width: 871
GlyphClass: 2
Flags: W
LayerCount: 2
Fore
SplineSet
115 406 m 1,0,1
 141.599609375 457 141.599609375 457 166.774414062 493 c 128,-1,2
 191.950195312 529 191.950195312 529 217.599609375 552 c 128,-1,3
 243.25 575 243.25 575 270.799804688 585.5 c 128,-1,4
 298.349609375 596 298.349609375 596 329.700195312 596 c 0,5,6
 376.25 596 376.25 596 444.649414062 566 c 2,7,-1
 542.5 523 l 2,8,9
 566.25 512 566.25 512 584.299804688 505.5 c 128,-1,10
 602.349609375 499 602.349609375 499 615.649414062 494.5 c 128,-1,11
 628.950195312 490 628.950195312 490 639.875 488.5 c 128,-1,12
 650.799804688 487 650.799804688 487 662.200195312 487 c 0,13,14
 698.299804688 487 698.299804688 487 732.5 517 c 128,-1,15
 766.700195312 547 766.700195312 547 804.700195312 616 c 1,16,-1
 871.200195312 542 l 1,17,18
 852.200195312 502 852.200195312 502 827.5 469.5 c 128,-1,19
 802.799804688 437 802.799804688 437 775.25 413.5 c 128,-1,20
 747.700195312 390 747.700195312 390 718.724609375 377.5 c 128,-1,21
 689.75 365 689.75 365 661.25 365 c 0,22,23
 647.950195312 365 647.950195312 365 633.700195312 367.5 c 128,-1,24
 619.450195312 370 619.450195312 370 603.299804688 375 c 128,-1,25
 587.149414062 380 587.149414062 380 567.200195312 387.5 c 128,-1,26
 547.25 395 547.25 395 521.599609375 406 c 2,27,-1
 438.950195312 441 l 2,28,29
 414.25 451 414.25 451 398.575195312 457.5 c 128,-1,30
 382.899414062 464 382.899414062 464 371.024414062 467.5 c 128,-1,31
 359.149414062 471 359.149414062 471 350.125 472.5 c 128,-1,32
 341.099609375 474 341.099609375 474 329.700195312 474 c 0,33,34
 304.049804688 474 304.049804688 474 285.524414062 466.5 c 128,-1,35
 267 459 267 459 250.375 442 c 128,-1,36
 233.75 425 233.75 425 216.649414062 398 c 128,-1,37
 199.549804688 371 199.549804688 371 177.700195312 332 c 1,38,-1
 115 406 l 1,0,1
EndSplineSet
Validated: 1
EndChar

StartChar: exclamdown
Encoding: 99 161 101
Width: 226
GlyphClass: 2
Flags: W
LayerCount: 2
Fore
SplineSet
115 -302 m 1,0,-1
 115 553 l 1,1,-1
 226.150390625 553 l 1,2,-1
 226.150390625 -302 l 1,3,-1
 115 -302 l 1,0,-1
115 665 m 1,4,-1
 115 864 l 1,5,-1
 226.150390625 864 l 1,6,-1
 226.150390625 665 l 1,7,-1
 115 665 l 1,4,-1
EndSplineSet
Validated: 1
EndChar

StartChar: cent
Encoding: 100 162 102
Width: 811
GlyphClass: 2
Flags: W
LayerCount: 2
Fore
SplineSet
115 604 m 0,0,1
 115 678 115 678 138.274414062 741.5 c 128,-1,2
 161.549804688 805 161.549804688 805 204.299804688 853.5 c 128,-1,3
 247.049804688 902 247.049804688 902 305.950195312 932 c 128,-1,4
 364.849609375 962 364.849609375 962 436.099609375 970 c 1,5,-1
 436.099609375 1117 l 1,6,-1
 535.849609375 1117 l 1,7,-1
 535.849609375 970 l 1,8,9
 584.299804688 963 584.299804688 963 627.049804688 943 c 128,-1,10
 669.799804688 923 669.799804688 923 705.424804688 892 c 128,-1,11
 741.049804688 861 741.049804688 861 768.125 820.5 c 128,-1,12
 795.200195312 780 795.200195312 780 811.349609375 732 c 1,13,-1
 686.899414062 732 l 1,14,15
 616.599609375 864 616.599609375 864 472.200195312 864 c 0,16,17
 419 864 419 864 374.349609375 844.5 c 128,-1,18
 329.700195312 825 329.700195312 825 296.450195312 790.5 c 128,-1,19
 263.200195312 756 263.200195312 756 244.674804688 708.5 c 128,-1,20
 226.149414062 661 226.149414062 661 226.149414062 605 c 0,21,22
 226.149414062 550 226.149414062 550 245.149414062 502 c 128,-1,23
 264.149414062 454 264.149414062 454 297.399414062 419 c 128,-1,24
 330.649414062 384 330.649414062 384 375.299804688 363.5 c 128,-1,25
 419.950195312 343 419.950195312 343 471.25 343 c 0,26,27
 533 343 533 343 581.924804688 369.5 c 128,-1,28
 630.849609375 396 630.849609375 396 681.200195312 458 c 1,29,-1
 802.799804688 458 l 1,30,31
 787.599609375 415 787.599609375 415 760.524414062 377.5 c 128,-1,32
 733.450195312 340 733.450195312 340 698.774414062 311.5 c 128,-1,33
 664.099609375 283 664.099609375 283 622.299804688 264.5 c 128,-1,34
 580.5 246 580.5 246 535.849609375 240 c 1,35,-1
 535.849609375 98 l 1,36,-1
 436.099609375 98 l 1,37,-1
 436.099609375 240 l 1,38,39
 366.75 245 366.75 245 307.849609375 275 c 128,-1,40
 248.950195312 305 248.950195312 305 206.200195312 354 c 128,-1,41
 163.450195312 403 163.450195312 403 139.224609375 467 c 128,-1,42
 115 531 115 531 115 604 c 0,0,1
EndSplineSet
Validated: 1
EndChar

StartChar: sterling
Encoding: 101 163 103
Width: 976
GlyphClass: 2
Flags: W
LayerCount: 2
Fore
SplineSet
115 548 m 1,0,-1
 115 654 l 1,1,-1
 228.05078125 654 l 1,2,3
 218.55078125 678 218.55078125 678 211.900390625 698 c 128,-1,4
 205.25 718 205.25 718 201.450195312 736 c 128,-1,5
 197.650390625 754 197.650390625 754 196.225585938 771.5 c 128,-1,6
 194.80078125 789 194.80078125 789 194.80078125 809 c 0,7,8
 194.80078125 892 194.80078125 892 221.400390625 961.5 c 128,-1,9
 248 1031 248 1031 295.025390625 1081.5 c 128,-1,10
 342.05078125 1132 342.05078125 1132 406.650390625 1160 c 128,-1,11
 471.25 1188 471.25 1188 548.200195312 1188 c 0,12,13
 623.25 1188 623.25 1188 687.850585938 1163.5 c 128,-1,14
 752.450195312 1139 752.450195312 1139 801.375 1095 c 128,-1,15
 850.30078125 1051 850.30078125 1051 881.17578125 990 c 128,-1,16
 912.05078125 929 912.05078125 929 919.650390625 855 c 1,17,-1
 816.100585938 855 l 1,18,19
 794.25 962 794.25 962 723.475585938 1022 c 128,-1,20
 652.700195312 1082 652.700195312 1082 549.150390625 1082 c 0,21,22
 495 1082 495 1082 450.350585938 1062.5 c 128,-1,23
 405.700195312 1043 405.700195312 1043 373.400390625 1007 c 128,-1,24
 341.100585938 971 341.100585938 971 323.525390625 921 c 128,-1,25
 305.950195312 871 305.950195312 871 305.950195312 811 c 0,26,27
 305.950195312 789 305.950195312 789 307.850585938 771 c 128,-1,28
 309.75 753 309.75 753 314.5 735 c 128,-1,29
 319.25 717 319.25 717 327.325195312 697.5 c 128,-1,30
 335.400390625 678 335.400390625 678 347.75 654 c 1,31,-1
 774.30078125 654 l 1,32,-1
 774.30078125 548 l 1,33,-1
 451.30078125 548 l 1,34,35
 559.600585938 428 559.600585938 428 559.600585938 291 c 0,36,37
 559.600585938 247 559.600585938 247 549.625 205 c 128,-1,38
 539.650390625 163 539.650390625 163 515.900390625 106 c 1,39,-1
 601.400390625 106 l 2,40,41
 672.650390625 106 672.650390625 106 722.525390625 124.5 c 128,-1,42
 772.400390625 143 772.400390625 143 804.700195312 175 c 128,-1,43
 837 207 837 207 851.725585938 251 c 128,-1,44
 866.450195312 295 866.450195312 295 866.450195312 346 c 0,45,46
 866.450195312 363 866.450195312 363 864.55078125 378.5 c 128,-1,47
 862.650390625 394 862.650390625 394 856.950195312 423 c 1,48,-1
 965.25 423 l 1,49,50
 971.900390625 396 971.900390625 396 974.275390625 378 c 128,-1,51
 976.650390625 360 976.650390625 360 976.650390625 337 c 0,52,53
 976.650390625 263 976.650390625 263 953.850585938 201 c 128,-1,54
 931.05078125 139 931.05078125 139 884.5 94.5 c 128,-1,55
 837.950195312 50 837.950195312 50 768.600585938 25 c 128,-1,56
 699.25 0 699.25 0 605.200195312 0 c 2,57,-1
 176.75 0 l 1,58,-1
 176.75 106 l 1,59,-1
 385.75 106 l 1,60,61
 448.450195312 179 448.450195312 179 448.450195312 289 c 0,62,63
 448.450195312 326 448.450195312 326 442.275390625 356 c 128,-1,64
 436.100585938 386 436.100585938 386 419.475585938 415 c 128,-1,65
 402.850585938 444 402.850585938 444 375.30078125 476 c 128,-1,66
 347.75 508 347.75 508 305 548 c 1,67,-1
 115 548 l 1,0,-1
EndSplineSet
Validated: 1
EndChar

StartChar: currency
Encoding: 102 164 104
Width: 868
GlyphClass: 2
Flags: W
LayerCount: 2
Fore
SplineSet
115 479 m 256,0,1
 115 549 115 549 131.625 604.5 c 128,-1,2
 148.25 660 148.25 660 185.299804688 714 c 1,3,-1
 119.75 781 l 1,4,-1
 202.399414062 866 l 1,5,-1
 267 800 l 1,6,7
 325.899414062 840 325.899414062 840 377.200195312 857 c 128,-1,8
 428.5 874 428.5 874 490.25 874 c 0,9,10
 555.799804688 874 555.799804688 874 610.899414062 856 c 128,-1,11
 666 838 666 838 715.399414062 801 c 1,12,-1
 780 867 l 1,13,-1
 860.75 781 l 1,14,-1
 799.950195312 714 l 1,15,16
 836.049804688 658 836.049804688 658 852.200195312 601 c 128,-1,17
 868.349609375 544 868.349609375 544 868.349609375 474 c 0,18,19
 868.349609375 333 868.349609375 333 798.049804688 242 c 1,20,-1
 860.75 175 l 1,21,-1
 780 92 l 1,22,-1
 718.25 158 l 1,23,24
 685.950195312 135 685.950195312 135 658.399414062 120 c 128,-1,25
 630.849609375 105 630.849609375 105 604.25 96 c 128,-1,26
 577.649414062 87 577.649414062 87 550.099609375 83 c 128,-1,27
 522.549804688 79 522.549804688 79 490.25 79 c 256,28,29
 457.950195312 79 457.950195312 79 430.399414062 83 c 128,-1,30
 402.849609375 87 402.849609375 87 376.25 96.5 c 128,-1,31
 349.649414062 106 349.649414062 106 322.575195312 121 c 128,-1,32
 295.5 136 295.5 136 265.099609375 158 c 1,33,-1
 202.399414062 92 l 1,34,-1
 122.599609375 177 l 1,35,-1
 184.349609375 242 l 1,36,37
 148.25 294 148.25 294 131.625 351.5 c 128,-1,38
 115 409 115 409 115 479 c 256,0,1
221.399414062 477 m 0,39,40
 221.399414062 416 221.399414062 416 242.299804688 364 c 128,-1,41
 263.200195312 312 263.200195312 312 299.774414062 274 c 128,-1,42
 336.349609375 236 336.349609375 236 386.224609375 214.5 c 128,-1,43
 436.099609375 193 436.099609375 193 495 193 c 0,44,45
 552 193 552 193 600.450195312 215 c 128,-1,46
 648.899414062 237 648.899414062 237 685 275 c 128,-1,47
 721.099609375 313 721.099609375 313 741.524414062 365.5 c 128,-1,48
 761.950195312 418 761.950195312 418 761.950195312 479 c 256,49,50
 761.950195312 540 761.950195312 540 742 592 c 128,-1,51
 722.049804688 644 722.049804688 644 686.424804688 682 c 128,-1,52
 650.799804688 720 650.799804688 720 602.349609375 741.5 c 128,-1,53
 553.899414062 763 553.899414062 763 495.950195312 763 c 0,54,55
 436.099609375 763 436.099609375 763 385.75 741.5 c 128,-1,56
 335.399414062 720 335.399414062 720 298.825195312 682 c 128,-1,57
 262.25 644 262.25 644 241.825195312 591.5 c 128,-1,58
 221.399414062 539 221.399414062 539 221.399414062 477 c 0,39,40
EndSplineSet
Validated: 1
EndChar

StartChar: yen
Encoding: 103 165 105
Width: 999
GlyphClass: 2
Flags: W
LayerCount: 2
Fore
SplineSet
115 1168 m 1,0,-1
 229 1168 l 1,1,-1
 560.549804688 517 l 1,2,-1
 885.450195312 1168 l 1,3,-1
 999.450195312 1168 l 1,4,-1
 780 732 l 1,5,-1
 934.849609375 732 l 1,6,-1
 934.849609375 626 l 1,7,-1
 725.849609375 626 l 1,8,-1
 653.650390625 480 l 1,9,-1
 924.400390625 480 l 1,10,-1
 924.400390625 374 l 1,11,-1
 614.700195312 374 l 1,12,-1
 614.700195312 0 l 1,13,-1
 505.450195312 0 l 1,14,-1
 505.450195312 374 l 1,15,-1
 190.049804688 374 l 1,16,-1
 190.049804688 480 l 1,17,-1
 464.599609375 480 l 1,18,-1
 391.450195312 626 l 1,19,-1
 179.599609375 626 l 1,20,-1
 179.599609375 732 l 1,21,-1
 337.299804688 732 l 1,22,-1
 115 1168 l 1,0,-1
EndSplineSet
Validated: 1
EndChar

StartChar: brokenbar
Encoding: 104 166 106
Width: 226
GlyphClass: 2
Flags: W
LayerCount: 2
Fore
SplineSet
115 -197 m 1,0,-1
 115 349 l 1,1,-1
 226.150390625 349 l 1,2,-1
 226.150390625 -197 l 1,3,-1
 115 -197 l 1,0,-1
115 621 m 1,4,-1
 115 1168 l 1,5,-1
 226.150390625 1168 l 1,6,-1
 226.150390625 621 l 1,7,-1
 115 621 l 1,4,-1
EndSplineSet
Validated: 1
EndChar

StartChar: section
Encoding: 105 167 107
Width: 779
GlyphClass: 2
Flags: W
LayerCount: 2
Fore
SplineSet
115 536 m 0,0,1
 115 610 115 610 146.82421875 668.5 c 128,-1,2
 178.649414062 727 178.649414062 727 244.19921875 776 c 1,3,4
 213.799804688 811 213.799804688 811 200.5 846.5 c 128,-1,5
 187.19921875 882 187.19921875 882 187.19921875 931 c 0,6,7
 187.19921875 986 187.19921875 986 206.674804688 1033.5 c 128,-1,8
 226.149414062 1081 226.149414062 1081 260.82421875 1115 c 128,-1,9
 295.5 1149 295.5 1149 342.524414062 1168.5 c 128,-1,10
 389.549804688 1188 389.549804688 1188 445.599609375 1188 c 0,11,12
 499.75 1188 499.75 1188 546.299804688 1171 c 128,-1,13
 592.849609375 1154 592.849609375 1154 628 1123.5 c 128,-1,14
 663.149414062 1093 663.149414062 1093 684.524414062 1051 c 128,-1,15
 705.899414062 1009 705.899414062 1009 709.69921875 958 c 1,16,-1
 603.299804688 958 l 1,17,18
 578.599609375 1082 578.599609375 1082 445.599609375 1082 c 0,19,20
 411.399414062 1082 411.399414062 1082 382.899414062 1071 c 128,-1,21
 354.399414062 1060 354.399414062 1060 333.5 1040.5 c 128,-1,22
 312.599609375 1021 312.599609375 1021 301.19921875 994 c 128,-1,23
 289.799804688 967 289.799804688 967 289.799804688 934 c 0,24,25
 289.799804688 891 289.799804688 891 312.599609375 855 c 128,-1,26
 335.399414062 819 335.399414062 819 378.149414062 798 c 2,27,-1
 615.649414062 681 l 2,28,29
 779.049804688 600 779.049804688 600 779.049804688 457 c 0,30,31
 779.049804688 391 779.049804688 391 749.599609375 332.5 c 128,-1,32
 720.149414062 274 720.149414062 274 665.049804688 231 c 1,33,34
 702.099609375 189 702.099609375 189 719.674804688 148 c 128,-1,35
 737.25 107 737.25 107 737.25 58 c 0,36,37
 737.25 -2 737.25 -2 715.875 -53.5 c 128,-1,38
 694.5 -105 694.5 -105 656.5 -142.5 c 128,-1,39
 618.5 -180 618.5 -180 566.724609375 -201 c 128,-1,40
 514.94921875 -222 514.94921875 -222 455.099609375 -222 c 0,41,42
 389.549804688 -222 389.549804688 -222 333.5 -198 c 128,-1,43
 277.44921875 -174 277.44921875 -174 236.125 -131 c 128,-1,44
 194.799804688 -88 194.799804688 -88 170.57421875 -29 c 128,-1,45
 146.349609375 30 146.349609375 30 143.5 101 c 1,46,-1
 246.099609375 101 l 1,47,48
 248.94921875 52 248.94921875 52 265.57421875 12 c 128,-1,49
 282.19921875 -28 282.19921875 -28 309.75 -56.5 c 128,-1,50
 337.299804688 -85 337.299804688 -85 373.875 -100.5 c 128,-1,51
 410.44921875 -116 410.44921875 -116 455.099609375 -116 c 0,52,53
 493.099609375 -116 493.099609375 -116 525.875 -103 c 128,-1,54
 558.649414062 -90 558.649414062 -90 582.875 -67 c 128,-1,55
 607.099609375 -44 607.099609375 -44 620.875 -12.5 c 128,-1,56
 634.649414062 19 634.649414062 19 634.649414062 55 c 0,57,58
 634.649414062 103 634.649414062 103 602.349609375 140.5 c 128,-1,59
 570.049804688 178 570.049804688 178 494.049804688 216 c 2,60,-1
 279.349609375 327 l 2,61,62
 232.799804688 351 232.799804688 351 201.44921875 373 c 128,-1,63
 170.099609375 395 170.099609375 395 150.625 419.5 c 128,-1,64
 131.149414062 444 131.149414062 444 123.07421875 472.5 c 128,-1,65
 115 501 115 501 115 536 c 0,0,1
217.599609375 553 m 0,66,67
 217.599609375 481 217.599609375 481 298.349609375 439 c 2,68,-1
 595.69921875 288 l 1,69,70
 632.75 317 632.75 317 654.599609375 358.5 c 128,-1,71
 676.44921875 400 676.44921875 400 676.44921875 442 c 0,72,73
 676.44921875 531 676.44921875 531 585.25 577 c 2,74,-1
 303.099609375 717 l 1,75,76
 263.19921875 688 263.19921875 688 240.399414062 644.5 c 128,-1,77
 217.599609375 601 217.599609375 601 217.599609375 553 c 0,66,67
EndSplineSet
Validated: 1
EndChar

StartChar: dieresis
Encoding: 106 168 108
Width: 446
GlyphClass: 2
Flags: W
LayerCount: 2
Fore
SplineSet
115 959 m 1,0,-1
 115 1158 l 1,1,-1
 226.149414062 1158 l 1,2,-1
 226.149414062 959 l 1,3,-1
 115 959 l 1,0,-1
335.399414062 959 m 1,4,-1
 335.399414062 1158 l 1,5,-1
 446.549804688 1158 l 1,6,-1
 446.549804688 959 l 1,7,-1
 335.399414062 959 l 1,4,-1
EndSplineSet
Validated: 1
EndChar

StartChar: copyright
Encoding: 107 169 109
Width: 1176
GlyphClass: 2
Flags: W
LayerCount: 2
Fore
SplineSet
115 539 m 0,0,1
 115 654 115 654 156.80078125 756 c 128,-1,2
 198.600585938 858 198.600585938 858 270.325195312 934 c 128,-1,3
 342.05078125 1010 342.05078125 1010 438.475585938 1054 c 128,-1,4
 534.900390625 1098 534.900390625 1098 645.100585938 1098 c 0,5,6
 754.350585938 1098 754.350585938 1098 851.25 1054 c 128,-1,7
 948.150390625 1010 948.150390625 1010 1020.35058594 934 c 128,-1,8
 1092.55078125 858 1092.55078125 858 1134.35058594 756 c 128,-1,9
 1176.15039062 654 1176.15039062 654 1176.15039062 539 c 0,10,11
 1176.15039062 462 1176.15039062 462 1157.15039062 391 c 128,-1,12
 1138.15039062 320 1138.15039062 320 1103.47558594 258 c 128,-1,13
 1068.80078125 196 1068.80078125 196 1020.35058594 145 c 128,-1,14
 971.900390625 94 971.900390625 94 913 58 c 128,-1,15
 854.100585938 22 854.100585938 22 786.17578125 2 c 128,-1,16
 718.25 -18 718.25 -18 645.100585938 -18 c 0,17,18
 534.900390625 -18 534.900390625 -18 438.475585938 25.5 c 128,-1,19
 342.05078125 69 342.05078125 69 270.325195312 145 c 128,-1,20
 198.600585938 221 198.600585938 221 156.80078125 322 c 128,-1,21
 115 423 115 423 115 539 c 0,0,1
171.05078125 539 m 0,22,23
 171.05078125 435 171.05078125 435 208.100585938 344 c 128,-1,24
 245.150390625 253 245.150390625 253 309.275390625 185.5 c 128,-1,25
 373.400390625 118 373.400390625 118 459.850585938 79 c 128,-1,26
 546.30078125 40 546.30078125 40 645.100585938 40 c 0,27,28
 742.950195312 40 742.950195312 40 829.875 79 c 128,-1,29
 916.80078125 118 916.80078125 118 981.400390625 185.5 c 128,-1,30
 1046 253 1046 253 1083.52539062 344 c 128,-1,31
 1121.05078125 435 1121.05078125 435 1121.05078125 539 c 0,32,33
 1121.05078125 642 1121.05078125 642 1083.52539062 733.5 c 128,-1,34
 1046 825 1046 825 981.400390625 893 c 128,-1,35
 916.80078125 961 916.80078125 961 829.875 1000.5 c 128,-1,36
 742.950195312 1040 742.950195312 1040 645.100585938 1040 c 0,37,38
 546.30078125 1040 546.30078125 1040 459.850585938 1000.5 c 128,-1,39
 373.400390625 961 373.400390625 961 309.275390625 893 c 128,-1,40
 245.150390625 825 245.150390625 825 208.100585938 733.5 c 128,-1,41
 171.05078125 642 171.05078125 642 171.05078125 539 c 0,22,23
306.900390625 537 m 0,42,43
 306.900390625 610 306.900390625 610 333.5 672.5 c 128,-1,44
 360.100585938 735 360.100585938 735 407.125 781 c 128,-1,45
 454.150390625 827 454.150390625 827 518.75 853 c 128,-1,46
 583.350585938 879 583.350585938 879 660.30078125 879 c 0,47,48
 715.400390625 879 715.400390625 879 765.75 865 c 128,-1,49
 816.100585938 851 816.100585938 851 857.42578125 825 c 128,-1,50
 898.75 799 898.75 799 930.100585938 762 c 128,-1,51
 961.450195312 725 961.450195312 725 979.5 679 c 1,52,-1
 885.450195312 679 l 1,53,54
 844.600585938 744 844.600585938 744 787.600585938 770 c 128,-1,55
 730.600585938 796 730.600585938 796 661.25 796 c 0,56,57
 604.25 796 604.25 796 555.325195312 776.5 c 128,-1,58
 506.400390625 757 506.400390625 757 470.30078125 722.5 c 128,-1,59
 434.200195312 688 434.200195312 688 413.775390625 641 c 128,-1,60
 393.350585938 594 393.350585938 594 393.350585938 539 c 0,61,62
 393.350585938 486 393.350585938 486 414.725585938 439 c 128,-1,63
 436.100585938 392 436.100585938 392 473.150390625 357 c 128,-1,64
 510.200195312 322 510.200195312 322 559.125 301.5 c 128,-1,65
 608.05078125 281 608.05078125 281 663.150390625 281 c 0,66,67
 698.30078125 281 698.30078125 281 728.700195312 288 c 128,-1,68
 759.100585938 295 759.100585938 295 786.17578125 309 c 128,-1,69
 813.25 323 813.25 323 838.900390625 345.5 c 128,-1,70
 864.55078125 368 864.55078125 368 890.200195312 400 c 1,71,-1
 984.25 400 l 1,72,73
 882.600585938 199 882.600585938 199 665.05078125 199 c 0,74,75
 588.100585938 199 588.100585938 199 522.55078125 225 c 128,-1,76
 457 251 457 251 409.025390625 296.5 c 128,-1,77
 361.05078125 342 361.05078125 342 333.975585938 403.5 c 128,-1,78
 306.900390625 465 306.900390625 465 306.900390625 537 c 0,42,43
EndSplineSet
Validated: 1
EndChar

StartChar: ordfeminine
Encoding: 108 170 110
Width: 577
GlyphClass: 2
Flags: W
LayerCount: 2
Fore
SplineSet
115 504 m 1,0,-1
 115 585 l 1,1,-1
 577.650390625 585 l 1,2,-1
 577.650390625 504 l 1,3,-1
 115 504 l 1,0,-1
115 939 m 0,4,5
 115 988 115 988 133.049804688 1031.5 c 128,-1,6
 151.100585938 1075 151.100585938 1075 181.975585938 1107 c 128,-1,7
 212.850585938 1139 212.850585938 1139 254.174804688 1158 c 128,-1,8
 295.5 1177 295.5 1177 343 1177 c 0,9,10
 389.549804688 1177 389.549804688 1177 431.825195312 1154.5 c 128,-1,11
 474.100585938 1132 474.100585938 1132 495.950195312 1097 c 1,12,-1
 495.950195312 1168 l 1,13,-1
 568.150390625 1168 l 1,14,-1
 568.150390625 708 l 1,15,-1
 495.950195312 708 l 1,16,-1
 495.950195312 779 l 1,17,18
 463.650390625 735 463.650390625 735 427.075195312 716 c 128,-1,19
 390.5 697 390.5 697 342.049804688 697 c 0,20,21
 295.5 697 295.5 697 254.174804688 716 c 128,-1,22
 212.850585938 735 212.850585938 735 181.975585938 768 c 128,-1,23
 151.100585938 801 151.100585938 801 133.049804688 845 c 128,-1,24
 115 889 115 889 115 939 c 0,4,5
194.799804688 940 m 0,25,26
 194.799804688 907 194.799804688 907 207.150390625 877 c 128,-1,27
 219.5 847 219.5 847 239.924804688 824 c 128,-1,28
 260.350585938 801 260.350585938 801 287.424804688 787.5 c 128,-1,29
 314.5 774 314.5 774 344.900390625 774 c 0,30,31
 374.350585938 774 374.350585938 774 400.950195312 787.5 c 128,-1,32
 427.549804688 801 427.549804688 801 447.975585938 823.5 c 128,-1,33
 468.400390625 846 468.400390625 846 480.275390625 875 c 128,-1,34
 492.150390625 904 492.150390625 904 492.150390625 935 c 0,35,36
 492.150390625 968 492.150390625 968 480.275390625 998 c 128,-1,37
 468.400390625 1028 468.400390625 1028 447.975585938 1050.5 c 128,-1,38
 427.549804688 1073 427.549804688 1073 400.950195312 1086.5 c 128,-1,39
 374.350585938 1100 374.350585938 1100 344.900390625 1100 c 256,40,41
 315.450195312 1100 315.450195312 1100 288.375 1087 c 128,-1,42
 261.299804688 1074 261.299804688 1074 240.400390625 1051.5 c 128,-1,43
 219.5 1029 219.5 1029 207.150390625 1000 c 128,-1,44
 194.799804688 971 194.799804688 971 194.799804688 940 c 0,25,26
EndSplineSet
Validated: 1
EndChar

StartChar: guillemotleft
Encoding: 109 171 111
Width: 632
GlyphClass: 2
Flags: W
LayerCount: 2
Fore
SplineSet
115 474 m 1,0,-1
 285.05078125 788 l 1,1,-1
 373.400390625 738 l 1,2,-1
 231.850585938 474 l 1,3,-1
 373.400390625 209 l 1,4,-1
 285.05078125 156 l 1,5,-1
 115 474 l 1,0,-1
371.5 474 m 1,6,-1
 544.400390625 788 l 1,7,-1
 632.75 738 l 1,8,-1
 492.150390625 474 l 1,9,-1
 632.75 209 l 1,10,-1
 544.400390625 156 l 1,11,-1
 371.5 474 l 1,6,-1
EndSplineSet
Validated: 1
EndChar

StartChar: logicalnot
Encoding: 110 172 112
Width: 1011
GlyphClass: 2
Flags: W
LayerCount: 2
Fore
SplineSet
115 337 m 1,0,-1
 115 453 l 1,1,-1
 1011.79980469 453 l 1,2,-1
 1011.79980469 0 l 1,3,-1
 900.649414062 0 l 1,4,-1
 900.649414062 337 l 1,5,-1
 115 337 l 1,0,-1
EndSplineSet
Validated: 1
EndChar

StartChar: uni00AD
Encoding: 111 173 113
Width: 521
GlyphClass: 2
Flags: W
LayerCount: 2
Fore
SplineSet
115 368 m 1,0,-1
 115 468 l 1,1,-1
 521.600585938 468 l 1,2,-1
 521.600585938 368 l 1,3,-1
 115 368 l 1,0,-1
EndSplineSet
Validated: 1
EndChar

StartChar: registered
Encoding: 112 174 114
Width: 1176
GlyphClass: 2
Flags: W
LayerCount: 2
Fore
SplineSet
115 539 m 0,0,1
 115 654 115 654 156.80078125 756 c 128,-1,2
 198.600585938 858 198.600585938 858 270.325195312 934 c 128,-1,3
 342.05078125 1010 342.05078125 1010 438.475585938 1054 c 128,-1,4
 534.900390625 1098 534.900390625 1098 645.100585938 1098 c 0,5,6
 754.350585938 1098 754.350585938 1098 851.25 1054 c 128,-1,7
 948.150390625 1010 948.150390625 1010 1020.35058594 934 c 128,-1,8
 1092.55078125 858 1092.55078125 858 1134.35058594 756 c 128,-1,9
 1176.15039062 654 1176.15039062 654 1176.15039062 539 c 0,10,11
 1176.15039062 462 1176.15039062 462 1157.15039062 391 c 128,-1,12
 1138.15039062 320 1138.15039062 320 1103.47558594 258 c 128,-1,13
 1068.80078125 196 1068.80078125 196 1020.35058594 145 c 128,-1,14
 971.900390625 94 971.900390625 94 913 58 c 128,-1,15
 854.100585938 22 854.100585938 22 786.17578125 2 c 128,-1,16
 718.25 -18 718.25 -18 645.100585938 -18 c 0,17,18
 534.900390625 -18 534.900390625 -18 438.475585938 25.5 c 128,-1,19
 342.05078125 69 342.05078125 69 270.325195312 145 c 128,-1,20
 198.600585938 221 198.600585938 221 156.80078125 322 c 128,-1,21
 115 423 115 423 115 539 c 0,0,1
171.05078125 539 m 0,22,23
 171.05078125 435 171.05078125 435 208.100585938 344 c 128,-1,24
 245.150390625 253 245.150390625 253 309.275390625 185.5 c 128,-1,25
 373.400390625 118 373.400390625 118 459.850585938 79 c 128,-1,26
 546.30078125 40 546.30078125 40 645.100585938 40 c 0,27,28
 742.950195312 40 742.950195312 40 829.875 79 c 128,-1,29
 916.80078125 118 916.80078125 118 981.400390625 185.5 c 128,-1,30
 1046 253 1046 253 1083.52539062 344 c 128,-1,31
 1121.05078125 435 1121.05078125 435 1121.05078125 539 c 0,32,33
 1121.05078125 642 1121.05078125 642 1083.52539062 733.5 c 128,-1,34
 1046 825 1046 825 981.400390625 893 c 128,-1,35
 916.80078125 961 916.80078125 961 829.875 1000.5 c 128,-1,36
 742.950195312 1040 742.950195312 1040 645.100585938 1040 c 0,37,38
 546.30078125 1040 546.30078125 1040 459.850585938 1000.5 c 128,-1,39
 373.400390625 961 373.400390625 961 309.275390625 893 c 128,-1,40
 245.150390625 825 245.150390625 825 208.100585938 733.5 c 128,-1,41
 171.05078125 642 171.05078125 642 171.05078125 539 c 0,22,23
409.5 210 m 1,42,-1
 409.5 867 l 1,43,-1
 583.350585938 867 l 2,44,45
 664.100585938 867 664.100585938 867 720.150390625 852.5 c 128,-1,46
 776.200195312 838 776.200195312 838 810.875 810.5 c 128,-1,47
 845.55078125 783 845.55078125 783 860.75 742.5 c 128,-1,48
 875.950195312 702 875.950195312 702 875.950195312 651 c 0,49,50
 875.950195312 566 875.950195312 566 829.875 514.5 c 128,-1,51
 783.80078125 463 783.80078125 463 693.55078125 449 c 1,52,-1
 880.700195312 210 l 1,53,-1
 771.450195312 210 l 1,54,-1
 529.200195312 521 l 1,55,56
 601.400390625 521 601.400390625 521 651.75 525.5 c 128,-1,57
 702.100585938 530 702.100585938 530 732.5 544.5 c 128,-1,58
 762.900390625 559 762.900390625 559 776.67578125 585 c 128,-1,59
 790.450195312 611 790.450195312 611 790.450195312 654 c 0,60,61
 790.450195312 729 790.450195312 729 739.150390625 757 c 128,-1,62
 687.850585938 785 687.850585938 785 578.600585938 785 c 2,63,-1
 495 785 l 1,64,-1
 495 210 l 1,65,-1
 409.5 210 l 1,42,-1
EndSplineSet
Validated: 1
EndChar

StartChar: macron
Encoding: 113 175 115
Width: 620
GlyphClass: 2
Flags: W
LayerCount: 2
Fore
SplineSet
115 1008 m 1,0,-1
 115 1109 l 1,1,-1
 620.399414062 1109 l 1,2,-1
 620.399414062 1008 l 1,3,-1
 115 1008 l 1,0,-1
EndSplineSet
Validated: 1
EndChar

StartChar: degree
Encoding: 114 176 116
Width: 565
GlyphClass: 2
Flags: W
LayerCount: 2
Fore
SplineSet
115 929 m 0,0,1
 115 979 115 979 133.049804688 1023 c 128,-1,2
 151.100585938 1067 151.100585938 1067 181.975585938 1099.5 c 128,-1,3
 212.850585938 1132 212.850585938 1132 255.125 1150.5 c 128,-1,4
 297.400390625 1169 297.400390625 1169 345.850585938 1169 c 0,5,6
 392.400390625 1169 392.400390625 1169 432.299804688 1150.5 c 128,-1,7
 472.200195312 1132 472.200195312 1132 501.650390625 1099.5 c 128,-1,8
 531.100585938 1067 531.100585938 1067 548.200195312 1023 c 128,-1,9
 565.299804688 979 565.299804688 979 565.299804688 928 c 256,10,11
 565.299804688 877 565.299804688 877 547.725585938 833 c 128,-1,12
 530.150390625 789 530.150390625 789 499.75 756 c 128,-1,13
 469.350585938 723 469.350585938 723 428.5 704.5 c 128,-1,14
 387.650390625 686 387.650390625 686 340.150390625 686 c 256,15,16
 292.650390625 686 292.650390625 686 251.799804688 705 c 128,-1,17
 210.950195312 724 210.950195312 724 180.549804688 756.5 c 128,-1,18
 150.150390625 789 150.150390625 789 132.575195312 833.5 c 128,-1,19
 115 878 115 878 115 929 c 0,0,1
198.600585938 928 m 0,20,21
 198.600585938 896 198.600585938 896 210 868.5 c 128,-1,22
 221.400390625 841 221.400390625 841 240.400390625 820.5 c 128,-1,23
 259.400390625 800 259.400390625 800 285.525390625 788 c 128,-1,24
 311.650390625 776 311.650390625 776 340.150390625 776 c 0,25,26
 369.600585938 776 369.600585938 776 394.775390625 787.5 c 128,-1,27
 419.950195312 799 419.950195312 799 438.950195312 819.5 c 128,-1,28
 457.950195312 840 457.950195312 840 468.875 868 c 128,-1,29
 479.799804688 896 479.799804688 896 479.799804688 928 c 0,30,31
 479.799804688 959 479.799804688 959 468.875 986.5 c 128,-1,32
 457.950195312 1014 457.950195312 1014 439.424804688 1034.5 c 128,-1,33
 420.900390625 1055 420.900390625 1055 396.200195312 1067 c 128,-1,34
 371.5 1079 371.5 1079 343 1079 c 0,35,36
 312.600585938 1079 312.600585938 1079 286.475585938 1067 c 128,-1,37
 260.350585938 1055 260.350585938 1055 240.875 1034.5 c 128,-1,38
 221.400390625 1014 221.400390625 1014 210 986.5 c 128,-1,39
 198.600585938 959 198.600585938 959 198.600585938 928 c 0,20,21
EndSplineSet
Validated: 1
EndChar

StartChar: plusminus
Encoding: 115 177 117
Width: 955
GlyphClass: 2
Flags: W
LayerCount: 2
Fore
SplineSet
115 -173 m 1,0,-1
 955.75 -173 l 1,1,-1
 955.75 -290 l 1,2,-1
 115 -290 l 1,3,-1
 115 -173 l 1,0,-1
115 337 m 1,4,-1
 115 453 l 1,5,-1
 479.799804688 453 l 1,6,-1
 479.799804688 837 l 1,7,-1
 590.950195312 837 l 1,8,-1
 590.950195312 453 l 1,9,-1
 955.75 453 l 1,10,-1
 955.75 337 l 1,11,-1
 590.950195312 337 l 1,12,-1
 590.950195312 -46 l 1,13,-1
 479.799804688 -46 l 1,14,-1
 479.799804688 337 l 1,15,-1
 115 337 l 1,4,-1
EndSplineSet
Validated: 1
EndChar

StartChar: uni00B2
Encoding: 116 178 118
Width: 577
GlyphClass: 2
Flags: W
LayerCount: 2
Fore
SplineSet
115 455 m 1,0,-1
 115 536 l 1,1,-1
 360.100585938 773 l 2,2,3
 400.950195312 813 400.950195312 813 425.650390625 838.5 c 128,-1,4
 450.350585938 864 450.350585938 864 463.650390625 883.5 c 128,-1,5
 476.950195312 903 476.950195312 903 481.225585938 920.5 c 128,-1,6
 485.5 938 485.5 938 485.5 961 c 0,7,8
 485.5 988 485.5 988 474.575195312 1012 c 128,-1,9
 463.650390625 1036 463.650390625 1036 445.125 1054 c 128,-1,10
 426.600585938 1072 426.600585938 1072 401.900390625 1082.5 c 128,-1,11
 377.200195312 1093 377.200195312 1093 348.700195312 1093 c 0,12,13
 319.25 1093 319.25 1093 294.075195312 1082.5 c 128,-1,14
 268.900390625 1072 268.900390625 1072 250.375 1051.5 c 128,-1,15
 231.850585938 1031 231.850585938 1031 221.400390625 1000 c 128,-1,16
 210.950195312 969 210.950195312 969 210.950195312 929 c 2,17,-1
 210.950195312 921 l 1,18,-1
 120.700195312 921 l 1,19,20
 122.600585938 1046 122.600585938 1046 184.350585938 1113 c 128,-1,21
 246.100585938 1180 246.100585938 1180 353.450195312 1180 c 0,22,23
 400 1180 400 1180 440.850585938 1162.5 c 128,-1,24
 481.700195312 1145 481.700195312 1145 512.100585938 1115 c 128,-1,25
 542.5 1085 542.5 1085 560.075195312 1044.5 c 128,-1,26
 577.650390625 1004 577.650390625 1004 577.650390625 958 c 0,27,28
 577.650390625 930 577.650390625 930 570.525390625 904 c 128,-1,29
 563.400390625 878 563.400390625 878 548.200195312 851.5 c 128,-1,30
 533 825 533 825 508.299804688 796 c 128,-1,31
 483.600585938 767 483.600585938 767 448.450195312 733 c 2,32,-1
 248.950195312 542 l 1,33,-1
 573.850585938 542 l 1,34,-1
 573.850585938 455 l 1,35,-1
 115 455 l 1,0,-1
EndSplineSet
Validated: 1
EndChar

StartChar: uni00B3
Encoding: 117 179 119
Width: 573
GlyphClass: 2
Flags: W
LayerCount: 2
Fore
SplineSet
115 694 m 1,0,-1
 206.200195312 694 l 1,1,2
 208.099609375 649 208.099609375 649 219.974609375 617.5 c 128,-1,3
 231.849609375 586 231.849609375 586 250.375 566.5 c 128,-1,4
 268.899414062 547 268.899414062 547 293.125 538 c 128,-1,5
 317.349609375 529 317.349609375 529 343 529 c 0,6,7
 371.5 529 371.5 529 396.674804688 540.5 c 128,-1,8
 421.849609375 552 421.849609375 552 440.849609375 572 c 128,-1,9
 459.849609375 592 459.849609375 592 471.25 617.5 c 128,-1,10
 482.649414062 643 482.649414062 643 482.649414062 672 c 0,11,12
 482.649414062 750 482.649414062 750 430.399414062 783.5 c 128,-1,13
 378.149414062 817 378.149414062 817 286.950195312 817 c 1,14,-1
 286.950195312 902 l 1,15,-1
 318.299804688 901 l 2,16,17
 374.349609375 898 374.349609375 898 406.649414062 925.5 c 128,-1,18
 438.950195312 953 438.950195312 953 438.950195312 997 c 0,19,20
 438.950195312 1039 438.950195312 1039 411.875 1066 c 128,-1,21
 384.799804688 1093 384.799804688 1093 343.950195312 1093 c 0,22,23
 301.200195312 1093 301.200195312 1093 276.024414062 1062.5 c 128,-1,24
 250.849609375 1032 250.849609375 1032 250.849609375 972 c 1,25,-1
 159.649414062 972 l 1,26,27
 160.599609375 1019 160.599609375 1019 173.899414062 1057.5 c 128,-1,28
 187.200195312 1096 187.200195312 1096 211.424804688 1123 c 128,-1,29
 235.649414062 1150 235.649414062 1150 269.849609375 1165 c 128,-1,30
 304.049804688 1180 304.049804688 1180 345.849609375 1180 c 0,31,32
 384.799804688 1180 384.799804688 1180 418.524414062 1165.5 c 128,-1,33
 452.25 1151 452.25 1151 476.950195312 1125.5 c 128,-1,34
 501.649414062 1100 501.649414062 1100 515.899414062 1066 c 128,-1,35
 530.149414062 1032 530.149414062 1032 530.149414062 992 c 256,36,37
 530.149414062 952 530.149414062 952 516.849609375 924 c 128,-1,38
 503.549804688 896 503.549804688 896 468.399414062 863 c 1,39,40
 522.549804688 828 522.549804688 828 548.200195312 780.5 c 128,-1,41
 573.849609375 733 573.849609375 733 573.849609375 675 c 0,42,43
 573.849609375 627 573.849609375 627 555.325195312 585 c 128,-1,44
 536.799804688 543 536.799804688 543 505.450195312 511 c 128,-1,45
 474.099609375 479 474.099609375 479 432.299804688 460.5 c 128,-1,46
 390.5 442 390.5 442 343.950195312 442 c 0,47,48
 296.450195312 442 296.450195312 442 256.075195312 458.5 c 128,-1,49
 215.700195312 475 215.700195312 475 184.825195312 507 c 128,-1,50
 153.950195312 539 153.950195312 539 135.899414062 586 c 128,-1,51
 117.849609375 633 117.849609375 633 115 694 c 1,0,-1
EndSplineSet
Validated: 33
EndChar

StartChar: acute
Encoding: 118 180 120
Width: 456
GlyphClass: 2
Flags: W
LayerCount: 2
Fore
SplineSet
115 1027 m 1,0,-1
 404.75 1210 l 1,1,-1
 456.049804688 1119 l 1,2,-1
 166.299804688 939 l 1,3,-1
 115 1027 l 1,0,-1
EndSplineSet
Validated: 1
EndChar

StartChar: uni00B5
Encoding: 119 181 121
Width: 837
GlyphClass: 2
Flags: W
LayerCount: 2
Fore
SplineSet
115 -269 m 1,0,-1
 115 864 l 1,1,-1
 225.200195312 864 l 1,2,-1
 225.200195312 425 l 1,3,4
 235.650390625 360 235.650390625 360 255.125 302 c 128,-1,5
 274.599609375 244 274.599609375 244 305.474609375 200.5 c 128,-1,6
 336.349609375 157 336.349609375 157 378.150390625 132 c 128,-1,7
 419.950195312 107 419.950195312 107 476 107 c 256,8,9
 532.049804688 107 532.049804688 107 574.325195312 132 c 128,-1,10
 616.599609375 157 616.599609375 157 647.474609375 200.5 c 128,-1,11
 678.349609375 244 678.349609375 244 697.349609375 302 c 128,-1,12
 716.349609375 360 716.349609375 360 726.799804688 425 c 1,13,-1
 726.799804688 864 l 1,14,-1
 837.950195312 864 l 1,15,-1
 837.950195312 0 l 1,16,-1
 726.799804688 0 l 1,17,-1
 726.799804688 145 l 1,18,19
 684.049804688 75 684.049804688 75 621.825195312 33.5 c 128,-1,20
 559.599609375 -8 559.599609375 -8 476 -8 c 256,21,22
 392.400390625 -8 392.400390625 -8 330.650390625 33.5 c 128,-1,23
 268.900390625 75 268.900390625 75 225.200195312 145 c 1,24,-1
 225.200195312 -269 l 1,25,-1
 115 -269 l 1,0,-1
EndSplineSet
Validated: 1
EndChar

StartChar: paragraph
Encoding: 120 182 122
Width: 833
GlyphClass: 2
Flags: W
LayerCount: 2
Fore
SplineSet
115 867 m 0,0,1
 115 932 115 932 137 987.5 c 128,-1,2
 159 1043 159 1043 203 1083 c 128,-1,3
 247 1123 247 1123 313 1145.5 c 128,-1,4
 379 1168 379 1168 468 1168 c 2,5,-1
 833 1168 l 1,6,-1
 833 -209 l 1,7,-1
 714 -209 l 1,8,-1
 714 1062 l 1,9,-1
 534 1062 l 1,10,-1
 534 -209 l 1,11,-1
 416 -209 l 1,12,-1
 416 561 l 1,13,14
 346 568 346 568 290 593 c 128,-1,15
 234 618 234 618 195 657.5 c 128,-1,16
 156 697 156 697 135.5 750 c 128,-1,17
 115 803 115 803 115 867 c 0,0,1
EndSplineSet
Validated: 1
EndChar

StartChar: periodcentered
Encoding: 121 183 123
Width: 243
GlyphClass: 2
Flags: W
HStem: 363 243
VStem: 88 240
LayerCount: 2
Fore
SplineSet
154 447 m 0,0,1
 242 447 242 447 242 358 c 0,2,3
 242 315 242 315 219.5 291.5 c 128,-1,4
 197 268 197 268 154 268 c 128,-1,5
 111 268 111 268 88 291.5 c 128,-1,6
 65 315 65 315 65 357 c 0,7,8
 65 400 65 400 88 423.5 c 128,-1,9
 111 447 111 447 154 447 c 0,0,1
EndSplineSet
Validated: 1
EndChar

StartChar: cedilla
Encoding: 122 184 124
Width: 313
GlyphClass: 2
Flags: W
HStem: -303 80
VStem: 280 138
LayerCount: 2
Fore
SplineSet
308 -129 m 0,0,1
 308 -174 308 -174 269 -198 c 1,2,3
 231 -223 231 -223 195 -223 c 0,4,5
 131 -223 131 -223 93.5 -202.5 c 128,-1,6
 56 -182 56 -182 56 -142 c 0,7,8
 56 -132 56 -132 59 -123 c 1,9,-1
 108 -133 l 1,10,11
 105 -163 105 -163 159 -164 c 0,12,13
 189 -165 189 -165 202.5 -134 c 128,-1,14
 216 -103 216 -103 192 -89 c 0,15,16
 179 -81 179 -81 159 -76 c 128,-1,17
 139 -71 139 -71 114.5 -67.5 c 128,-1,18
 90 -64 90 -64 86 -63 c 1,19,-1
 158 35 l 1,20,-1
 220 30 l 1,21,-1
 186 -39 l 1,22,23
 308 -60 308 -60 308 -129 c 0,0,1
EndSplineSet
Validated: 1
EndChar

StartChar: uni00B9
Encoding: 123 185 125
Width: 201
GlyphClass: 2
Flags: W
HStem: 688 594 1113 168
VStem: 150 117
LayerCount: 2
Fore
SplineSet
89 820 m 0,0,1
 73 820 73 820 73 846 c 2,2,-1
 73 907 l 1,3,-1
 131 944 l 1,4,-1
 198 945 l 1,5,-1
 198 507 l 1,6,-1
 111 507 l 1,7,-1
 111 832 l 1,8,9
 98 820 98 820 89 820 c 0,0,1
EndSplineSet
Validated: 1
EndChar

StartChar: ordmasculine
Encoding: 124 186 126
Width: 316
GlyphClass: 2
Flags: W
HStem: 760 104 1173 103
VStem: 97 116 312 116
LayerCount: 2
Fore
SplineSet
316 854 m 2,0,-1
 316 647 l 2,1,2
 316 610 316 610 286 585 c 0,3,4
 257 560 257 560 218 560 c 2,5,-1
 171 560 l 2,6,7
 132 560 132 560 111 578 c 0,8,9
 72 610 72 610 72 647 c 2,10,-1
 72 854 l 2,11,12
 72 890 72 890 102 916 c 0,13,14
 131 941 131 941 171 941 c 2,15,-1
 218 941 l 2,16,17
 255 941 255 941 286 915 c 0,18,19
 316 889 316 889 316 854 c 2,0,-1
175 637 m 2,20,-1
 210 637 l 2,21,22
 230 637 230 637 230 659 c 2,23,-1
 230 842 l 2,24,25
 230 865 230 865 210 865 c 2,26,-1
 175 865 l 2,27,28
 157 865 157 865 157 842 c 2,29,-1
 157 659 l 2,30,31
 157 637 157 637 175 637 c 2,20,-1
EndSplineSet
Validated: 1
EndChar

StartChar: guillemotright
Encoding: 125 187 127
Width: 564
GlyphClass: 2
Flags: W
HStem: 1 20G
VStem: 97 664
LayerCount: 2
Fore
SplineSet
271 720 m 1,0,-1
 347 720 l 1,1,-1
 561 360 l 1,2,-1
 347 0 l 1,3,-1
 271 0 l 1,4,-1
 403 360 l 1,5,-1
 271 720 l 1,0,-1
72 720 m 1,6,-1
 148 720 l 1,7,-1
 362 360 l 1,8,-1
 148 0 l 1,9,-1
 72 0 l 1,10,-1
 204 360 l 1,11,-1
 72 720 l 1,6,-1
EndSplineSet
Validated: 1
EndChar

StartChar: onequarter
Encoding: 126 188 128
Width: 608
GlyphClass: 2
Flags: W
HStem: 1 20G 100 109 963 168
VStem: 150 117 658 114
LayerCount: 2
Fore
SplineSet
89 710 m 0,0,1
 73 710 73 710 73 735 c 2,2,-1
 73 796 l 1,3,-1
 131 834 l 1,4,-1
 198 835 l 1,5,-1
 198 397 l 1,6,-1
 111 397 l 1,7,-1
 111 721 l 1,8,9
 97 710 97 710 89 710 c 0,0,1
569 154 m 1,10,-1
 606 154 l 1,11,-1
 606 74 l 1,12,-1
 569 74 l 1,13,-1
 569 0 l 1,14,-1
 487 0 l 1,15,-1
 487 74 l 1,16,-1
 328 74 l 2,17,18
 316 74 316 74 306.5 82.5 c 128,-1,19
 297 91 297 91 297 102 c 0,20,21
 297 119 297 119 335 192 c 0,22,23
 345 211 345 211 464 427 c 1,24,-1
 467 427 l 1,25,26
 476 438 476 438 489 438 c 2,27,-1
 540 438 l 2,28,29
 553 438 553 438 561 429.5 c 128,-1,30
 569 421 569 421 569 408 c 2,31,-1
 569 154 l 1,10,-1
96 46 m 1,32,-1
 449 717 l 1,33,-1
 520 675 l 1,34,-1
 167 5 l 1,35,-1
 96 46 l 1,32,-1
484 310 m 1,36,-1
 414 154 l 1,37,-1
 486 154 l 1,38,-1
 484 310 l 1,36,-1
EndSplineSet
Validated: 1
EndChar

StartChar: onehalf
Encoding: 127 189 129
Width: 647
GlyphClass: 2
Flags: W
HStem: 0 107 487 105 963 168
VStem: 150 117 505 119 505 125 753 123
LayerCount: 2
Fore
SplineSet
89 710 m 0,0,1
 73 710 73 710 73 735 c 2,2,-1
 73 796 l 1,3,-1
 131 834 l 1,4,-1
 198 835 l 1,5,-1
 198 397 l 1,6,-1
 111 397 l 1,7,-1
 111 721 l 1,8,9
 97 710 97 710 89 710 c 0,0,1
529 359 m 2,10,-1
 483 359 l 2,11,12
 462 359 462 359 460 335 c 1,13,-1
 372 335 l 1,14,15
 374 381 374 381 398 408.5 c 128,-1,16
 422 436 422 436 467 436 c 2,17,-1
 552 436 l 2,18,19
 594 436 594 436 620 409.5 c 128,-1,20
 646 383 646 383 646 342 c 2,21,-1
 646 252 l 2,22,23
 646 154 646 154 511 132 c 0,24,25
 493 129 493 129 480 113.5 c 128,-1,26
 467 98 467 98 464 78 c 1,27,-1
 636 78 l 1,28,-1
 636 0 l 1,29,-1
 372 0 l 1,30,-1
 372 91 l 2,31,32
 372 144 372 144 416 176 c 0,33,34
 461 210 461 210 499 216 c 0,35,36
 539.5 222 539.5 222 547 234 c 0,37,38
 555 248 555 248 555 254 c 2,39,-1
 555 332 l 2,40,41
 555 359 555 359 529 359 c 2,10,-1
74 46 m 1,42,-1
 427 717 l 1,43,-1
 498 675 l 1,44,-1
 145 5 l 1,45,-1
 74 46 l 1,42,-1
EndSplineSet
Validated: 1
EndChar

StartChar: threequarters
Encoding: 128 190 130
Width: 705
GlyphClass: 2
Flags: W
HStem: 1 20G 100 109 534 111 789 116 1025 108
VStem: 95 127 359 123 788 114
LayerCount: 2
Fore
SplineSet
249 756 m 2,0,-1
 176 756 l 2,1,2
 163 756 163 756 163 731 c 1,3,-1
 70 731 l 1,4,5
 73 804 73 804 124 827 c 0,6,7
 140 835 140 835 164 835 c 2,8,-1
 269 835 l 2,9,10
 307 835 307 835 331 810 c 128,-1,11
 355 785 355 785 355 747 c 2,12,-1
 355 663 l 2,13,14
 355 655 355 655 352 649 c 128,-1,15
 349 643 349 643 343.5 637 c 128,-1,16
 338 631 338 631 335 626 c 1,17,-1
 341 616 l 1,18,19
 355 603 355 603 355 588 c 2,20,-1
 355 486 l 2,21,22
 355 446 355 446 330 420 c 128,-1,23
 305 394 305 394 265 394 c 2,24,-1
 161 394 l 2,25,26
 70 394 70 394 70 499 c 1,27,-1
 164 499 l 1,28,29
 164 493 164 493 163.5 487.5 c 128,-1,30
 163 482 163 482 166 478.5 c 128,-1,31
 169 475 169 475 176 475 c 2,32,-1
 249 475 l 2,33,34
 265 475 265 475 265 490 c 2,35,-1
 265 566 l 2,36,37
 265 582 265 582 254 582 c 2,38,-1
 142 582 l 1,39,-1
 142 667 l 1,40,-1
 254 667 l 2,41,42
 265 667 265 667 265 682 c 2,43,-1
 265 739 l 2,44,45
 265 756 265 756 249 756 c 2,0,-1
665 154 m 1,46,-1
 702 154 l 1,47,-1
 702 74 l 1,48,-1
 665 74 l 1,49,-1
 665 0 l 1,50,-1
 583 0 l 1,51,-1
 582 74 l 1,52,-1
 424 74 l 2,53,54
 410 74 410 74 402 83 c 1,55,56
 393 91 393 91 393.5 101.5 c 128,-1,57
 394 112 394 112 404 136 c 0,58,59
 432 197 432 197 467 261 c 2,60,-1
 506 331 l 1,61,-1
 560 427 l 1,62,-1
 562 427 l 1,63,64
 571 438 571 438 585 438 c 2,65,-1
 635 438 l 2,66,67
 648 438 648 438 656.5 429.5 c 128,-1,68
 665 421 665 421 665 408 c 2,69,-1
 665 154 l 1,46,-1
192 46 m 1,70,-1
 545 717 l 1,71,-1
 616 675 l 1,72,-1
 263 5 l 1,73,-1
 192 46 l 1,70,-1
580 310 m 1,74,-1
 509 154 l 1,75,-1
 582 154 l 1,76,-1
 580 310 l 1,74,-1
EndSplineSet
Validated: 1
EndChar

StartChar: questiondown
Encoding: 129 191 131
Width: 512
GlyphClass: 2
Flags: W
HStem: -25 133 890 243
VStem: 97 167 329 240 527 167
LayerCount: 2
Fore
SplineSet
419 745 m 128,-1,1
 419 703 419 703 395.5 679.5 c 128,-1,2
 372 656 372 656 330 656 c 128,-1,3
 288 656 288 656 265.5 679.5 c 128,-1,4
 243 703 243 703 243 745 c 0,5,6
 243 788 243 788 265.5 811.5 c 128,-1,7
 288 835 288 835 330 835 c 128,-1,8
 372 835 372 835 395.5 811 c 128,-1,0
 419 787 419 787 419 745 c 128,-1,1
265 79 m 2,9,-1
 320 79 l 2,10,11
 389 79 389 79 389 165 c 2,12,-1
 389 208 l 1,13,-1
 512 208 l 1,14,-1
 512 138 l 2,15,16
 512 68 512 68 456 24 c 1,17,18
 398 -18 398 -18 329 -18 c 2,19,-1
 250 -18 l 2,20,21
 175 -18 175 -18 124 24 c 0,22,23
 72 66 72 66 72 138 c 2,24,-1
 72 219 l 2,25,26
 72 304 72 304 125 360 c 0,27,28
 141 377 141 377 176 405.5 c 128,-1,29
 211 434 211 434 226 450 c 0,30,31
 280 507 280 507 280 583 c 0,32,33
 280 599.5 280 599.5 277 616 c 1,34,-1
 393 616 l 1,35,36
 403 513 403 513 381 470 c 1,37,38
 355 416 355 416 296 374 c 1,39,40
 195 306 195 306 195 207 c 2,41,-1
 195 154 l 2,42,43
 195 121 195 121 214 100 c 128,-1,44
 233 79 233 79 265 79 c 2,9,-1
EndSplineSet
Validated: 33
EndChar

StartChar: Agrave
Encoding: 130 192 132
Width: 619
GlyphClass: 2
Flags: W
HStem: 0 56 293 86 929 15 1036 165
VStem: 74 197 89 999
LayerCount: 2
Fore
SplineSet
71 1165 m 1,0,-1
 211 1165 l 1,1,-1
 263 1005 l 1,2,-1
 204 1005 l 1,3,-1
 71 1165 l 1,0,-1
610 0 m 1,4,-1
 610 49 l 1,5,6
 612 49 612 49 626.5 48.5 c 128,-1,7
 641 48 641 48 650 48.5 c 128,-1,8
 659 49 659 49 671.5 51 c 128,-1,9
 684 53 684 53 690.5 59.5 c 128,-1,10
 697 66 697 66 697 76 c 0,11,12
 697 87 697 87 692 105.5 c 128,-1,13
 687 124 687 124 677 147 c 128,-1,14
 667 170 667 170 659.5 187.5 c 128,-1,15
 652 205 652 205 641 228 c 128,-1,16
 630 251 630 251 628 255 c 1,17,-1
 327 255 l 1,18,-1
 274 125 l 2,19,20
 264 101 264 101 264 85 c 0,21,22
 264 48 264 48 341.752 48.9756 c 0,23,24
 345 49 345 49 347 49 c 1,25,-1
 347 0 l 1,26,-1
 78 0 l 1,27,-1
 78 49 l 1,28,29
 104 49 104 49 123 57 c 128,-1,30
 142 65 142 65 156.5 83.5 c 128,-1,31
 171 102 171 102 178 116 c 128,-1,32
 185 130 185 130 198 160 c 2,33,-1
 488 824 l 1,34,-1
 530 824 l 1,35,-1
 838 144 l 1,36,37
 874 72 874 72 895 60 c 1,38,39
 908 51 908 51 949 48 c 1,40,-1
 949 0 l 1,41,-1
 610 0 l 1,4,-1
478 609 m 1,42,-1
 358 331 l 1,43,-1
 599 331 l 1,44,-1
 478 609 l 1,42,-1
EndSplineSet
Validated: 33
EndChar

StartChar: Aacute
Encoding: 131 193 133
Width: 619
GlyphClass: 2
Flags: W
HStem: 0 56 293 86 929 15 1039 165
VStem: 89 999 429 198
LayerCount: 2
Fore
SplineSet
416 1008 m 1,0,-1
 468 1167 l 1,1,-1
 608 1167 l 1,2,-1
 476 1008 l 1,3,-1
 416 1008 l 1,0,-1
610 0 m 1,4,-1
 610 49 l 1,5,6
 612 49 612 49 626.5 48.5 c 128,-1,7
 641 48 641 48 650 48.5 c 128,-1,8
 659 49 659 49 671.5 51 c 128,-1,9
 684 53 684 53 690.5 59.5 c 128,-1,10
 697 66 697 66 697 76 c 0,11,12
 697 87 697 87 692 105.5 c 128,-1,13
 687 124 687 124 677 147 c 128,-1,14
 667 170 667 170 659.5 187.5 c 128,-1,15
 652 205 652 205 641 228 c 128,-1,16
 630 251 630 251 628 255 c 1,17,-1
 327 255 l 1,18,-1
 274 125 l 2,19,20
 264 101 264 101 264 85 c 0,21,22
 264 48 264 48 341.752 48.9756 c 0,23,24
 345 49 345 49 347 49 c 1,25,-1
 347 0 l 1,26,-1
 78 0 l 1,27,-1
 78 49 l 1,28,29
 104 49 104 49 123 57 c 128,-1,30
 142 65 142 65 156.5 83.5 c 128,-1,31
 171 102 171 102 178 116 c 128,-1,32
 185 130 185 130 198 160 c 2,33,-1
 488 824 l 1,34,-1
 530 824 l 1,35,-1
 838 144 l 1,36,37
 874 72 874 72 895 60 c 1,38,39
 908 51 908 51 949 48 c 1,40,-1
 949 0 l 1,41,-1
 610 0 l 1,4,-1
478 609 m 1,42,-1
 358 331 l 1,43,-1
 599 331 l 1,44,-1
 478 609 l 1,42,-1
EndSplineSet
Validated: 33
EndChar

StartChar: Acircumflex
Encoding: 132 194 134
Width: 619
GlyphClass: 2
Flags: W
HStem: 0 56 293 86 929 15 1038 160
VStem: 89 999 172 339
LayerCount: 2
Fore
SplineSet
280 1162 m 1,0,-1
 389 1162 l 1,1,-1
 496 1007 l 1,2,-1
 420 1007 l 1,3,-1
 334 1078 l 1,4,-1
 251 1007 l 1,5,-1
 166 1007 l 1,6,-1
 280 1162 l 1,0,-1
610 0 m 1,7,-1
 610 49 l 1,8,9
 612 49 612 49 626.5 48.5 c 128,-1,10
 641 48 641 48 650 48.5 c 128,-1,11
 659 49 659 49 671.5 51 c 128,-1,12
 684 53 684 53 690.5 59.5 c 128,-1,13
 697 66 697 66 697 76 c 0,14,15
 697 87 697 87 692 105.5 c 128,-1,16
 687 124 687 124 677 147 c 128,-1,17
 667 170 667 170 659.5 187.5 c 128,-1,18
 652 205 652 205 641 228 c 128,-1,19
 630 251 630 251 628 255 c 1,20,-1
 327 255 l 1,21,-1
 274 125 l 2,22,23
 264 101 264 101 264 85 c 0,24,25
 264 48 264 48 341.752 48.9756 c 0,26,27
 345 49 345 49 347 49 c 1,28,-1
 347 0 l 1,29,-1
 78 0 l 1,30,-1
 78 49 l 1,31,32
 104 49 104 49 123 57 c 128,-1,33
 142 65 142 65 156.5 83.5 c 128,-1,34
 171 102 171 102 178 116 c 128,-1,35
 185 130 185 130 198 160 c 2,36,-1
 488 824 l 1,37,-1
 530 824 l 1,38,-1
 838 144 l 1,39,40
 874 72 874 72 895 60 c 1,41,42
 908 51 908 51 949 48 c 1,43,-1
 949 0 l 1,44,-1
 610 0 l 1,7,-1
478 609 m 1,45,-1
 358 331 l 1,46,-1
 599 331 l 1,47,-1
 478 609 l 1,45,-1
EndSplineSet
Validated: 33
EndChar

StartChar: Atilde
Encoding: 133 195 135
Width: 619
GlyphClass: 2
Flags: W
HStem: 0 56 293 86 929 15 1036 89 1095 93
VStem: 89 999 160 402
LayerCount: 2
Fore
SplineSet
423 1091 m 0,0,1
 485 1091 485 1091 517 1138 c 1,2,-1
 546 1107 l 1,3,4
 519 1005 519 1005 401 1005 c 0,5,6
 378 1005 378 1005 353 1024 c 0,7,8
 332 1041 332 1041 311 1053 c 1,9,10
 298 1062 298 1062 273 1062 c 0,11,12
 249 1062 249 1062 223 1046.5 c 128,-1,13
 197 1031 197 1031 182 1006 c 1,14,-1
 155 1031 l 1,15,16
 158 1076 158 1076 192 1113 c 0,17,18
 228 1152 228 1152 271 1152 c 2,19,-1
 307 1152 l 2,20,21
 329 1152 329 1152 353 1131 c 0,22,23
 373 1114 373 1114 381.5 1107.5 c 128,-1,24
 390 1101 390 1101 401 1096 c 128,-1,25
 412 1091 412 1091 423 1091 c 0,0,1
610 0 m 1,26,-1
 610 49 l 1,27,28
 612 49 612 49 626.5 48.5 c 128,-1,29
 641 48 641 48 650 48.5 c 128,-1,30
 659 49 659 49 671.5 51 c 128,-1,31
 684 53 684 53 690.5 59.5 c 128,-1,32
 697 66 697 66 697 76 c 0,33,34
 697 87 697 87 692 105.5 c 128,-1,35
 687 124 687 124 677 147 c 128,-1,36
 667 170 667 170 659.5 187.5 c 128,-1,37
 652 205 652 205 641 228 c 128,-1,38
 630 251 630 251 628 255 c 1,39,-1
 327 255 l 1,40,-1
 274 125 l 2,41,42
 264 101 264 101 264 85 c 0,43,44
 264 48 264 48 341.752 48.9756 c 0,45,46
 345 49 345 49 347 49 c 1,47,-1
 347 0 l 1,48,-1
 78 0 l 1,49,-1
 78 49 l 1,50,51
 104 49 104 49 123 57 c 128,-1,52
 142 65 142 65 156.5 83.5 c 128,-1,53
 171 102 171 102 178 116 c 128,-1,54
 185 130 185 130 198 160 c 2,55,-1
 488 824 l 1,56,-1
 530 824 l 1,57,-1
 838 144 l 1,58,59
 874 72 874 72 895 60 c 1,60,61
 908 51 908 51 949 48 c 1,62,-1
 949 0 l 1,63,-1
 610 0 l 1,26,-1
478 609 m 1,64,-1
 358 331 l 1,65,-1
 599 331 l 1,66,-1
 478 609 l 1,64,-1
EndSplineSet
Validated: 33
EndChar

StartChar: Adieresis
Encoding: 134 196 136
Width: 619
GlyphClass: 2
Flags: W
HStem: 0 56 293 86 929 15 1031 127
VStem: 89 999 163 127 391 127
LayerCount: 2
Fore
SplineSet
442 999 m 0,0,1
 407 999 407 999 393 1013.5 c 128,-1,2
 379 1028 379 1028 379 1062 c 128,-1,3
 379 1096 379 1096 393 1109.5 c 128,-1,4
 407 1123 407 1123 442 1123 c 0,5,6
 476 1123 476 1123 489.5 1109 c 128,-1,7
 503 1095 503 1095 503 1061 c 128,-1,8
 503 1027 503 1027 489.5 1013 c 128,-1,9
 476 999 476 999 442 999 c 0,0,1
220 999 m 0,10,11
 186 999 186 999 172 1013.5 c 128,-1,12
 158 1028 158 1028 158 1062 c 128,-1,13
 158 1096 158 1096 172 1109.5 c 128,-1,14
 186 1123 186 1123 220 1123 c 0,15,16
 255 1123 255 1123 268.5 1109 c 128,-1,17
 282 1095 282 1095 282 1061 c 128,-1,18
 282 1027 282 1027 268.5 1013 c 128,-1,19
 255 999 255 999 220 999 c 0,10,11
610 0 m 1,20,-1
 610 49 l 1,21,22
 612 49 612 49 626.5 48.5 c 128,-1,23
 641 48 641 48 650 48.5 c 128,-1,24
 659 49 659 49 671.5 51 c 128,-1,25
 684 53 684 53 690.5 59.5 c 128,-1,26
 697 66 697 66 697 76 c 0,27,28
 697 87 697 87 692 105.5 c 128,-1,29
 687 124 687 124 677 147 c 128,-1,30
 667 170 667 170 659.5 187.5 c 128,-1,31
 652 205 652 205 641 228 c 128,-1,32
 630 251 630 251 628 255 c 1,33,-1
 327 255 l 1,34,-1
 274 125 l 2,35,36
 264 101 264 101 264 85 c 0,37,38
 264 48 264 48 341.752 48.9756 c 0,39,40
 345 49 345 49 347 49 c 1,41,-1
 347 0 l 1,42,-1
 78 0 l 1,43,-1
 78 49 l 1,44,45
 104 49 104 49 123 57 c 128,-1,46
 142 65 142 65 156.5 83.5 c 128,-1,47
 171 102 171 102 178 116 c 128,-1,48
 185 130 185 130 198 160 c 2,49,-1
 488 824 l 1,50,-1
 530 824 l 1,51,-1
 838 144 l 1,52,53
 874 72 874 72 895 60 c 1,54,55
 908 51 908 51 949 48 c 1,56,-1
 949 0 l 1,57,-1
 610 0 l 1,20,-1
478 609 m 1,58,-1
 358 331 l 1,59,-1
 599 331 l 1,60,-1
 478 609 l 1,58,-1
EndSplineSet
Validated: 33
EndChar

StartChar: Aring
Encoding: 135 197 137
Width: 619
GlyphClass: 2
Flags: W
HStem: 0 56 293 86 929 15 1038 31 1180 31
VStem: 89 999 253 30 394 30
LayerCount: 2
Fore
SplineSet
330 1174 m 0,0,1
 411 1174 411 1174 411 1091 c 0,2,3
 411 1007 411 1007 330 1007 c 0,4,5
 290 1007 290 1007 267.5 1029 c 128,-1,6
 245 1051 245 1051 245 1091 c 128,-1,7
 245 1131 245 1131 267.5 1152.5 c 128,-1,8
 290 1174 290 1174 330 1174 c 0,0,1
275 1091 m 128,-1,10
 275 1037 275 1037 328 1037 c 0,11,12
 382 1037 382 1037 382 1091 c 128,-1,13
 382 1145 382 1145 328 1145 c 0,14,9
 275 1145 275 1145 275 1091 c 128,-1,10
610 0 m 1,15,-1
 610 49 l 1,16,17
 612 49 612 49 626.5 48.5 c 128,-1,18
 641 48 641 48 650 48.5 c 128,-1,19
 659 49 659 49 671.5 51 c 128,-1,20
 684 53 684 53 690.5 59.5 c 128,-1,21
 697 66 697 66 697 76 c 0,22,23
 697 87 697 87 692 105.5 c 128,-1,24
 687 124 687 124 677 147 c 128,-1,25
 667 170 667 170 659.5 187.5 c 128,-1,26
 652 205 652 205 641 228 c 128,-1,27
 630 251 630 251 628 255 c 1,28,-1
 327 255 l 1,29,-1
 274 125 l 2,30,31
 264 101 264 101 264 85 c 0,32,33
 264 48 264 48 341.752 48.9756 c 0,34,35
 345 49 345 49 347 49 c 1,36,-1
 347 0 l 1,37,-1
 78 0 l 1,38,-1
 78 49 l 1,39,40
 104 49 104 49 123 57 c 128,-1,41
 142 65 142 65 156.5 83.5 c 128,-1,42
 171 102 171 102 178 116 c 128,-1,43
 185 130 185 130 198 160 c 2,44,-1
 488 824 l 1,45,-1
 530 824 l 1,46,-1
 838 144 l 1,47,48
 874 72 874 72 895 60 c 1,49,50
 908 51 908 51 949 48 c 1,51,-1
 949 0 l 1,52,-1
 610 0 l 1,15,-1
478 609 m 1,53,-1
 358 331 l 1,54,-1
 599 331 l 1,55,-1
 478 609 l 1,53,-1
EndSplineSet
Validated: 33
EndChar

StartChar: AE
Encoding: 136 198 138
Width: 972
GlyphClass: 2
Flags: W
HStem: 0 156 524 154 574 154 1123 158
VStem: 657 182
LayerCount: 2
Fore
SplineSet
552 909 m 1,0,1
 602 944 602 944 664 944 c 2,2,-1
 960 944 l 1,3,-1
 960 828 l 1,4,-1
 673 828 l 2,5,6
 651 828 651 828 635 813.5 c 128,-1,7
 619 799 619 799 619 777 c 2,8,-1
 619 537 l 1,9,-1
 930 537 l 1,10,-1
 930 423 l 1,11,-1
 619 423 l 1,12,-1
 619 115 l 1,13,-1
 967 115 l 1,14,-1
 967 0 l 1,15,-1
 485 0 l 1,16,-1
 485 153 l 1,17,-1
 484 154 l 1,18,-1
 484 386 l 1,19,-1
 250 386 l 1,20,-1
 205 0 l 1,21,-1
 72 0 l 1,22,-1
 160 789 l 2,23,24
 168 856 168 856 220 899 c 1,25,26
 271 944 271 944 340 944 c 2,27,-1
 443 944 l 2,28,29
 504 944 504 944 552 909 c 1,0,1
293 764 m 2,30,-1
 262 500 l 1,31,-1
 484 500 l 1,32,-1
 484 776 l 2,33,34
 484 811 484 811 448 824 c 1,35,36
 440 828 440 828 427 828 c 2,37,-1
 349 828 l 2,38,39
 300 828 300 828 293 764 c 2,30,-1
EndSplineSet
Validated: 1
EndChar

StartChar: Ccedilla
Encoding: 137 199 139
Width: 581
GlyphClass: 2
Flags: W
HStem: -303 80 0 156 1123 158
VStem: 97 181 540 138 608 181
LayerCount: 2
Fore
SplineSet
397 0 m 1,0,-1
 377 -39 l 1,1,2
 500 -60 500 -60 500 -129 c 0,3,4
 500 -173 500 -173 461 -198 c 0,5,6
 423 -223 423 -223 373 -223 c 0,7,8
 326 -223 326 -223 286 -203 c 0,9,10
 248 -184 248 -184 248 -142 c 0,11,12
 248 -129 248 -129 251 -123 c 1,13,-1
 299 -133 l 1,14,15
 296 -162 296 -162 351 -164 c 0,16,17
 381 -165 381 -165 394 -134 c 128,-1,18
 407 -103 407 -103 383 -89 c 0,19,20
 370 -81 370 -81 350.5 -76 c 128,-1,21
 331 -71 331 -71 306.5 -67.5 c 128,-1,22
 282 -64 282 -64 278 -63 c 1,23,-1
 324 0 l 1,24,-1
 251 0 l 2,25,26
 182 0 182 0 127 43 c 1,27,28
 72 88 72 88 72 154 c 2,29,-1
 72 789 l 2,30,31
 72 857 72 857 128 900 c 1,32,33
 182 944 182 944 251 944 c 2,34,-1
 421 944 l 2,35,36
 488 944 488 944 534 899 c 0,37,38
 582 853 582 853 582 789 c 2,39,-1
 582 721 l 1,40,-1
 448 721 l 1,41,-1
 448 756 l 2,42,43
 448 828 448 828 390 828 c 2,44,-1
 260 828 l 2,45,46
 233 828 233 828 219 810.5 c 128,-1,47
 205 793 205 793 205 764 c 2,48,-1
 205 178 l 2,49,50
 205 150 205 150 219 132.5 c 128,-1,51
 233 115 233 115 260 115 c 2,52,-1
 390 115 l 2,53,54
 448 115 448 115 448 181 c 2,55,-1
 448 215 l 1,56,-1
 582 215 l 1,57,-1
 582 154 l 2,58,59
 582 77 582 77 529 38 c 1,60,61
 474 0 474 0 397 0 c 1,0,-1
EndSplineSet
Validated: 1
EndChar

StartChar: Egrave
Encoding: 138 200 140
Width: 570
GlyphClass: 2
Flags: W
HStem: 0 55 0 81 443 87 845 82 869 57 1036 165
VStem: 74 197 192 174 706 62
LayerCount: 2
Fore
SplineSet
71 1165 m 1,0,-1
 211 1165 l 1,1,-1
 263 1005 l 1,2,-1
 204 1005 l 1,3,-1
 71 1165 l 1,0,-1
746 227 m 1,4,-1
 807 227 l 1,5,-1
 745 0 l 1,6,-1
 61 0 l 1,7,-1
 61 48 l 1,8,9
 85 50 85 50 91.5 51 c 128,-1,10
 98 52 98 52 114.5 54.5 c 128,-1,11
 131 57 131 57 135 60.5 c 128,-1,12
 139 64 139 64 148.5 70.5 c 128,-1,13
 158 77 158 77 160 87 c 128,-1,14
 162 97 162 97 164.5 110.5 c 128,-1,15
 167 124 167 124 167 143 c 2,16,-1
 167 667 l 2,17,18
 167 699 167 699 163.5 716.5 c 128,-1,19
 160 734 160 734 143.5 743.5 c 128,-1,20
 127 753 127 753 116.5 754.5 c 128,-1,21
 106 756 106 756 68.5381 759.441 c 0,22,23
 64 760 64 760 61 760 c 1,24,-1
 61 809 l 1,25,-1
 737 809 l 1,26,-1
 741 613 l 1,27,-1
 686 613 l 1,28,29
 668 697 668 697 637.5 717.5 c 128,-1,30
 607 738 607 738 518 738 c 2,31,-1
 347 738 l 2,32,33
 328 738 328 738 324 733.5 c 128,-1,34
 320 729 320 729 320 711 c 2,35,-1
 320 462 l 1,36,-1
 494 462 l 2,37,38
 530 462 530 462 550.5 466.5 c 128,-1,39
 571 471 571 471 584.5 485.5 c 128,-1,40
 598 500 598 500 603.5 518.5 c 128,-1,41
 609 537 609 537 616 574 c 1,42,-1
 670 574 l 1,43,-1
 670 274 l 1,44,-1
 616 274 l 1,45,46
 605 345 605 345 584.5 366 c 128,-1,47
 564 387 564 387 494 387 c 2,48,-1
 320 387 l 1,49,-1
 320 108 l 2,50,51
 320 87 320 87 328 81 c 0,52,53
 340 71 340 71 440 71 c 0,54,55
 478 71 478 71 496 71.5 c 128,-1,56
 514 72 514 72 543.5 73.5 c 128,-1,57
 573 75 573 75 587.5 79 c 128,-1,58
 602 83 602 83 624 90.5 c 128,-1,59
 646 98 646 98 659 109 c 128,-1,60
 672 120 672 120 689 136.5 c 128,-1,61
 706 153 706 153 719 175.5 c 128,-1,62
 732 198 732 198 746 227 c 1,4,-1
EndSplineSet
Validated: 1
EndChar

StartChar: Eacute
Encoding: 139 201 141
Width: 570
GlyphClass: 2
Flags: W
HStem: 0 55 0 81 443 87 845 82 869 57 1039 165
VStem: 192 174 385 197 706 62
LayerCount: 2
Fore
SplineSet
373 1008 m 1,0,-1
 425 1167 l 1,1,-1
 565 1167 l 1,2,-1
 432 1008 l 1,3,-1
 373 1008 l 1,0,-1
746 227 m 1,4,-1
 807 227 l 1,5,-1
 745 0 l 1,6,-1
 61 0 l 1,7,-1
 61 48 l 1,8,9
 85 50 85 50 91.5 51 c 128,-1,10
 98 52 98 52 114.5 54.5 c 128,-1,11
 131 57 131 57 135 60.5 c 128,-1,12
 139 64 139 64 148.5 70.5 c 128,-1,13
 158 77 158 77 160 87 c 128,-1,14
 162 97 162 97 164.5 110.5 c 128,-1,15
 167 124 167 124 167 143 c 2,16,-1
 167 667 l 2,17,18
 167 699 167 699 163.5 716.5 c 128,-1,19
 160 734 160 734 143.5 743.5 c 128,-1,20
 127 753 127 753 116.5 754.5 c 128,-1,21
 106 756 106 756 68.5381 759.441 c 0,22,23
 64 760 64 760 61 760 c 1,24,-1
 61 809 l 1,25,-1
 737 809 l 1,26,-1
 741 613 l 1,27,-1
 686 613 l 1,28,29
 668 697 668 697 637.5 717.5 c 128,-1,30
 607 738 607 738 518 738 c 2,31,-1
 347 738 l 2,32,33
 328 738 328 738 324 733.5 c 128,-1,34
 320 729 320 729 320 711 c 2,35,-1
 320 462 l 1,36,-1
 494 462 l 2,37,38
 530 462 530 462 550.5 466.5 c 128,-1,39
 571 471 571 471 584.5 485.5 c 128,-1,40
 598 500 598 500 603.5 518.5 c 128,-1,41
 609 537 609 537 616 574 c 1,42,-1
 670 574 l 1,43,-1
 670 274 l 1,44,-1
 616 274 l 1,45,46
 605 345 605 345 584.5 366 c 128,-1,47
 564 387 564 387 494 387 c 2,48,-1
 320 387 l 1,49,-1
 320 108 l 2,50,51
 320 87 320 87 328 81 c 0,52,53
 340 71 340 71 440 71 c 0,54,55
 478 71 478 71 496 71.5 c 128,-1,56
 514 72 514 72 543.5 73.5 c 128,-1,57
 573 75 573 75 587.5 79 c 128,-1,58
 602 83 602 83 624 90.5 c 128,-1,59
 646 98 646 98 659 109 c 128,-1,60
 672 120 672 120 689 136.5 c 128,-1,61
 706 153 706 153 719 175.5 c 128,-1,62
 732 198 732 198 746 227 c 1,4,-1
EndSplineSet
Validated: 1
EndChar

StartChar: Ecircumflex
Encoding: 140 202 142
Width: 570
GlyphClass: 2
Flags: W
HStem: 0 55 0 81 443 87 845 82 869 57 1038 160
VStem: 172 339 192 174 706 62
LayerCount: 2
Fore
SplineSet
280 1162 m 1,0,-1
 389 1162 l 1,1,-1
 496 1007 l 1,2,-1
 420 1007 l 1,3,-1
 334 1078 l 1,4,-1
 251 1007 l 1,5,-1
 166 1007 l 1,6,-1
 280 1162 l 1,0,-1
746 227 m 1,7,-1
 807 227 l 1,8,-1
 745 0 l 1,9,-1
 61 0 l 1,10,-1
 61 48 l 1,11,12
 85 50 85 50 91.5 51 c 128,-1,13
 98 52 98 52 114.5 54.5 c 128,-1,14
 131 57 131 57 135 60.5 c 128,-1,15
 139 64 139 64 148.5 70.5 c 128,-1,16
 158 77 158 77 160 87 c 128,-1,17
 162 97 162 97 164.5 110.5 c 128,-1,18
 167 124 167 124 167 143 c 2,19,-1
 167 667 l 2,20,21
 167 699 167 699 163.5 716.5 c 128,-1,22
 160 734 160 734 143.5 743.5 c 128,-1,23
 127 753 127 753 116.5 754.5 c 128,-1,24
 106 756 106 756 68.5381 759.441 c 0,25,26
 64 760 64 760 61 760 c 1,27,-1
 61 809 l 1,28,-1
 737 809 l 1,29,-1
 741 613 l 1,30,-1
 686 613 l 1,31,32
 668 697 668 697 637.5 717.5 c 128,-1,33
 607 738 607 738 518 738 c 2,34,-1
 347 738 l 2,35,36
 328 738 328 738 324 733.5 c 128,-1,37
 320 729 320 729 320 711 c 2,38,-1
 320 462 l 1,39,-1
 494 462 l 2,40,41
 530 462 530 462 550.5 466.5 c 128,-1,42
 571 471 571 471 584.5 485.5 c 128,-1,43
 598 500 598 500 603.5 518.5 c 128,-1,44
 609 537 609 537 616 574 c 1,45,-1
 670 574 l 1,46,-1
 670 274 l 1,47,-1
 616 274 l 1,48,49
 605 345 605 345 584.5 366 c 128,-1,50
 564 387 564 387 494 387 c 2,51,-1
 320 387 l 1,52,-1
 320 108 l 2,53,54
 320 87 320 87 328 81 c 0,55,56
 340 71 340 71 440 71 c 0,57,58
 478 71 478 71 496 71.5 c 128,-1,59
 514 72 514 72 543.5 73.5 c 128,-1,60
 573 75 573 75 587.5 79 c 128,-1,61
 602 83 602 83 624 90.5 c 128,-1,62
 646 98 646 98 659 109 c 128,-1,63
 672 120 672 120 689 136.5 c 128,-1,64
 706 153 706 153 719 175.5 c 128,-1,65
 732 198 732 198 746 227 c 1,7,-1
EndSplineSet
Validated: 1
EndChar

StartChar: Edieresis
Encoding: 141 203 143
Width: 570
GlyphClass: 2
Flags: W
HStem: 0 55 0 81 443 87 845 82 869 57 1031 127
VStem: 163 127 192 174 391 127 706 62
LayerCount: 2
Fore
SplineSet
442 999 m 0,0,1
 407 999 407 999 393 1013.5 c 128,-1,2
 379 1028 379 1028 379 1062 c 128,-1,3
 379 1096 379 1096 393 1109.5 c 128,-1,4
 407 1123 407 1123 442 1123 c 0,5,6
 476 1123 476 1123 489.5 1109 c 128,-1,7
 503 1095 503 1095 503 1061 c 128,-1,8
 503 1027 503 1027 489.5 1013 c 128,-1,9
 476 999 476 999 442 999 c 0,0,1
220 999 m 0,10,11
 186 999 186 999 172 1013.5 c 128,-1,12
 158 1028 158 1028 158 1062 c 128,-1,13
 158 1096 158 1096 172 1109.5 c 128,-1,14
 186 1123 186 1123 220 1123 c 0,15,16
 255 1123 255 1123 268.5 1109 c 128,-1,17
 282 1095 282 1095 282 1061 c 128,-1,18
 282 1027 282 1027 268.5 1013 c 128,-1,19
 255 999 255 999 220 999 c 0,10,11
746 227 m 1,20,-1
 807 227 l 1,21,-1
 745 0 l 1,22,-1
 61 0 l 1,23,-1
 61 48 l 1,24,25
 85 50 85 50 91.5 51 c 128,-1,26
 98 52 98 52 114.5 54.5 c 128,-1,27
 131 57 131 57 135 60.5 c 128,-1,28
 139 64 139 64 148.5 70.5 c 128,-1,29
 158 77 158 77 160 87 c 128,-1,30
 162 97 162 97 164.5 110.5 c 128,-1,31
 167 124 167 124 167 143 c 2,32,-1
 167 667 l 2,33,34
 167 699 167 699 163.5 716.5 c 128,-1,35
 160 734 160 734 143.5 743.5 c 128,-1,36
 127 753 127 753 116.5 754.5 c 128,-1,37
 106 756 106 756 68.5381 759.441 c 0,38,39
 64 760 64 760 61 760 c 1,40,-1
 61 809 l 1,41,-1
 737 809 l 1,42,-1
 741 613 l 1,43,-1
 686 613 l 1,44,45
 668 697 668 697 637.5 717.5 c 128,-1,46
 607 738 607 738 518 738 c 2,47,-1
 347 738 l 2,48,49
 328 738 328 738 324 733.5 c 128,-1,50
 320 729 320 729 320 711 c 2,51,-1
 320 462 l 1,52,-1
 494 462 l 2,53,54
 530 462 530 462 550.5 466.5 c 128,-1,55
 571 471 571 471 584.5 485.5 c 128,-1,56
 598 500 598 500 603.5 518.5 c 128,-1,57
 609 537 609 537 616 574 c 1,58,-1
 670 574 l 1,59,-1
 670 274 l 1,60,-1
 616 274 l 1,61,62
 605 345 605 345 584.5 366 c 128,-1,63
 564 387 564 387 494 387 c 2,64,-1
 320 387 l 1,65,-1
 320 108 l 2,66,67
 320 87 320 87 328 81 c 0,68,69
 340 71 340 71 440 71 c 0,70,71
 478 71 478 71 496 71.5 c 128,-1,72
 514 72 514 72 543.5 73.5 c 128,-1,73
 573 75 573 75 587.5 79 c 128,-1,74
 602 83 602 83 624 90.5 c 128,-1,75
 646 98 646 98 659 109 c 128,-1,76
 672 120 672 120 689 136.5 c 128,-1,77
 706 153 706 153 719 175.5 c 128,-1,78
 732 198 732 198 746 227 c 1,20,-1
EndSplineSet
Validated: 1
EndChar

StartChar: Igrave
Encoding: 142 204 144
Width: 207
GlyphClass: 2
Flags: W
HStem: 0 57 871 56 1031 165
VStem: 16 198 230 173
LayerCount: 2
Fore
SplineSet
15 1161 m 1,0,-1
 156 1161 l 1,1,-1
 207 1000 l 1,2,-1
 148 1000 l 1,3,-1
 15 1161 l 1,0,-1
472 49 m 1,4,-1
 472 0 l 1,5,-1
 81 0 l 1,6,-1
 81 49 l 1,7,8
 88 49 88 49 103.5 50 c 128,-1,9
 119 51 119 51 124 51 c 128,-1,10
 129 51 129 51 141.5 52.5 c 128,-1,11
 154 54 154 54 158 55.5 c 128,-1,12
 162 57 162 57 170.5 60.5 c 128,-1,13
 179 64 179 64 182 68.5 c 128,-1,14
 185 73 185 73 190 80 c 128,-1,15
 195 87 195 87 196.5 96 c 128,-1,16
 198 105 198 105 199.5 116.5 c 128,-1,17
 201 128 201 128 201 143 c 2,18,-1
 201 667 l 2,19,20
 201 688 201 688 199 703 c 128,-1,21
 197 718 197 718 190.5 727.5 c 128,-1,22
 184 737 184 737 179 743 c 128,-1,23
 174 749 174 749 160.5 752 c 128,-1,24
 147 755 147 755 139 756 c 128,-1,25
 131 757 131 757 111 758 c 128,-1,26
 91 759 91 759 81 760 c 1,27,-1
 81 809 l 1,28,-1
 472 809 l 1,29,-1
 472 760 l 1,30,31
 402.544 758.242 402.544 758.242 384.42 749.087 c 0,32,33
 352 732.711 352 732.711 352 667 c 2,34,-1
 352 143 l 2,35,36
 352 110 352 110 359 91 c 128,-1,37
 366 72 366 72 381.5 63.5 c 128,-1,38
 397 55 397 55 415 52.5 c 128,-1,39
 433 50 433 50 461.572 49.3959 c 0,40,41
 468 49 468 49 472 49 c 1,4,-1
EndSplineSet
Validated: 1
EndChar

StartChar: Iacute
Encoding: 143 205 145
Width: 262
GlyphClass: 2
Flags: W
HStem: 0 57 871 56 1037 165
VStem: 72 198 230 173
LayerCount: 2
Fore
SplineSet
70 1006 m 1,0,-1
 122 1167 l 1,1,-1
 261 1167 l 1,2,-1
 129 1006 l 1,3,-1
 70 1006 l 1,0,-1
472 49 m 1,4,-1
 472 0 l 1,5,-1
 81 0 l 1,6,-1
 81 49 l 1,7,8
 88 49 88 49 103.5 50 c 128,-1,9
 119 51 119 51 124 51 c 128,-1,10
 129 51 129 51 141.5 52.5 c 128,-1,11
 154 54 154 54 158 55.5 c 128,-1,12
 162 57 162 57 170.5 60.5 c 128,-1,13
 179 64 179 64 182 68.5 c 128,-1,14
 185 73 185 73 190 80 c 128,-1,15
 195 87 195 87 196.5 96 c 128,-1,16
 198 105 198 105 199.5 116.5 c 128,-1,17
 201 128 201 128 201 143 c 2,18,-1
 201 667 l 2,19,20
 201 688 201 688 199 703 c 128,-1,21
 197 718 197 718 190.5 727.5 c 128,-1,22
 184 737 184 737 179 743 c 128,-1,23
 174 749 174 749 160.5 752 c 128,-1,24
 147 755 147 755 139 756 c 128,-1,25
 131 757 131 757 111 758 c 128,-1,26
 91 759 91 759 81 760 c 1,27,-1
 81 809 l 1,28,-1
 472 809 l 1,29,-1
 472 760 l 1,30,31
 402.544 758.242 402.544 758.242 384.42 749.087 c 0,32,33
 352 732.711 352 732.711 352 667 c 2,34,-1
 352 143 l 2,35,36
 352 110 352 110 359 91 c 128,-1,37
 366 72 366 72 381.5 63.5 c 128,-1,38
 397 55 397 55 415 52.5 c 128,-1,39
 433 50 433 50 461.572 49.3959 c 0,40,41
 468 49 468 49 472 49 c 1,4,-1
EndSplineSet
Validated: 1
EndChar

StartChar: Icircumflex
Encoding: 144 206 146
Width: 329
GlyphClass: 2
Flags: W
HStem: 0 57 871 56 1039 160
VStem: 0 339 252 173
LayerCount: 2
Fore
SplineSet
113 1163 m 1,0,-1
 223 1163 l 1,1,-1
 329 1008 l 1,2,-1
 253 1008 l 1,3,-1
 168 1079 l 1,4,-1
 84 1008 l 1,5,-1
 0 1008 l 1,6,-1
 113 1163 l 1,0,-1
494 49 m 1,7,-1
 494 0 l 1,8,-1
 103 0 l 1,9,-1
 103 49 l 1,10,11
 110 49 110 49 125.5 50 c 128,-1,12
 141 51 141 51 146 51 c 128,-1,13
 151 51 151 51 163.5 52.5 c 128,-1,14
 176 54 176 54 180 55.5 c 128,-1,15
 184 57 184 57 192.5 60.5 c 128,-1,16
 201 64 201 64 204 68.5 c 128,-1,17
 207 73 207 73 212 80 c 128,-1,18
 217 87 217 87 218.5 96 c 128,-1,19
 220 105 220 105 221.5 116.5 c 128,-1,20
 223 128 223 128 223 143 c 2,21,-1
 223 667 l 2,22,23
 223 688 223 688 221 703 c 128,-1,24
 219 718 219 718 212.5 727.5 c 128,-1,25
 206 737 206 737 201 743 c 128,-1,26
 196 749 196 749 182.5 752 c 128,-1,27
 169 755 169 755 161 756 c 128,-1,28
 153 757 153 757 133 758 c 128,-1,29
 113 759 113 759 103 760 c 1,30,-1
 103 809 l 1,31,-1
 494 809 l 1,32,-1
 494 760 l 1,33,34
 424.544 758.242 424.544 758.242 406.42 749.087 c 0,35,36
 374 732.711 374 732.711 374 667 c 2,37,-1
 374 143 l 2,38,39
 374 110 374 110 381 91 c 128,-1,40
 388 72 388 72 403.5 63.5 c 128,-1,41
 419 55 419 55 437 52.5 c 128,-1,42
 455 50 455 50 483.572 49.3959 c 0,43,44
 490 49 490 49 494 49 c 1,7,-1
EndSplineSet
Validated: 1
EndChar

StartChar: Idieresis
Encoding: 145 207 147
Width: 330
GlyphClass: 2
Flags: W
HStem: 0 57 871 56 1042 128
VStem: 0 128 213 127 257 173
LayerCount: 2
Fore
SplineSet
269 1011 m 128,-1,1
 235 1011 235 1011 221 1025 c 128,-1,2
 207 1039 207 1039 207 1072 c 0,3,4
 207 1107 207 1107 221 1121 c 128,-1,5
 235 1135 235 1135 269 1135 c 128,-1,6
 303 1135 303 1135 317 1120.5 c 128,-1,7
 331 1106 331 1106 331 1072 c 0,8,9
 331 1039 331 1039 317 1025 c 128,-1,0
 303 1011 303 1011 269 1011 c 128,-1,1
62 1011 m 0,10,11
 28 1011 28 1011 14 1025 c 128,-1,12
 0 1039 0 1039 0 1072 c 0,13,14
 0 1107 0 1107 14 1121 c 128,-1,15
 28 1135 28 1135 62 1135 c 0,16,17
 97 1135 97 1135 110.5 1120.5 c 128,-1,18
 124 1106 124 1106 124 1072 c 0,19,20
 124 1039 124 1039 110.5 1025 c 128,-1,21
 97 1011 97 1011 62 1011 c 0,10,11
499 49 m 1,22,-1
 499 0 l 1,23,-1
 108 0 l 1,24,-1
 108 49 l 1,25,26
 115 49 115 49 130.5 50 c 128,-1,27
 146 51 146 51 151 51 c 128,-1,28
 156 51 156 51 168.5 52.5 c 128,-1,29
 181 54 181 54 185 55.5 c 128,-1,30
 189 57 189 57 197.5 60.5 c 128,-1,31
 206 64 206 64 209 68.5 c 128,-1,32
 212 73 212 73 217 80 c 128,-1,33
 222 87 222 87 223.5 96 c 128,-1,34
 225 105 225 105 226.5 116.5 c 128,-1,35
 228 128 228 128 228 143 c 2,36,-1
 228 667 l 2,37,38
 228 688 228 688 226 703 c 128,-1,39
 224 718 224 718 217.5 727.5 c 128,-1,40
 211 737 211 737 206 743 c 128,-1,41
 201 749 201 749 187.5 752 c 128,-1,42
 174 755 174 755 166 756 c 128,-1,43
 158 757 158 757 138 758 c 128,-1,44
 118 759 118 759 108 760 c 1,45,-1
 108 809 l 1,46,-1
 499 809 l 1,47,-1
 499 760 l 1,48,49
 429.544 758.242 429.544 758.242 411.42 749.087 c 0,50,51
 379 732.711 379 732.711 379 667 c 2,52,-1
 379 143 l 2,53,54
 379 110 379 110 386 91 c 128,-1,55
 393 72 393 72 408.5 63.5 c 128,-1,56
 424 55 424 55 442 52.5 c 128,-1,57
 460 50 460 50 488.572 49.3959 c 0,58,59
 495 49 495 49 499 49 c 1,22,-1
EndSplineSet
Validated: 1
EndChar

StartChar: Eth
Encoding: 146 208 148
Width: 682
GlyphClass: 2
Flags: W
HStem: 0 157 526 153 1123 155
VStem: 187 182 738 181
LayerCount: 2
Fore
SplineSet
677 774 m 2,0,-1
 677 147 l 2,1,2
 677 82 677 82 638 41 c 0,3,4
 598 0 598 0 532 0 c 2,5,-1
 138 0 l 1,6,-1
 138 388 l 1,7,-1
 66 388 l 1,8,-1
 66 501 l 1,9,-1
 138 501 l 1,10,-1
 138 942 l 1,11,-1
 502 942 l 2,12,13
 574 942 574 942 626 894 c 1,14,15
 677 849 677 849 677 774 c 2,0,-1
544 179 m 2,16,-1
 544 750 l 2,17,18
 544 801 544 801 506 821 c 1,19,20
 495 828 495 828 478 828 c 2,21,-1
 272 828 l 1,22,-1
 272 501 l 1,23,-1
 408 501 l 1,24,-1
 408 388 l 1,25,-1
 272 388 l 1,26,-1
 272 116 l 1,27,-1
 501 116 l 2,28,29
 539 116 539 116 543 156 c 0,30,31
 543 160 543 160 543.5 167.5 c 128,-1,32
 544 175 544 175 544 179 c 2,16,-1
EndSplineSet
Validated: 1
EndChar

StartChar: Ntilde
Encoding: 147 209 149
Width: 639
GlyphClass: 2
Flags: W
HStem: -14 16 0 55 871 56 1095 93
VStem: 160 402 214 93 856 93
LayerCount: 2
Fore
SplineSet
423 1091 m 0,0,1
 485 1091 485 1091 517 1138 c 1,2,-1
 546 1107 l 1,3,4
 519 1005 519 1005 401 1005 c 0,5,6
 378 1005 378 1005 353 1024 c 0,7,8
 332 1041 332 1041 311 1053 c 1,9,10
 298 1062 298 1062 273 1062 c 0,11,12
 249 1062 249 1062 223 1046.5 c 128,-1,13
 197 1031 197 1031 182 1006 c 1,14,-1
 155 1031 l 1,15,16
 158 1076 158 1076 192 1114 c 0,17,18
 227 1152 227 1152 271 1152 c 2,19,-1
 307 1152 l 2,20,21
 329 1152 329 1152 353 1131 c 0,22,23
 373 1114 373 1114 381.5 1107.5 c 128,-1,24
 390 1101 390 1101 401 1096 c 128,-1,25
 412 1091 412 1091 423 1091 c 0,0,1
629 809 m 1,26,-1
 944 809 l 1,27,-1
 944 761 l 1,28,29
 941 761 941 761 927.5 759.5 c 128,-1,30
 914 758 914 758 906.5 757 c 128,-1,31
 899 756 899 756 887.5 753.5 c 128,-1,32
 876 751 876 751 868 747 c 128,-1,33
 860 743 860 743 854 738 c 0,34,35
 828 711 828 711 828 622 c 2,36,-1
 828 -12 l 1,37,-1
 786 -12 l 1,38,-1
 268 613 l 1,39,-1
 268 175 l 2,40,41
 268 98 268 98 287.5 75.5 c 128,-1,42
 307 53 307 53 383 48 c 1,43,-1
 383 0 l 1,44,-1
 68 0 l 1,45,-1
 68 47 l 1,46,47
 147 55 147 55 166.5 80 c 128,-1,48
 186 105 186 105 186 188 c 2,49,-1
 186 703 l 1,50,51
 157 736 157 736 133.5 748 c 128,-1,52
 110 760 110 760 68 760 c 1,53,-1
 68 809 l 1,54,-1
 296 809 l 1,55,-1
 747 262 l 1,56,-1
 747 622 l 2,57,58
 747 704 747 704 727.5 730 c 128,-1,59
 708 756 708 756 629 760 c 1,60,-1
 629 809 l 1,26,-1
EndSplineSet
Validated: 1
EndChar

StartChar: Ograve
Encoding: 148 210 150
Width: 604
GlyphClass: 2
Flags: W
HStem: -17 79 866 81 1036 165
VStem: 74 197 93 192 849 191
LayerCount: 2
Fore
SplineSet
71 1165 m 1,0,-1
 211 1165 l 1,1,-1
 263 1005 l 1,2,-1
 204 1005 l 1,3,-1
 71 1165 l 1,0,-1
908 401 m 0,4,5
 908 216 908 216 791.5 100.5 c 128,-1,6
 675 -15 675 -15 489 -15 c 0,7,8
 306 -15 306 -15 193.5 103.5 c 128,-1,9
 81 222 81 222 81 406 c 0,10,11
 81 591 81 591 196.5 709 c 128,-1,12
 312 827 312 827 496 827 c 0,13,14
 682 827 682 827 795 707.5 c 128,-1,15
 908 588 908 588 908 401 c 0,4,5
495 756 m 0,16,17
 324 756 324 756 269 565 c 0,18,19
 249 497 249 497 249 429 c 0,20,21
 249 357 249 357 253 322 c 0,22,23
 260 267 260 267 276.5 221.5 c 128,-1,24
 293 176 293 176 320.5 136.5 c 128,-1,25
 348 97 348 97 392 75 c 128,-1,26
 436 53 436 53 492 53 c 0,27,28
 661 53 661 53 718 242 c 1,29,30
 741 309 741 309 741 378 c 0,31,32
 741 433 741 433 735.5 481.5 c 128,-1,33
 730 530 730 530 713.5 582 c 128,-1,34
 697 634 697 634 671 671 c 128,-1,35
 645 708 645 708 600 732 c 128,-1,36
 555 756 555 756 495 756 c 0,16,17
EndSplineSet
Validated: 1
EndChar

StartChar: Oacute
Encoding: 149 211 151
Width: 604
GlyphClass: 2
Flags: W
HStem: -17 79 866 81 1039 165
VStem: 93 192 416 197 849 191
LayerCount: 2
Fore
SplineSet
404 1008 m 1,0,-1
 454 1167 l 1,1,-1
 595 1167 l 1,2,-1
 462 1008 l 1,3,-1
 404 1008 l 1,0,-1
908 401 m 0,4,5
 908 216 908 216 791.5 100.5 c 128,-1,6
 675 -15 675 -15 489 -15 c 0,7,8
 306 -15 306 -15 193.5 103.5 c 128,-1,9
 81 222 81 222 81 406 c 0,10,11
 81 591 81 591 196.5 709 c 128,-1,12
 312 827 312 827 496 827 c 0,13,14
 682 827 682 827 795 707.5 c 128,-1,15
 908 588 908 588 908 401 c 0,4,5
495 756 m 0,16,17
 324 756 324 756 269 565 c 0,18,19
 249 497 249 497 249 429 c 0,20,21
 249 357 249 357 253 322 c 0,22,23
 260 267 260 267 276.5 221.5 c 128,-1,24
 293 176 293 176 320.5 136.5 c 128,-1,25
 348 97 348 97 392 75 c 128,-1,26
 436 53 436 53 492 53 c 0,27,28
 661 53 661 53 718 242 c 1,29,30
 741 309 741 309 741 378 c 0,31,32
 741 433 741 433 735.5 481.5 c 128,-1,33
 730 530 730 530 713.5 582 c 128,-1,34
 697 634 697 634 671 671 c 128,-1,35
 645 708 645 708 600 732 c 128,-1,36
 555 756 555 756 495 756 c 0,16,17
EndSplineSet
Validated: 1
EndChar

StartChar: Ocircumflex
Encoding: 150 212 152
Width: 604
GlyphClass: 2
Flags: W
HStem: -17 79 866 81 1038 160
VStem: 93 192 172 339 849 191
LayerCount: 2
Fore
SplineSet
280 1162 m 1,0,-1
 389 1162 l 1,1,-1
 496 1007 l 1,2,-1
 420 1007 l 1,3,-1
 334 1078 l 1,4,-1
 251 1007 l 1,5,-1
 166 1007 l 1,6,-1
 280 1162 l 1,0,-1
908 401 m 0,7,8
 908 216 908 216 791.5 100.5 c 128,-1,9
 675 -15 675 -15 489 -15 c 0,10,11
 306 -15 306 -15 193.5 103.5 c 128,-1,12
 81 222 81 222 81 406 c 0,13,14
 81 591 81 591 196.5 709 c 128,-1,15
 312 827 312 827 496 827 c 0,16,17
 682 827 682 827 795 707.5 c 128,-1,18
 908 588 908 588 908 401 c 0,7,8
495 756 m 0,19,20
 324 756 324 756 269 565 c 0,21,22
 249 497 249 497 249 429 c 0,23,24
 249 357 249 357 253 322 c 0,25,26
 260 267 260 267 276.5 221.5 c 128,-1,27
 293 176 293 176 320.5 136.5 c 128,-1,28
 348 97 348 97 392 75 c 128,-1,29
 436 53 436 53 492 53 c 0,30,31
 661 53 661 53 718 242 c 1,32,33
 741 309 741 309 741 378 c 0,34,35
 741 433 741 433 735.5 481.5 c 128,-1,36
 730 530 730 530 713.5 582 c 128,-1,37
 697 634 697 634 671 671 c 128,-1,38
 645 708 645 708 600 732 c 128,-1,39
 555 756 555 756 495 756 c 0,19,20
EndSplineSet
Validated: 1
EndChar

StartChar: Otilde
Encoding: 151 213 153
Width: 604
GlyphClass: 2
Flags: W
HStem: -17 79 866 81 1036 89 1095 93
VStem: 93 192 160 402 849 191
LayerCount: 2
Fore
SplineSet
423 1091 m 0,0,1
 485 1091 485 1091 517 1138 c 1,2,-1
 546 1107 l 1,3,4
 519 1005 519 1005 401 1005 c 0,5,6
 378 1005 378 1005 353 1024 c 0,7,8
 332 1041 332 1041 311 1053 c 1,9,10
 298 1062 298 1062 273 1062 c 0,11,12
 249 1062 249 1062 223 1046.5 c 128,-1,13
 197 1031 197 1031 182 1006 c 1,14,-1
 155 1031 l 1,15,16
 158 1076 158 1076 192 1114 c 0,17,18
 227 1152 227 1152 271 1152 c 2,19,-1
 307 1152 l 2,20,21
 329 1152 329 1152 353 1131 c 0,22,23
 373 1114 373 1114 381.5 1107.5 c 128,-1,24
 390 1101 390 1101 401 1096 c 128,-1,25
 412 1091 412 1091 423 1091 c 0,0,1
908 401 m 0,26,27
 908 216 908 216 791.5 100.5 c 128,-1,28
 675 -15 675 -15 489 -15 c 0,29,30
 306 -15 306 -15 193.5 103.5 c 128,-1,31
 81 222 81 222 81 406 c 0,32,33
 81 591 81 591 196.5 709 c 128,-1,34
 312 827 312 827 496 827 c 0,35,36
 682 827 682 827 795 707.5 c 128,-1,37
 908 588 908 588 908 401 c 0,26,27
495 756 m 0,38,39
 324 756 324 756 269 565 c 0,40,41
 249 497 249 497 249 429 c 0,42,43
 249 357 249 357 253 322 c 0,44,45
 260 267 260 267 276.5 221.5 c 128,-1,46
 293 176 293 176 320.5 136.5 c 128,-1,47
 348 97 348 97 392 75 c 128,-1,48
 436 53 436 53 492 53 c 0,49,50
 661 53 661 53 718 242 c 1,51,52
 741 309 741 309 741 378 c 0,53,54
 741 433 741 433 735.5 481.5 c 128,-1,55
 730 530 730 530 713.5 582 c 128,-1,56
 697 634 697 634 671 671 c 128,-1,57
 645 708 645 708 600 732 c 128,-1,58
 555 756 555 756 495 756 c 0,38,39
EndSplineSet
Validated: 1
EndChar

StartChar: Odieresis
Encoding: 152 214 154
Width: 604
GlyphClass: 2
Flags: W
HStem: -17 79 866 81 1031 127
VStem: 93 192 163 127 391 127 849 191
LayerCount: 2
Fore
SplineSet
442 999 m 0,0,1
 407 999 407 999 393 1013.5 c 128,-1,2
 379 1028 379 1028 379 1062 c 128,-1,3
 379 1096 379 1096 393 1109.5 c 128,-1,4
 407 1123 407 1123 442 1123 c 0,5,6
 476 1123 476 1123 489.5 1109 c 128,-1,7
 503 1095 503 1095 503 1061 c 128,-1,8
 503 1027 503 1027 489.5 1013 c 128,-1,9
 476 999 476 999 442 999 c 0,0,1
220 999 m 0,10,11
 186 999 186 999 172 1013.5 c 128,-1,12
 158 1028 158 1028 158 1062 c 128,-1,13
 158 1096 158 1096 172 1109.5 c 128,-1,14
 186 1123 186 1123 220 1123 c 0,15,16
 255 1123 255 1123 268.5 1109 c 128,-1,17
 282 1095 282 1095 282 1061 c 128,-1,18
 282 1027 282 1027 268.5 1013 c 128,-1,19
 255 999 255 999 220 999 c 0,10,11
908 401 m 0,20,21
 908 216 908 216 791.5 100.5 c 128,-1,22
 675 -15 675 -15 489 -15 c 0,23,24
 306 -15 306 -15 193.5 103.5 c 128,-1,25
 81 222 81 222 81 406 c 0,26,27
 81 591 81 591 196.5 709 c 128,-1,28
 312 827 312 827 496 827 c 0,29,30
 682 827 682 827 795 707.5 c 128,-1,31
 908 588 908 588 908 401 c 0,20,21
495 756 m 0,32,33
 324 756 324 756 269 565 c 0,34,35
 249 497 249 497 249 429 c 0,36,37
 249 357 249 357 253 322 c 0,38,39
 260 267 260 267 276.5 221.5 c 128,-1,40
 293 176 293 176 320.5 136.5 c 128,-1,41
 348 97 348 97 392 75 c 128,-1,42
 436 53 436 53 492 53 c 0,43,44
 661 53 661 53 718 242 c 1,45,46
 741 309 741 309 741 378 c 0,47,48
 741 433 741 433 735.5 481.5 c 128,-1,49
 730 530 730 530 713.5 582 c 128,-1,50
 697 634 697 634 671 671 c 128,-1,51
 645 708 645 708 600 732 c 128,-1,52
 555 756 555 756 495 756 c 0,32,33
EndSplineSet
Validated: 1
EndChar

StartChar: multiply
Encoding: 153 215 155
Width: 709
GlyphClass: 2
Flags: W
HStem: 84 790
VStem: 139 780
LayerCount: 2
Fore
SplineSet
677 552 m 1,0,-1
 481 353 l 1,1,-1
 677 154 l 1,2,-1
 587 62 l 1,3,-1
 390 261 l 1,4,-1
 193 62 l 1,5,-1
 102 154 l 1,6,-1
 299 353 l 1,7,-1
 102 552 l 1,8,-1
 193 644 l 1,9,-1
 390 445 l 1,10,-1
 587 644 l 1,11,-1
 677 552 l 1,0,-1
EndSplineSet
Validated: 1
EndChar

StartChar: Oslash
Encoding: 154 216 156
Width: 606
GlyphClass: 2
Flags: W
HStem: 0 157 913 158 1265 19
VStem: 97 181 638 181
LayerCount: 2
Fore
SplineSet
414 0 m 0,0,1
 261 0 261 0 252 1 c 1,2,-1
 203 -142 l 1,3,-1
 95 -142 l 1,4,-1
 156 32 l 1,5,6
 117 58 117 58 94.5 98 c 128,-1,7
 72 138 72 138 72 184 c 2,8,-1
 72 605 l 2,9,10
 72 682 72 682 129 736 c 0,11,12
 187 790 187 790 266 790 c 0,13,14
 366 790 366 790 417 789 c 1,15,-1
 471 947 l 1,16,-1
 579 947 l 1,17,-1
 515 761 l 1,18,19
 555 736 555 736 579.5 694 c 128,-1,20
 604 652 604 652 604 605 c 2,21,-1
 604 184 l 2,22,23
 604 108 604 108 548 54 c 128,-1,24
 492 0 492 0 414 0 c 0,0,1
470 209 m 2,25,-1
 470 580 l 2,26,27
 470 598 470 598 464 616 c 1,28,-1
 292 116 l 1,29,-1
 397 116 l 2,30,31
 431 116 431 116 450 144 c 0,32,33
 470 173 470 173 470 209 c 2,25,-1
208 183 m 1,34,-1
 377 673 l 1,35,-1
 275 673 l 2,36,37
 243 673 243 673 223 644 c 0,38,39
 205 617 205 617 205 580 c 2,40,-1
 205 209 l 2,41,42
 205 195 205 195 208 183 c 1,34,-1
EndSplineSet
Validated: 1
EndChar

